<svg width="1025" height="1024" xmlns="http://www.w3.org/2000/svg" version="1.1">
 <title>Iconly/Bold/Star</title>

 <g>
  <title>Layer 1</title>
  <g stroke="null" fill-rule="evenodd" fill="none" id="Iconly/Bold/Star">
   <g stroke="null" fill-rule="nonzero" fill="#000000" id="Star">
    <path stroke="null" id="svg_1" d="m814.86464,630.51052c-13.23389,12.82512 -19.31432,31.373 -16.29965,49.56321l45.42442,251.39276c3.83221,21.30707 -5.1607,42.86962 -22.99324,55.18378c-17.47486,12.77402 -40.72358,14.3069 -59.78242,4.08769l-226.30458,-118.03196c-7.8688,-4.18988 -16.60623,-6.43811 -25.54804,-6.69359l-13.84704,0c-4.80303,0.71535 -9.50387,2.24823 -13.79594,4.59865l-226.35567,118.59402c-11.19004,5.62057 -23.86187,7.61332 -36.27822,5.62057c-30.24888,-5.72276 -50.43184,-34.54096 -45.47552,-64.94313l45.47552,-251.39276c3.01467,-18.3435 -3.06577,-36.99357 -16.29965,-50.02307l-184.50798,-178.83631c-15.43102,-14.97115 -20.79611,-37.45343 -13.74485,-57.73858c6.84688,-20.23405 24.32174,-35.00082 45.42442,-38.32207l253.94756,-36.84028c19.31432,-1.99275 36.27822,-13.74485 44.96456,-31.11752l111.90043,-229.42144c2.657,-5.10961 6.08043,-9.81045 10.21922,-13.79594l4.59865,-3.57673c2.40152,-2.657 5.1607,-4.85413 8.22647,-6.64249l5.56947,-2.04384l8.68634,-3.57673l21.51145,0c19.21213,1.99275 36.12493,13.48937 44.96456,30.65765l113.38222,228.39952c8.17537,16.70842 24.06626,28.30723 42.40975,31.11752l253.94756,36.84028c21.46036,3.06577 39.39508,17.88363 46.49744,38.32207c6.69359,20.48953 0.91973,42.97181 -14.81787,57.73858l-191.09937,180.88015z"/>
   </g>
  </g>
 </g>
</svg>