<svg width="1025" height="1024" xmlns="http://www.w3.org/2000/svg" xml:space="preserve" enable-background="new 0 0 1025 1024" version="1.1">

 <g>
  <title>Layer 1</title>
  <path stroke="null" id="svg_1" d="m509.49692,0.26862c-112.25908,2.06495 -183.9691,47.39969 -214.75559,117.88976c-29.37883,67.11056 -22.80854,151.86754 -1.50178,239.53397c-11.45108,13.42191 -20.55587,31.44328 -17.27047,58.56943c3.56673,29.56605 11.73241,50.59148 23.2776,65.32695c6.38257,8.07457 14.73597,8.82546 22.52671,12.76513c4.22351,25.15482 11.26335,50.30964 21.77582,71.33457c6.00712,12.10936 12.85874,23.2776 19.52314,32.28828c3.00356,4.03478 7.32118,6.38257 10.51246,9.76157c0.18772,29.66016 0.28133,54.34443 -2.25267,85.60148c-7.79074,18.86737 -25.99982,34.07039 -55.56587,48.80786c-30.50516,15.20803 -70.20823,29.28472 -110.38086,46.55519c-40.17262,17.27047 -81.47158,38.2954 -114.13531,71.33457c-32.66372,33.03917 -55.7536,78.37291 -59.32032,138.16379l-1.50178,25.53027l964.14399,0l-1.50178,-25.53027c-3.56923,-59.79088 -26.75171,-105.12463 -59.32032,-138.16379c-32.56861,-33.03917 -73.40202,-54.06409 -113.38442,-71.33457c-39.98741,-17.27047 -79.21891,-31.34716 -109.62997,-46.55519c-29.1896,-14.64236 -47.58641,-29.46994 -55.56587,-48.05697c-2.62812,-31.6325 -2.4429,-56.41188 -2.25267,-86.35237c3.18878,-3.47412 7.5089,-5.72679 10.51246,-9.76157c6.56779,-9.10579 12.86025,-20.27403 18.77225,-32.28828c10.23213,-21.02493 17.64592,-46.27486 21.77582,-71.33457c7.5089,-3.93967 15.57847,-4.88079 21.77582,-12.76513c11.54369,-14.73547 19.70836,-35.76089 23.2776,-65.32695c3.18878,-26.28116 -5.63168,-43.64574 -16.51958,-57.06765c11.73391,-38.10768 26.75171,-99.68067 21.77582,-162.94317c-2.72323,-34.54095 -11.54369,-68.98829 -32.28828,-97.61572c-18.96248,-26.28116 -49.74898,-45.42886 -88.60504,-53.3132c-25.24993,-32.75733 -70.67879,-45.05341 -123.14599,-45.05341l-0.75089,0zm0.75089,48.05697c0.28033,0 0.47056,0 0.75089,0c48.3373,0.18772 79.68947,14.36052 88.60504,30.03561l6.00712,9.76157l11.26335,1.50178c33.41461,4.59895 52.56231,18.11498 66.07834,36.79362c13.51602,18.67814 21.02493,44.77158 23.2776,73.58724c4.50534,57.63082 -12.10936,124.74138 -22.52671,156.18516l-6.00712,18.77225l16.51958,9.76157c-1.03122,-0.65728 9.1959,6.28845 6.75801,26.28116c-2.81834,23.55893 -8.45002,35.76089 -12.76513,41.29896c-4.32012,5.53756 -6.57279,5.25623 -6.75801,5.25623l-20.27403,1.50178l-2.25267,19.52264c-2.25267,20.74459 -10.60758,46.17975 -20.27403,66.07834c-4.88079,9.9518 -9.85669,18.67714 -14.26691,24.77938c-4.41023,6.10223 -9.01068,9.48124 -6.75801,8.25979l-12.76513,6.75801l0,14.26691c0,34.82128 -1.40667,63.35511 2.25267,103.62285l0,3.00356l1.50178,3.00356c13.70124,36.88873 45.42886,59.88599 80.34525,77.34169c34.91639,17.4607 74.99391,30.31594 112.63353,46.55519c37.63962,16.23925 72.08546,35.66728 97.61572,61.57299c20.27403,20.55437 33.03917,47.77664 39.79718,81.84703l-853.01225,0c6.75801,-33.97528 19.42903,-61.29266 39.79718,-81.84703c25.62388,-25.90571 60.54027,-45.33374 98.36661,-61.57299c37.82584,-16.23925 77.62302,-29.09449 112.63353,-46.55519c35.01,-17.45569 67.39239,-40.45296 81.09614,-77.34169l1.50178,-6.00712c3.66034,-40.26774 2.25267,-68.80156 2.25267,-103.62285l0,-14.26691l-12.76513,-6.75801c2.15856,1.12634 -3.00356,-2.15756 -7.5089,-8.25979c-4.50534,-6.10223 -10.04341,-14.82758 -15.0178,-24.77938c-9.94929,-19.89859 -18.11548,-45.52397 -20.27403,-66.07834l-2.25267,-19.52264l-20.27403,-1.50178c-0.18772,0 -2.44039,0.28133 -6.75801,-5.25623c-4.31762,-5.53807 -9.94929,-17.74003 -12.76513,-41.29896c-2.34678,-19.9927 7.79024,-26.93844 6.75801,-26.28116l15.76869,-9.76157l-4.50534,-17.27047c-22.62082,-87.10326 -26.56299,-166.22856 -3.00356,-220.01082c23.46532,-53.59504 71.33457,-87.29098 171.20396,-89.35593z"/>
 </g>
</svg>