<svg width="1025" height="1024" xmlns="http://www.w3.org/2000/svg" version="1.1" xml:space="preserve">
 <g>
  <title>Layer 1</title>
  <g stroke="null" id="svg_5">
   <path stroke="null" id="svg_1" d="m714.18246,675.00961l-174.25364,-103.26142l0,-232.33819c0,-19.36152 -16.1346,-38.72303 -38.72303,-38.72303l-3.22692,0c-19.36152,0 -38.72303,16.1346 -38.72303,38.72303l0,242.01895c0,19.36152 9.68076,35.49611 25.81535,45.17687l187.16132,112.94218c16.1346,9.68076 38.72303,6.45384 51.63071,-12.90768c12.90768,-19.36152 6.45384,-41.94995 -9.68076,-51.63071l0,0zm271.06122,-529.21476l-158.11905,-132.30369c-22.58844,-19.36152 -54.85763,-16.1346 -74.21914,6.45384c-19.36152,22.58844 -16.1346,54.85763 6.45384,74.21914l158.11905,132.30369c22.58844,19.36152 54.85763,16.1346 74.21914,-6.45384c19.36152,-22.58844 16.1346,-58.08455 -6.45384,-74.21914l0,0zm-880.94897,77.44606l158.11905,-132.30369c22.58844,-19.36152 25.81535,-51.63071 6.45384,-74.21914c-16.1346,-19.36152 -48.40379,-22.58844 -70.99222,-3.22692l-158.11905,132.30369c-22.58844,16.1346 -25.81535,51.63071 -6.45384,70.99222c16.1346,22.58844 48.40379,25.81535 70.99222,6.45384zm409.81875,-129.07677c-258.15354,0 -464.67638,206.52284 -464.67638,464.67638c0,258.15354 206.52284,464.67638 464.67638,464.67638c258.15354,0 464.67638,-206.52284 464.67638,-464.67638c0,-258.15354 -209.74975,-464.67638 -464.67638,-464.67638zm0,826.09134c-200.069,0 -361.41496,-161.34596 -361.41496,-361.41496s161.34596,-361.41496 361.41496,-361.41496c200.069,0 361.41496,161.34596 361.41496,361.41496s-164.57288,361.41496 -361.41496,361.41496z" class="st0"/>
  </g>
 </g>

</svg>