<svg width="1025" height="1024" xmlns="http://www.w3.org/2000/svg" xml:space="preserve" enable-background="new 0 0 1025 1024" version="1.1">

 <g>
  <title>Layer 1</title>
  <path stroke="null" id="svg_1" d="m508.02001,92.22803c-4.56107,0.47957 -8.87893,2.55957 -12.16,5.75957l-258.56001,260.48001l-195.84,0c-10.72,0 -21.67979,3.76021 -29.44,11.52c-7.75979,7.76021 -11.52,18.72043 -11.52,29.44l0,81.92086c0,10.71787 3.76021,21.67893 11.52,29.44c7.76021,7.76107 18.72,11.52 29.44,11.52l3.2,0l110.08,366.08001c0.16,0.40107 0.39979,0.87893 0.64,1.28c8.64,23.04 30.72,42.24 58.24,42.24l593.92001,0c27.03787,0 51.11893,-17.19893 58.24,-42.88c0.08107,-0.16213 -0.08107,-0.48213 0,-0.64l0.64,-0.64l113.92,-365.44001l3.2,0c10.71787,0 21.67893,-3.75893 29.44,-11.52c7.76107,-7.76107 11.52,-18.72213 11.52,-29.44l0,-81.92086c0,-10.71957 -3.75893,-21.67979 -11.52,-29.44c-7.76107,-7.75979 -18.72213,-11.52 -29.44,-11.52l-195.84,0l-263.04001,-260.48001c-4.39893,-4.31957 -10.47893,-6.47979 -16.64,-5.75957zm2.56,49.91957l218.24,216.32l-432.64001,0l214.4,-216.32zm-469.12001,257.28001l735.36002,0c1.51893,0.16043 2.96107,0.16043 4.48,0l202.24,0l0,81.92086l-18.56,0c-8.72107,0.08107 -16.48213,5.76 -19.2,14.08l-119.04,381.44001c0,0.23893 0,0.40107 0,0.64c-1.6,6.23787 -9.83893,13.44 -19.2,13.44l-593.92001,0c-9.12,0 -15.52,-5.99893 -19.2,-15.36l-0.64,0l-114.56,-379.52001c-2.48021,-8.55893 -10.24,-14.56213 -19.2,-14.72l-18.56,0l0,-81.92086zm634.88001,114.56086l-14.72,14.08l-190.08,190.08l-87.68,-87.68l-14.72,-14.08l-28.8,28.8l14.08,14.72l102.4,102.4l14.72,14.08l14.72,-14.08l204.8,-204.8l14.08,-14.72l-28.8,-28.8z"/>
 </g>
</svg>