<svg width="1025" height="1024" xmlns="http://www.w3.org/2000/svg" version="1.1" xml:space="preserve">
 <title>Layer 1</title>

 <g>
  <title>Layer 1</title>
  <g stroke="null" id="svg_5">
   <path stroke="null" id="svg_1" d="m141.85702,506.06444l0,197.85212c0,39.57042 34.29437,73.86479 73.86479,73.86479s73.86479,-34.29437 73.86479,-73.86479l0,-197.85212c0,-39.57042 -34.29437,-73.86479 -73.86479,-73.86479s-73.86479,31.65634 -73.86479,73.86479z" fill="#000000"/>
   <path stroke="null" id="svg_2" d="m437.31618,506.06444l0,197.85212c0,39.57042 34.29437,73.86479 73.86479,73.86479c39.57042,0 73.86479,-34.29437 73.86479,-73.86479l0,-197.85212c0,-39.57042 -34.29437,-73.86479 -73.86479,-73.86479c-39.57042,0 -73.86479,31.65634 -73.86479,73.86479z" fill="#000000"/>
   <path stroke="null" id="svg_3" d="m118.11476,1023.11798l788.77046,0c39.57042,0 73.86479,-34.29437 73.86479,-73.86479c0,-39.57042 -34.29437,-73.86479 -73.86479,-73.86479l-788.77046,0c-39.57042,0 -73.86479,34.29437 -73.86479,73.86479c0,39.57042 34.29437,73.86479 73.86479,73.86479z" fill="#000000"/>
   <path stroke="null" id="svg_4" d="m732.77535,506.06444l0,197.85212c0,39.57042 34.29437,73.86479 73.86479,73.86479c39.57042,0 73.86479,-34.29437 73.86479,-73.86479l0,-197.85212c0,-39.57042 -34.29437,-73.86479 -73.86479,-73.86479c-39.57042,0 -73.86479,31.65634 -73.86479,73.86479z" fill="#000000"/>
   <path stroke="null" id="svg_6" d="m466.3345,12.75315l-387.79016,203.12818c-21.10423,10.55211 -34.29437,31.65634 -34.29437,55.39859c0,34.29437 26.38028,60.67465 60.67465,60.67465l812.51271,0c34.29437,0 60.67465,-26.38028 60.67465,-60.67465c0,-23.74225 -13.19014,-44.84648 -34.29437,-55.39859l-385.15213,-203.12818c-29.01831,-15.82817 -63.31268,-15.82817 -92.33099,0z" fill="#000000"/>
  </g>
 </g>
</svg>