<svg width="1025" height="1024" xmlns="http://www.w3.org/2000/svg" version="1.1" xml:space="preserve">
 <g>
  <title>Layer 1</title>
  <g stroke="null" id="svg_5">
   <path stroke="null" id="svg_1" d="m871.34674,102.54673c39.87186,0 76.67665,15.33533 104.28024,42.93892c27.60359,27.60359 46.00599,64.40838 49.07305,101.21317l0,9.2012l0,512.19999c0,39.87186 -15.33533,76.67665 -42.93892,104.28024c-27.60359,27.60359 -64.40838,46.00599 -101.21317,49.07305l-9.2012,0l-717.6934,0c-39.87186,0 -76.67665,-15.33533 -104.28024,-42.93892c-27.60359,-27.60359 -46.00599,-64.40838 -49.07305,-101.21317l0,-9.2012l0,-512.19999c0,-39.87186 15.33533,-76.67665 42.93892,-104.28024c27.60359,-30.67066 64.40838,-49.07305 101.21317,-49.07305l9.2012,0l717.6934,0zm49.07305,306.70658l-815.83951,0l0,358.8467c0,12.26826 3.06707,24.53653 12.26826,33.73772c9.2012,9.2012 18.40239,15.33533 33.73772,15.33533l6.13413,0l714.62634,0c12.26826,0 24.53653,-3.06707 33.73772,-12.26826c9.2012,-9.2012 15.33533,-18.40239 15.33533,-33.73772l0,-6.13413l0,-355.77964zm-269.90179,73.60958l92.01197,92.01197c9.2012,9.2012 15.33533,21.46946 15.33533,36.80479c0,12.26826 -6.13413,27.60359 -15.33533,36.80479l-92.01197,92.01197c-6.13413,6.13413 -9.2012,9.2012 -15.33533,12.26826c-6.13413,3.06707 -12.26826,3.06707 -18.40239,3.06707s-12.26826,0 -18.40239,-3.06707s-12.26826,-6.13413 -15.33533,-12.26826s-9.2012,-9.2012 -12.26826,-15.33533c-3.06707,-6.13413 -3.06707,-12.26826 -3.06707,-18.40239s0,-12.26826 3.06707,-18.40239c3.06707,-6.13413 6.13413,-12.26826 12.26826,-15.33533l6.13413,-6.13413l-230.02994,0c-12.26826,0 -27.60359,-6.13413 -36.80479,-15.33533c-9.2012,-9.2012 -15.33533,-21.46946 -15.33533,-36.80479c0,-12.26826 6.13413,-27.60359 15.33533,-36.80479c9.2012,-9.2012 21.46946,-15.33533 36.80479,-15.33533l226.96287,0l-6.13413,-6.13413c-9.2012,-9.2012 -15.33533,-21.46946 -15.33533,-36.80479c0,-12.26826 6.13413,-27.60359 15.33533,-36.80479c9.2012,-9.2012 21.46946,-15.33533 36.80479,-15.33533c12.26826,0 24.53653,6.13413 33.73772,15.33533zm220.82874,-279.10299l-717.6934,0c-12.26826,0 -24.53653,6.13413 -33.73772,15.33533c-12.26826,9.2012 -15.33533,21.46946 -15.33533,36.80479l0,52.14012l818.90658,0l0,-52.14012c0,-12.26826 -6.13413,-27.60359 -15.33533,-36.80479c-12.26826,-9.2012 -24.53653,-15.33533 -36.80479,-15.33533z" fill="#231F20"/>
  </g>
 </g>

</svg>