<svg width="1025" height="1024" xmlns="http://www.w3.org/2000/svg" version="1.1" xml:space="preserve">
 <g>
  <title>Layer 1</title>
  <g stroke="null" id="svg_5">
   <path stroke="null" id="svg_1" d="m313.42669,822.27058c-57.28072,0 -100.24126,47.73394 -100.24126,100.24126c0,57.28072 42.96054,100.24126 100.24126,100.24126c57.28072,0 100.24126,-47.73394 100.24126,-100.24126c4.77339,-57.28072 -42.96054,-100.24126 -100.24126,-100.24126zm510.75311,0c-57.28072,0 -100.24126,47.73394 -100.24126,100.24126c0,57.28072 42.96054,100.24126 100.24126,100.24126c57.28072,0 100.24126,-47.73394 100.24126,-100.24126c0,-57.28072 -42.96054,-100.24126 -100.24126,-100.24126zm-453.47239,-257.76325l377.09809,0c38.18715,0 71.6009,-19.09357 90.69448,-52.50733l171.84217,-310.27058c14.32018,-23.86697 4.77339,-57.28072 -19.09357,-71.6009c-23.86697,-14.32018 -57.28072,-4.77339 -66.82751,19.09357l-171.84217,310.27058l-358.00452,0l-205.25592,-429.60542c-9.54679,-19.09357 -28.64036,-28.64036 -47.73394,-28.64036l-81.14769,0c-28.64036,4.77339 -52.50733,28.64036 -52.50733,57.28072s23.86697,47.73394 52.50733,47.73394l52.50733,0l181.38895,386.64488l-66.82751,124.10823c-38.18715,66.82751 9.54679,152.74859 90.69448,152.74859l558.48704,0c28.64036,0 52.50733,-23.86697 52.50733,-52.50733c0,-28.64036 -23.86697,-52.50733 -52.50733,-52.50733l-563.26044,0l57.28072,-100.24126z" fill="#231F20"/>
  </g>
 </g>

</svg>