<svg width="1025" height="1024" xmlns="http://www.w3.org/2000/svg" version="1.1" enable-background="new 0 0 1025 1024" xml:space="preserve">
 <g>
  <title>Layer 1</title>
  <g stroke="null" id="svg_1">
   <path stroke="null" id="svg_2" d="m510.12207,1023.24999c-280.59303,0 -508.87211,-233.03489 -508.87211,-513.62792s228.27908,-508.87211 508.87211,-508.87211s513.62792,228.27908 513.62792,508.87211s-233.03489,513.62792 -513.62792,513.62792zm0,-951.16281c-242.54652,0 -442.29071,199.74419 -442.29071,442.29071s199.74419,442.29071 442.29071,442.29071s442.29071,-194.98838 442.29071,-442.29071s-199.74419,-442.29071 -442.29071,-442.29071z" class="st0"/>
   <path stroke="null" id="svg_3" d="m686.0872,695.09882c-4.75581,0 -14.26744,0 -19.02326,-4.75581l-147.43024,-85.60465c-38.04651,-23.77907 -61.82558,-71.33721 -61.82558,-114.13954l0,-194.98838c0,-19.02326 14.26744,-38.04651 38.04651,-38.04651c19.02326,0 38.04651,14.26744 38.04651,38.04651l0,194.98838c0,19.02326 14.26744,42.80233 28.53488,52.31395l147.43024,90.36047c19.02326,9.51163 23.77907,33.2907 14.26744,47.55814c-14.26744,9.51163 -23.77907,14.26744 -38.04651,14.26744z" class="st0"/>
  </g>
 </g>

</svg>