<svg width="1025" height="1024" xmlns="http://www.w3.org/2000/svg" xml:space="preserve" version="1.1">

 <g>
  <title>Layer 1</title>
  <path stroke="null" id="svg_1" fill="#231F20" d="m512.49999,1.08911c-282.04132,0 -510.91091,228.86959 -510.91091,510.91091s228.86959,510.91091 510.91091,510.91091s510.91091,-228.86959 510.91091,-510.91091s-228.86959,-510.91091 -510.91091,-510.91091zm0,43.92447c256.61136,0 466.98644,208.06327 466.98644,466.98644c0,256.61136 -208.06327,466.98644 -466.98644,466.98644c-256.61136,0 -466.98644,-208.06327 -466.98644,-466.98644c0,-256.61136 210.37508,-466.98644 466.98644,-466.98644zm0,67.04261c-6.93544,0 -11.55907,2.31181 -16.1827,6.93544c-4.62363,4.62363 -6.93544,9.24726 -6.93544,16.1827l0,314.40671c-13.87088,4.62363 -23.11814,13.87088 -32.3654,25.42995c-6.93544,11.55907 -11.55907,25.42995 -11.55907,39.30084c0,9.24726 2.31181,20.80633 6.93544,27.74177l-134.08522,131.7734c-2.31181,2.31181 -4.62363,4.62363 -4.62363,6.93544c-2.31181,2.31181 -2.31181,4.62363 -2.31181,9.24726s0,6.93544 2.31181,9.24726c0,2.31181 2.31181,4.62363 4.62363,6.93544c2.31181,2.31181 4.62363,4.62363 6.93544,4.62363c2.31181,0 4.62363,2.31181 9.24726,2.31181c2.31181,0 6.93544,0 9.24726,-2.31181c2.31181,-2.31181 4.62363,-2.31181 6.93544,-4.62363l134.08522,-134.08522c9.24726,4.62363 18.49451,6.93544 27.74177,6.93544c18.49451,0 34.67721,-6.93544 46.23628,-18.49451s18.49451,-30.05358 18.49451,-46.23628c0,-13.87088 -4.62363,-27.74177 -11.55907,-39.30084c-6.93544,-11.55907 -18.49451,-20.80633 -32.3654,-25.42995l0,-314.40671c0,-2.31181 0,-6.93544 -2.31181,-9.24726c0,-2.31181 -2.31181,-4.62363 -4.62363,-6.93544c-2.31181,-2.31181 -4.62363,-4.62363 -6.93544,-4.62363c-2.31181,-2.31181 -4.62363,-2.31181 -6.93544,-2.31181l0,0z" class="st0"/>
 </g>
</svg>