<svg width="1025" height="1024" xmlns="http://www.w3.org/2000/svg" xml:space="preserve" version="1.1">

 <g>
  <title>Layer 1</title>
  <g stroke="null" id="svg_1">
   <polygon stroke="null" id="svg_2" points="647.4360656738281,356.3045959472656 512.5000305175781,488.64569091796875 374.9690856933594,351.11474609375 351.6147766113281,377.06396484375 489.1457214355469,514.5949096679688 354.2096862792969,646.93603515625 377.5639953613281,672.8853149414062 512.5000305175781,537.94921875 650.0310363769531,675.4801635742188 675.9802551269531,652.1258544921875 535.8544006347656,514.5949096679688 670.7903747558594,379.65887451171875 "/>
   <path stroke="null" id="svg_3" d="m512.50003,0.80002c-282.84669,0 -511.19998,228.35329 -511.19998,511.19998s228.35329,511.19998 511.19998,511.19998s511.19998,-228.35329 511.19998,-511.19998s-228.35329,-511.19998 -511.19998,-511.19998zm0,1006.83042c-272.46699,0 -493.03551,-220.56852 -493.03551,-493.03551s220.56852,-493.03551 493.03551,-493.03551s493.03551,220.56852 493.03551,493.03551s-220.56852,493.03551 -493.03551,493.03551z"/>
  </g>
 </g>
</svg>