<svg width="1025" height="1024" xmlns="http://www.w3.org/2000/svg" xml:space="preserve" enable-background="new 0 0 1025 1024" version="1.1">

 <g>
  <title>Layer 1</title>
  <g stroke="null" id="svg_1">
   <path stroke="null" id="svg_2" d="m593.56668,189.86664c-106.66667,0 -196.26667,64 -241.06667,153.6c-23.46667,-14.93333 -49.06667,-27.73333 -78.93334,-27.73333c-76.8,0 -136.53334,59.73334 -140.8,136.53334c-76.8,27.73333 -132.26667,98.13334 -132.26667,183.46667c0,108.8 89.6,198.40001 198.40001,198.40001l644.26669,0c100.26667,0 181.33334,-81.06667 181.33334,-181.33334c0,-93.86667 -72.53334,-166.4 -162.13334,-177.06667c0,-4.26667 2.13333,-8.53333 2.13333,-14.93333c0,-149.33334 -121.6,-270.93334 -270.93334,-270.93334zm0,40.53333c125.86667,0 228.26667,102.4 228.26667,228.26667c0,8.53333 0,19.2 -2.13333,27.73333l-2.13333,23.46667l23.46667,0c78.93334,0 140.8,64 140.8,140.8c0,78.93334 -64,140.8 -140.8,140.8l-642.13335,0c-87.46667,0 -157.86667,-70.4 -157.86667,-157.86667c0,-72.53334 49.06667,-134.4 115.2,-151.46667l14.93333,-2.13333l0,-17.06667c0,-2.13333 0,-4.26667 0,-4.26667c0,-57.6 44.8,-102.4 102.4,-102.4c27.73333,0 53.33333,10.66667 72.53334,29.86667l23.46667,23.46667l10.66667,-29.86667c32,-87.46667 115.2,-149.33334 213.33334,-149.33334z" class="st0"/>
  </g>
 </g>
</svg>