<svg width="1025" height="1024" xmlns="http://www.w3.org/2000/svg" version="1.1" enable-background="new 0 0 1025 1024" xml:space="preserve">
 <g>
  <title>Layer 1</title>
  <path stroke="null" id="svg_1" d="m512.49998,1.31866c-279.6872,0 -506.06248,226.33806 -506.06248,506.06311c0,97.89588 27.84611,192.43519 80.64927,274.17913l-70.2666,210.80802c-5.88179,17.64515 10.66596,34.77714 28.58746,29.26066l225.62511,-69.42599c73.75841,40.09592 157.0187,61.24066 241.46725,61.24066c279.6872,0 506.06248,-226.33953 506.06248,-506.06248c0,-279.68299 -226.33953,-506.06311 -506.06248,-506.06311zm0,46.00568c253.67585,0 460.0568,206.38159 460.0568,460.05743c0,253.67164 -206.38096,460.0568 -460.0568,460.0568c-79.83852,0 -158.49299,-20.77879 -227.4626,-60.09025c-5.50596,-3.13995 -12.07399,-3.87604 -18.15621,-2.00427l-192.27977,59.16909l59.67257,-179.03202c2.26569,-6.79307 1.23537,-14.25703 -2.78558,-20.18572c-51.7127,-76.24009 -79.04522,-165.42696 -79.04522,-257.91363c0,-253.67585 206.38096,-460.05743 460.0568,-460.05743zm-184.02272,391.04786c-38.05169,0 -69.00747,30.95788 -69.00747,69.00957c0,38.05169 30.95578,69.00747 69.00747,69.00747c38.05169,0 69.00747,-30.95578 69.00747,-69.00747c0,-38.05169 -30.95578,-69.00957 -69.00747,-69.00957zm184.02272,0c-38.05169,0 -69.00747,30.95788 -69.00747,69.00957c0,38.05169 30.95578,69.00747 69.00747,69.00747c38.05169,0 69.00747,-30.95578 69.00747,-69.00747c0,-38.05169 -30.95578,-69.00957 -69.00747,-69.00957zm184.02272,0c-38.05169,0 -69.00747,30.95788 -69.00747,69.00957c0,38.05169 30.95578,69.00747 69.00747,69.00747c38.05169,0 69.00747,-30.95578 69.00747,-69.00747c0,-38.05169 -30.95578,-69.00957 -69.00747,-69.00957zm-368.04544,46.00568c12.6839,0 23.00389,10.31999 23.00389,23.00389c0,12.6839 -10.31999,23.00179 -23.00389,23.00179c-12.6839,0 -23.00389,-10.31789 -23.00389,-23.00179c0,-12.6839 10.31999,-23.00389 23.00389,-23.00389zm184.02272,0c12.6839,0 23.00389,10.31999 23.00389,23.00389c0,12.6839 -10.31999,23.00179 -23.00389,23.00179c-12.6839,0 -23.00389,-10.31789 -23.00389,-23.00179c0,-12.6839 10.31999,-23.00389 23.00389,-23.00389zm184.02272,0c12.6839,0 23.00389,10.31999 23.00389,23.00389c0,12.6839 -10.31999,23.00179 -23.00389,23.00179c-12.6839,0 -23.00389,-10.31789 -23.00389,-23.00179c0,-12.6839 10.31999,-23.00389 23.00389,-23.00389z"/>
 </g>

</svg>