<svg width="1025" height="1024" xmlns="http://www.w3.org/2000/svg" version="1.1" xml:space="preserve">
 <title>Layer 1</title>

 <g>
  <title>Layer 1</title>
  <g stroke="null" id="svg_5">
   <path stroke="null" id="svg_1" fill="#000000" d="m360.01,613.99937l-306.51,0c-28.05,0 -51,22.95 -51,51c0,28.05 22.95,51 51,51l306.51,0l0,91.29c0,22.95 27.54,34.17 43.35,17.85l141.78,-142.29c9.69,-10.2 9.69,-26.01 0,-36.21l-141.78,-142.29c-15.81,-16.32 -43.35,-4.59 -43.35,17.85l0,91.8zm304.98,-112.71l0,-91.29l306.51,0c28.05,0 51,-22.95 51,-50.99873c0,-28.05 -22.95,-51 -51,-51l-306.51,0l0,-91.29c0,-22.95 -27.54,-34.17 -43.35,-17.85l-141.78,142.29c-9.69,10.2 -9.69,26.01 0,36.20873l141.78,142.29c15.81,15.81 43.35,4.59 43.35,-18.36z" clip-rule="evenodd" fill-rule="evenodd"/>
  </g>
 </g>
</svg>