<svg width="1025" height="1024" xmlns="http://www.w3.org/2000/svg" version="1.1" xml:space="preserve">
 <title>Layer 1</title>

 <g>
  <title>Layer 1</title>
  <g stroke="null" id="svg_5">
   <path stroke="null" id="svg_1" d="m654.5278,1023.30005c-14.20278,0 -23.6713,-4.73426 -33.13982,-18.93704c-4.73426,-9.46852 -4.73426,-23.6713 0,-37.87408l52.07686,-85.21667c9.46852,-18.93704 33.13982,-23.6713 47.3426,-14.20278c18.93704,9.46852 23.6713,33.13982 14.20278,47.3426l-14.20278,23.6713c132.55927,-28.40556 227.24446,-146.76205 227.24446,-288.78983c0,-18.93704 14.20278,-37.87408 37.87408,-37.87408s37.87408,14.20278 37.87408,37.87408c0,208.30742 -165.69909,374.00651 -369.27225,374.00651z" fill="#000000"/>
   <path stroke="null" id="svg_2" d="m39.07406,407.84631c-18.93704,0 -33.13982,-18.93704 -33.13982,-37.87408c0,-203.57316 165.69909,-369.27225 369.27225,-369.27225c14.20278,0 23.6713,4.73426 28.40556,18.93704s4.73426,23.6713 0,37.87408l-52.07686,80.48241c-9.46852,18.93704 -33.13982,23.6713 -47.3426,14.20278s-23.6713,-33.13982 -14.20278,-47.3426l14.20278,-23.6713c-132.55927,33.13982 -231.97872,146.76205 -231.97872,288.78983c4.73426,18.93704 -14.20278,37.87408 -33.13982,37.87408z" fill="#000000"/>
   <path stroke="null" id="svg_3" d="m782.35281,298.95834c-4.73426,0 -14.20278,0 -18.93704,-4.73426l-189.37038,-108.88797c-18.93704,-9.46852 -23.6713,-33.13982 -14.20278,-47.3426s33.13982,-23.6713 47.3426,-14.20278l170.43334,99.41945l170.43334,-99.41945c18.93704,-9.46852 37.87408,-4.73426 47.3426,14.20278c9.46852,18.93704 4.73426,37.87408 -14.20278,47.3426l-189.37038,108.88797c0,4.73426 -4.73426,4.73426 -9.46852,4.73426z" fill="#000000"/>
   <path stroke="null" id="svg_4" d="m782.35281,493.06298c-18.93704,0 -37.87408,-14.20278 -37.87408,-37.87408l0,-194.10464c0,-18.93704 14.20278,-37.87408 37.87408,-37.87408c18.93704,0 37.87408,14.20278 37.87408,37.87408l0,194.10464c-4.73426,18.93704 -18.93704,37.87408 -37.87408,37.87408z" fill="#000000"/>
   <path stroke="null" id="svg_6" d="m782.35281,497.79724c-23.6713,0 -42.60834,-4.73426 -61.54537,-14.20278l-113.62223,-61.54537c-37.87408,-18.93704 -66.27963,-66.27963 -66.27963,-108.88797l0,-123.09075c0,-42.60834 28.40556,-89.95093 66.27963,-108.88797l113.62223,-61.54537c33.13982,-18.93704 89.95093,-18.93704 123.09075,0l113.62223,61.54537c37.87408,18.93704 66.27963,66.27963 66.27963,108.88797l0,118.35649c0,42.60834 -28.40556,89.95093 -66.27963,108.88797l-113.62223,66.27963c-18.93704,9.46852 -42.60834,14.20278 -61.54537,14.20278zm-28.40556,-416.61484l-113.62223,61.54537c-14.20278,9.46852 -28.40556,33.13982 -28.40556,47.3426l0,118.35649c0,14.20278 14.20278,42.60834 28.40556,47.3426l113.62223,61.54537c14.20278,9.46852 42.60834,9.46852 52.07686,0l113.62223,-61.54537c14.20278,-9.46852 28.40556,-33.13982 28.40556,-47.3426l0,-118.35649c0,-14.20278 -14.20278,-42.60834 -28.40556,-47.3426l-113.62223,-61.54537c-9.46852,-9.46852 -37.87408,-9.46852 -52.07686,0z" fill="#000000"/>
   <path stroke="null" id="svg_7" d="m242.64722,819.72689c-4.73426,0 -14.20278,0 -18.93704,-4.73426l-189.37038,-108.88797c-18.93704,-9.46852 -23.6713,-33.13982 -14.20278,-47.3426c9.46852,-18.93704 33.13982,-23.6713 47.3426,-14.20278l170.43334,99.41945l170.43334,-99.41945c18.93704,-9.46852 37.87408,-4.73426 47.3426,14.20278c9.46852,18.93704 4.73426,37.87408 -14.20278,47.3426l-189.37038,108.88797c4.73426,4.73426 0,4.73426 -9.46852,4.73426z" fill="#000000"/>
   <path stroke="null" id="svg_8" d="m242.64722,1013.83153c-18.93704,0 -37.87408,-14.20278 -37.87408,-37.87408l0,-194.10464c0,-18.93704 14.20278,-37.87408 37.87408,-37.87408c18.93704,0 37.87408,14.20278 37.87408,37.87408l0,194.10464c0,18.93704 -18.93704,37.87408 -37.87408,37.87408z" fill="#000000"/>
   <path stroke="null" id="svg_9" d="m242.64722,1018.56579c-23.6713,0 -42.60834,-4.73426 -61.54537,-14.20278l-113.62223,-61.54537c-37.87408,-18.93704 -66.27963,-66.27963 -66.27963,-108.88797l0,-118.35649c0,-42.60834 28.40556,-89.95093 66.27963,-108.88797l113.62223,-66.27963c33.13982,-18.93704 89.95093,-18.93704 123.09075,0l113.62223,61.54537c37.87408,18.93704 66.27963,66.27963 66.27963,108.88797l0,118.35649c0,42.60834 -28.40556,89.95093 -66.27963,108.88797l-113.62223,61.54537c-14.20278,14.20278 -37.87408,18.93704 -61.54537,18.93704zm-23.6713,-416.61484l-113.62223,61.54537c-14.20278,9.46852 -28.40556,33.13982 -28.40556,47.3426l0,118.35649c0,18.93704 14.20278,42.60834 28.40556,47.3426l113.62223,61.54537c14.20278,9.46852 37.87408,9.46852 52.07686,0l113.62223,-61.54537c14.20278,-9.46852 28.40556,-33.13982 28.40556,-47.3426l0,-118.35649c0,-18.93704 -14.20278,-42.60834 -28.40556,-47.3426l-113.62223,-61.54537c-14.20278,-9.46852 -42.60834,-9.46852 -52.07686,0z" fill="#000000"/>
  </g>
 </g>
</svg>