<svg width="1025" height="1024" xmlns="http://www.w3.org/2000/svg" version="1.1" xml:space="preserve">
 <g>
  <title>Layer 1</title>
  <g stroke="null" id="svg_3">
   <path stroke="null" id="svg_1" fill="#121216" d="m512.91372,2.91198c-8.06055,0 -16.13436,-0.00981 -24.19491,0.41443c-280.84653,13.15142 -497.61885,251.11053 -484.89167,531.95706c12.72718,272.78598 238.01876,485.80458 508.25931,485.80458c8.06055,0 15.72072,-0.48788 23.78127,-0.91211c280.84653,-12.72718 498.03328,-251.11 485.3061,-531.95653c-12.72718,-272.78598 -238.01956,-485.30742 -508.2601,-485.30742zm56.01287,341.46373l150.63948,0c106.90835,0 167.95641,64.07607 167.95641,176.07529c0,117.93857 -59.77534,182.87108 -167.95641,182.87108l-150.63948,0l0,-358.94637zm-352.9805,0.41363l157.01898,0c77.21158,0 129.34266,50.06026 129.34266,127.27184c0,75.93887 -55.13787,126.02829 -134.8949,126.02829l-60.2367,0l0,105.2326l-91.23005,0l0,-358.53274zm91.23005,70.01542l0,114.51284l41.1804,0c38.60579,0 61.48025,-19.92335 61.48025,-57.25642c0,-37.75731 -22.46083,-57.25642 -61.06662,-57.25642l-41.59403,0zm352.9805,2.98293l0,212.11974l43.25121,0c58.96929,0 91.2274,-36.95126 91.2274,-107.79925c0,-67.02984 -33.95507,-104.32049 -91.2274,-104.32049l-43.25121,0z"/>
  </g>
 </g>

</svg>