<svg width="1025" height="1024" xmlns="http://www.w3.org/2000/svg" version="1.1" xml:space="preserve">
 <title>Layer 1</title>

 <g>
  <title>Layer 1</title>
  <g stroke="null" id="svg_5">
   <path stroke="null" id="svg_1" fill="#000000" d="m922.23414,102.26654l-819.46744,0c-56.85055,0 -101.92134,45.58278 -101.92134,102.43333l-0.51198,614.60106c0,56.85055 45.58278,102.4325 102.43333,102.4325l819.46744,0c56.85055,0 102.4325,-45.58196 102.4325,-102.4325l0,-614.60106c0,-56.85055 -45.58196,-102.43333 -102.4325,-102.43333zm-51.21762,717.03439l-717.03302,0c-28.16928,0 -51.2168,-23.04752 -51.2168,-51.21762l0,-256.08263l819.46744,0l0,256.08263c0,28.1701 -23.04752,51.21762 -51.21762,51.21762zm51.21762,-512.16746l-819.46744,0l0,-102.4336l819.46744,0l0,102.4336z" clip-rule="evenodd" fill-rule="evenodd"/>
  </g>
 </g>
</svg>