<svg width="1025" height="1024" xmlns="http://www.w3.org/2000/svg" version="1.1" enable-background="new 0 0 1025 1024" xml:space="preserve">
 <g>
  <title>Layer 1</title>
  <path stroke="null" id="svg_1" d="m57.85991,133.11963c-31.43991,0 -57.35991,25.92 -57.35991,57.36009l0,536.56064c0,33.67863 27.76009,61.44 61.44,61.44l83.84,0c9.76,57.92 60.32091,102.4 120.96,102.4c60.64091,0 111.20092,-44.48 120.96,-102.4l311.04,0c9.76091,57.92 60.31909,102.4 120.96,102.4c60.63909,0 111.20092,-44.48 120.96,-102.4l22.4,0c17.04046,0 31.76046,-7.92137 42.64046,-18.80137c10.88,-10.88 18.79954,-25.6 18.79954,-42.63863l0,-196.56046c0,-23.04 -8.55954,-44.00091 -16.40046,-60.07954c-7.91954,-16 -15.91954,-27.52 -15.91954,-27.52l-0.23954,-0.24137l-84.32092,-113.11909l-0.23954,-0.23954c-18.15954,-22.72 -47.27954,-52.80073 -87.68,-52.80073l-163.84,0c-7.36,0 -14.16046,1.68009 -20.48,4.24009l0,-88.16c0,-32.8 -26.64046,-59.44009 -59.43954,-59.44009l-518.08055,0zm0,40.96l518.08055,0c8.23954,0 18.47954,10.24 18.47954,18.48009l0,554.96064l-206.72,0c-9.75909,-57.92 -60.31909,-102.4 -120.96,-102.4c-60.63909,0 -111.2,44.48 -120.96,102.4l-83.84,0c-11.36,0 -20.48,-9.12091 -20.48,-20.48l0,-536.56064c0,-9.52009 6.88,-16.40009 16.39991,-16.40009zm249.84009,40.96c-112.64,0 -204.8,92.16073 -204.8,204.80073c0,112.64 92.16,204.8 204.8,204.8c112.64,0 204.8,-92.16 204.8,-204.8c0,-112.64 -92.16,-204.80073 -204.8,-204.80073zm0,40.96c90.07909,0 163.84,73.75982 163.84,163.84073c0,90.07909 -73.76091,163.84 -163.84,163.84c-90.07909,0 -163.84,-73.76091 -163.84,-163.84c0,-90.08092 73.76091,-163.84073 163.84,-163.84073zm-20.48,40.96l0,112.64073l-73.68046,55.27954l24.48091,32.79909l90.15954,-67.59863l0,-133.12073l-40.96,0zm368.64,20.48073l81.92,0l0,184.32c0,17.03863 7.91954,31.75863 18.79954,42.63863c10.88,10.88 25.6,18.80137 42.64046,18.80137l184.32,0l0,163.84c0,3.43954 -2.32046,9.19954 -6.80046,13.67954c-4.48,4.48 -10.24,6.80046 -13.67954,6.80046l-22.4,0c-9.75909,-57.92 -60.32091,-102.4 -120.96,-102.4c-60.64091,0 -111.19909,44.48 -120.96,102.4l-63.36,0l0,-409.6c0,-3.44137 2.32046,-9.20137 6.80046,-13.68137c4.48,-4.48 10.24,-6.79863 13.67954,-6.79863zm122.88,0l40.96,0c16.96,0 41.04046,19.11954 55.68,37.35954l83.2,111.59954c0,0 6.24091,8.96 12.71954,22.16046c5.20046,10.56 8.16091,22.87909 9.83954,33.68046l-181.91909,0c-3.43954,0 -9.19954,-2.32046 -13.67954,-6.80046c-4.48,-4.48 -6.80046,-10.24 -6.80046,-13.67954l0,-184.32zm-512,368.64c45.52046,0 81.92,36.39954 81.92,81.92c0,45.51863 -36.39954,81.92 -81.92,81.92c-45.52046,0 -81.92,-36.40137 -81.92,-81.92c0,-45.52046 36.39954,-81.92 81.92,-81.92zm552.96,0c45.52046,0 81.92,36.39954 81.92,81.92c0,45.51863 -36.39954,81.92 -81.92,81.92c-45.52046,0 -81.92,-36.40137 -81.92,-81.92c0,-45.52046 36.39954,-81.92 81.92,-81.92z"/>
 </g>

</svg>