<svg width="1025" height="1024" xmlns="http://www.w3.org/2000/svg" xml:space="preserve" enable-background="new 0 0 1025 1024" version="1.1">

 <g>
  <title>Layer 1</title>
  <path stroke="null" id="svg_1" d="m266.97998,184.63934c-33.64698,0 -61.38,27.73302 -61.38,61.38l0,20.46l-61.38,0c-33.64698,0 -61.38,27.73302 -61.38,61.38l0,102.3l-40.92,0c-22.37813,0 -40.92,18.54315 -40.92,40.92128l0,81.84c0,22.37813 18.54188,40.92 40.92,40.92l40.92,0l0,102.3c0,33.64647 27.73302,61.38 61.38,61.38l61.38,0l0,20.46c0,33.64647 27.73302,61.38 61.38,61.38l61.38,0c33.64647,0 61.38,-27.73353 61.38,-61.38l0,-184.14001l245.52001,0l0,184.14001c0,33.64647 27.73353,61.38 61.38,61.38l61.38,0c33.64647,0 61.38,-27.73353 61.38,-61.38l0,-20.46l61.38,0c33.64647,0 61.38,-27.73353 61.38,-61.38l0,-102.3l40.92,0c22.37813,0 40.92,-18.54188 40.92,-40.92l0,-81.84c0,-22.37813 -18.54188,-40.92128 -40.92,-40.92128l-40.92,0l0,-102.3c0,-33.64698 -27.73353,-61.38 -61.38,-61.38l-61.38,0l0,-20.46c0,-33.64698 -27.73353,-61.38 -61.38,-61.38l-61.38,0c-33.64647,0 -61.38,27.73302 -61.38,61.38l0,184.14001l-245.52001,0l0,-184.14001c0,-33.64698 -27.73353,-61.38 -61.38,-61.38l-61.38,0zm0,40.92l61.38,0c11.58803,0 20.46,8.87146 20.46,20.46l0,531.9613c0,11.58803 -8.87197,20.46 -20.46,20.46l-61.38,0c-11.58854,0 -20.46,-8.87197 -20.46,-20.46l0,-37.48528c0.39974,-2.23781 0.39974,-4.47563 0,-6.6316l0,-443.48765c0.39974,-2.23781 0.39974,-4.47563 0,-6.63364l0,-37.72313c0,-11.58854 8.87146,-20.46 20.46,-20.46zm429.66002,0l61.38,0c11.58803,0 20.46,8.87146 20.46,20.46l0,37.48349c-0.39897,2.23781 -0.39897,4.47563 0,6.63339l0,443.48714c-0.39897,2.23781 -0.39897,4.47563 0,6.63416l0,37.72313c0,11.58803 -8.87197,20.46 -20.46,20.46l-61.38,0c-11.58803,0 -20.46,-8.87197 -20.46,-20.46l0,-531.9613c0,-11.58854 8.87197,-20.46 20.46,-20.46zm-552.42002,81.84l61.38,0l0,409.2013l-61.38,0c-11.58854,0 -20.46,-8.87197 -20.46,-20.46l0,-119.32528c0.39948,-2.23781 0.39948,-4.47563 0,-6.6316l0,-116.12841c0.39948,-2.23781 0.39948,-4.47563 0,-6.6316l0,-119.56441c0,-11.58854 8.87146,-20.46 20.46,-20.46zm675.18003,0l61.38,0c11.58803,0 20.46,8.87146 20.46,20.46l0,119.324c-0.39897,2.23781 -0.39897,4.47563 0,6.63416l0,116.12585c-0.39897,2.23781 -0.39897,4.47563 0,6.63416l0,119.56313c0,11.58803 -8.87197,20.46 -20.46,20.46l-61.38,0l0,-409.2013zm-777.48003,163.68129l40.92,0l0,81.84l-40.92,0l0,-81.84zm347.82001,0l245.52001,0l0,81.84l-245.52001,0l0,-81.84zm552.42002,0l40.92,0l0,81.84l-40.92,0l0,-81.84z"/>
 </g>
</svg>