<svg width="1025" height="1024" xmlns="http://www.w3.org/2000/svg" version="1.1" xml:space="preserve">
 <title>Layer 1</title>

 <g>
  <title>Layer 1</title>
  <g stroke="null" id="svg_5">
   <path stroke="null" id="svg_1" fill="#000000" d="m904.30299,111.3714c-135.0293,-92.06543 -301.76843,-49.10156 -391.78637,56.26253c-90.02177,-105.36409 -256.76234,-148.83912 -391.79164,-56.26253c-71.60629,49.10156 -116.61621,131.96045 -119.68506,219.42261c-7.16048,198.4504 168.78663,357.5222 437.31081,601.4956l5.11491,4.60327c38.87079,35.29175 98.71332,35.29175 137.58699,-0.51307l5.62462,-5.11634c268.52418,-243.46032 443.96157,-402.52733 437.31081,-600.98061c-3.06885,-86.95101 -48.07542,-169.8099 -119.68506,-218.91146l0,0zm-386.67482,744.7053l-5.11155,5.11634l-5.11634,-5.11634c-243.46224,-220.44397 -404.06559,-366.21375 -404.06559,-514.03008c0,-102.29477 76.72119,-179.01596 179.01644,-179.01596c78.76677,0 155.48797,50.63599 182.59836,120.70785l95.64256,0c26.59828,-70.07186 103.31947,-120.70785 182.08816,-120.70785c102.29333,0 179.01452,76.72119 179.01452,179.01596c0,147.81633 -160.60143,293.58612 -404.06655,514.03008z" clip-rule="evenodd" fill-rule="evenodd"/>
  </g>
 </g>
</svg>