<svg width="1025" height="1024" xmlns="http://www.w3.org/2000/svg" version="1.1" xml:space="preserve">
 <title>Layer 1</title>

 <g>
  <title>Layer 1</title>
  <g stroke="null" id="svg_5">
   <path stroke="null" id="svg_1" fill="#000000" d="m655.17438,1023.24995l-285.34881,0c-258.24067,0 -368.57554,-110.33487 -368.57554,-368.57554l0,-285.34881c0,-258.24067 110.33487,-368.57554 368.57554,-368.57554l285.34881,0c258.24067,0 368.57554,110.33487 368.57554,368.57554l0,285.34881c0,258.24067 -110.33487,368.57554 -368.57554,368.57554zm-285.34881,-951.16269c-219.243,0 -297.23834,77.99534 -297.23834,297.23834l0,285.34881c0,219.243 77.99534,297.23834 297.23834,297.23834l285.34881,0c219.243,0 297.23834,-77.99534 297.23834,-297.23834l0,-285.34881c0,-219.243 -77.99534,-297.23834 -297.23834,-297.23834l-285.34881,0z"/>
   <path stroke="null" id="svg_2" fill="#000000" d="m512.49998,1023.24995c-19.49884,0 -35.6686,-16.16977 -35.6686,-35.6686l0,-951.16269c0,-19.49884 16.16977,-35.6686 35.6686,-35.6686c19.49884,0 35.6686,16.16977 35.6686,35.6686l0,951.16269c0,19.49884 -16.16977,35.6686 -35.6686,35.6686z"/>
   <path stroke="null" id="svg_3" fill="#000000" d="m988.08132,547.66861l-951.16269,0c-19.49884,0 -35.6686,-16.16977 -35.6686,-35.6686c0,-19.49884 16.16977,-35.6686 35.6686,-35.6686l951.16269,0c19.49884,0 35.6686,16.16977 35.6686,35.6686c0,19.49884 -16.16977,35.6686 -35.6686,35.6686z"/>
  </g>
 </g>
</svg>