<svg width="1025" height="1024" xmlns="http://www.w3.org/2000/svg" xml:space="preserve" enable-background="new 0 0 1025 1024" version="1.1">

 <g>
  <title>Layer 1</title>
  <path stroke="null" id="svg_1" d="m50.09437,73.93003c-12.73898,0 -25.76292,4.4684 -34.98468,13.68966c-9.22125,9.22176 -13.68966,22.24569 -13.68966,34.98468l0,146.02299c0,12.73898 4.4684,25.76342 13.68966,34.98468c9.22176,9.22176 22.24569,13.68966 34.98468,13.68966l194.69732,0c12.73898,0 25.76342,-4.4679 34.98468,-13.68966c9.22176,-9.22125 13.68966,-22.24569 13.68966,-34.98468l0,-146.02299c0,-12.73898 -4.4679,-25.76292 -13.68966,-34.98468c-9.22125,-9.22125 -22.24569,-13.68966 -34.98468,-13.68966l-194.69732,0zm365.05748,0c-12.73898,0 -25.76292,4.4684 -34.98468,13.68966c-9.22125,9.22176 -13.68966,22.24569 -13.68966,34.98468l0,146.02299c0,12.73898 4.4684,25.76342 13.68966,34.98468c9.22176,9.22176 22.24569,13.68966 34.98468,13.68966l194.69631,0c12.74152,0 25.7619,-4.4679 34.98468,-13.68966c9.22277,-9.22125 13.68966,-22.24569 13.68966,-34.98468l0,-146.02299c0,-12.73898 -4.46688,-25.76292 -13.68966,-34.98468c-9.22277,-9.22125 -22.24316,-13.68966 -34.98468,-13.68966l-194.69631,0zm365.05646,0c-12.73645,0 -25.7619,4.4684 -34.98468,13.68966c-9.22277,9.22176 -13.68966,22.24569 -13.68966,34.98468l0,146.02299c0,12.73898 4.46688,25.76342 13.68966,34.98468c9.22277,9.22176 22.24823,13.68966 34.98468,13.68966l194.69732,0c12.74152,0 25.7619,-4.4679 34.98468,-13.68966c9.22277,-9.22125 13.68966,-22.24569 13.68966,-34.98468l0,-146.02299c0,-12.73898 -4.46688,-25.76292 -13.68966,-34.98468c-9.22277,-9.22125 -22.24316,-13.68966 -34.98468,-13.68966l-194.69732,0zm-730.11394,48.67433l194.69732,0l0,146.02299l-194.69732,0l0,-146.02299zm365.05748,0l194.69631,0l0,146.02299l-194.69631,0l0,-146.02299zm365.05646,0l194.69732,0l0,146.02299l-97.34866,0l-97.34866,0l0,-146.02299zm-730.11394,267.70882c-12.73898,0 -25.76292,4.4684 -34.98468,13.68966c-9.22125,9.22176 -13.68966,22.24569 -13.68966,34.98468l0,146.02502c0,12.73645 4.4684,25.7619 13.68966,34.98468c9.22176,9.2177 22.24569,13.68966 34.98468,13.68966l194.69732,0c12.73898,0 25.76342,-4.47195 34.98468,-13.68966c9.22176,-9.22277 13.68966,-22.24823 13.68966,-34.98468l0,-146.02502c0,-12.73898 -4.4679,-25.76292 -13.68966,-34.98468c-9.22125,-9.22125 -22.24569,-13.68966 -34.98468,-13.68966l-194.69732,0zm365.05748,0c-12.73898,0 -25.76292,4.4684 -34.98468,13.68966c-9.22125,9.22176 -13.68966,22.24569 -13.68966,34.98468l0,146.02502c0,12.73645 4.4684,25.7619 13.68966,34.98468c9.22176,9.2177 22.24569,13.68966 34.98468,13.68966l194.69631,0c12.74152,0 25.7619,-4.47195 34.98468,-13.68966c9.22277,-9.22277 13.68966,-22.24823 13.68966,-34.98468l0,-146.02502c0,-12.73898 -4.46688,-25.76292 -13.68966,-34.98468c-9.22277,-9.22125 -22.24316,-13.68966 -34.98468,-13.68966l-194.69631,0zm365.05646,0c-12.73645,0 -25.7619,4.4684 -34.98468,13.68966c-9.22277,9.22176 -13.68966,22.24569 -13.68966,34.98468l0,146.02502c0,12.73645 4.46688,25.7619 13.68966,34.98468c9.22277,9.2177 22.24823,13.68966 34.98468,13.68966l194.69732,0c12.74152,0 25.7619,-4.47195 34.98468,-13.68966c9.22277,-9.22277 13.68966,-22.24823 13.68966,-34.98468l0,-146.02502c0,-12.73898 -4.46688,-25.76292 -13.68966,-34.98468c-9.22277,-9.22125 -22.24316,-13.68966 -34.98468,-13.68966l-194.69732,0zm-730.11394,48.67433l194.69732,0l0,146.02502l-194.69732,0l0,-146.02502zm365.05748,0l194.69631,0l0,146.02502l-194.69631,0l0,-146.02502zm365.05646,0l194.69732,0l0,146.02502l-194.69732,0l0,-146.02502zm-730.11394,267.71085c-12.73898,0 -25.76292,4.46688 -34.98468,13.68966c-9.22125,9.2177 -13.68966,22.24316 -13.68966,34.98468l0,146.02299c0,12.73645 4.4684,25.7619 13.68966,34.98468c9.22176,9.2177 22.24569,13.68966 34.98468,13.68966l194.69732,0c12.73898,0 25.76342,-4.47195 34.98468,-13.68966c9.22176,-9.22277 13.68966,-22.24823 13.68966,-34.98468l0,-146.02299c0,-12.74152 -4.4679,-25.76697 -13.68966,-34.98468c-9.22125,-9.22277 -22.24569,-13.68966 -34.98468,-13.68966l-194.69732,0zm365.05748,0c-12.73898,0 -25.76292,4.46688 -34.98468,13.68966c-9.22125,9.2177 -13.68966,22.24316 -13.68966,34.98468l0,146.02299c0,12.73645 4.4684,25.7619 13.68966,34.98468c9.22176,9.2177 22.24569,13.68966 34.98468,13.68966l194.69631,0c12.74152,0 25.7619,-4.47195 34.98468,-13.68966c9.22277,-9.22277 13.68966,-22.24823 13.68966,-34.98468l0,-146.02299c0,-12.74152 -4.46688,-25.76697 -13.68966,-34.98468c-9.22277,-9.22277 -22.24316,-13.68966 -34.98468,-13.68966l-194.69631,0zm365.05646,0c-12.73645,0 -25.7619,4.46688 -34.98468,13.68966c-9.22277,9.2177 -13.68966,22.24316 -13.68966,34.98468l0,146.02299c0,12.73645 4.46688,25.7619 13.68966,34.98468c9.22277,9.2177 22.24823,13.68966 34.98468,13.68966l194.69732,0c12.74152,0 25.7619,-4.47195 34.98468,-13.68966c9.22277,-9.22277 13.68966,-22.24823 13.68966,-34.98468l0,-146.02299c0,-12.74152 -4.46688,-25.76697 -13.68966,-34.98468c-9.22277,-9.22277 -22.24316,-13.68966 -34.98468,-13.68966l-194.69732,0zm-730.11394,48.67433l194.69732,0l0,146.02299l-194.69732,0l0,-146.02299zm365.05748,0l194.69631,0l0,146.02299l-194.69631,0l0,-146.02299zm365.05646,0l194.69732,0l0,146.02299l-194.69732,0l0,-146.02299z"/>
 </g>
</svg>