<svg width="1025" height="1024" xmlns="http://www.w3.org/2000/svg" xml:space="preserve" enable-background="new 0 0 1025 1024" version="1.1">

 <g>
  <title>Layer 1</title>
  <path stroke="null" id="svg_1" d="m290.1177,62.0993c-159.42457,0 -289.1177,130.27623 -289.1177,290.39517c0,27.12996 2.60891,53.0272 7.23287,77.8861l41.87906,0c-5.23776,-24.81798 -8.19193,-50.71522 -8.19193,-77.8861c0,-137.55155 111.32004,-249.47517 248.1977,-249.47517c75.4974,0 139.51418,31.97028 190.25242,94.98708c3.93088,4.9104 15.54704,19.86078 15.54704,19.86078c7.75434,9.98448 24.57246,9.98448 32.3268,0c0,0 11.55478,-14.88976 15.54448,-19.82062c50.00424,-62.17794 116.08748,-95.02724 191.09384,-95.02724c136.8774,0 248.1977,111.92361 248.1977,249.47517c0,237.31554 -215.67397,382.36414 -373.15459,488.24464c-36.95076,24.83844 -70.37473,51.93771 -97.50469,74.52555c-21.66714,-17.8002 -65.36458,-53.04255 -97.38448,-74.56647c-107.2104,-72.10104 -241.35153,-162.38334 -316.0919,-287.55762l-47.4337,0c76.09074,143.44506 223.65593,242.83462 340.70759,321.5647c41.41104,27.8256 106.47895,82.28756 107.13367,82.83998c3.51912,2.9667 8.04589,4.35542 12.62893,4.35542c5.29914,0 10.67245,-1.8593 14.78491,-5.27612c27.27318,-22.83336 64.64848,-54.1346 105.97768,-81.91928c165.13266,-111.05688 391.25657,-263.10536 391.25657,-522.2108c0,-160.11893 -129.69338,-290.39517 -289.1177,-290.39517c-87.75294,0 -164.79762,38.07325 -222.82218,110.09244c-58.0041,-72.0192 -134.76234,-110.09244 -221.9424,-110.09244zm68.73281,143.22c-4.67511,0.05089 -9.1891,1.70048 -12.79517,4.67383c-3.60607,2.97361 -6.08429,7.09195 -7.02545,11.67013l-57.30334,278.40919l-36.52519,-97.34612c-1.40177,-3.72372 -3.85876,-6.9564 -7.07021,-9.30674c-3.21145,-2.34778 -7.03798,-3.71093 -11.01106,-3.91809c-3.97333,-0.20716 -7.92109,0.74679 -11.3599,2.74931c-3.43881,1.99996 -6.21984,4.96155 -8.00216,8.51647l-35.24567,70.53329l-130.59234,0c-2.71121,-0.03836 -5.40297,0.46035 -7.91879,1.47312c-2.51607,1.01021 -4.80605,2.51146 -6.73671,4.41424c-1.93091,1.90534 -3.46413,4.17384 -4.51041,6.67507c-1.04653,2.50123 -1.58539,5.18405 -1.58539,7.89756c0,2.71095 0.53887,5.39377 1.58539,7.895c1.04627,2.50123 2.57949,4.76974 4.51041,6.67507c1.93066,1.90278 4.22064,3.40403 6.73671,4.41424c2.51581,1.01277 5.20758,1.51404 7.91879,1.47568l143.22,0c3.79993,0 7.52468,-1.0588 10.75736,-3.05621c3.23242,-1.99741 5.84491,-4.85669 7.54488,-8.25305l19.94032,-39.88165l44.91712,119.76261c1.56775,4.13803 4.43726,7.6546 8.17633,10.0254c3.73906,2.36824 8.14564,3.46285 12.55732,3.11503c4.41169,-0.34526 8.5932,-2.11505 11.91539,-5.03827c3.32219,-2.92322 5.60604,-6.84643 6.51139,-11.17883l50.31114,-244.44073l62.97844,346.30084c0.79538,4.39634 3.00762,8.40906 6.29912,11.42947c3.2915,3.02041 7.48069,4.87971 11.92562,5.29658c4.44749,0.41687 8.91033,-0.6317 12.70566,-2.98972c3.79277,-2.35546 6.71344,-5.88992 8.31187,-10.05865l82.95763,-215.70978l42.48007,113.24866c1.34524,3.56515 3.65978,6.6853 6.6853,9.00496c3.02296,2.32221 6.63415,3.75185 10.42693,4.13036c3.79277,0.37851 7.61623,-0.31201 11.04073,-1.98973c3.42193,-1.67772 6.30679,-4.2787 8.32978,-7.50882l45.15778,-72.20845l96.5047,0c3.58561,6.20961 8.73898,11.36809 14.94603,14.95882c6.20705,3.59073 13.24785,5.48839 20.41908,5.50118c10.85147,0 21.2605,-4.31194 28.93555,-11.987c7.6725,-7.6725 11.98444,-18.08152 11.98444,-28.933c0,-10.85403 -4.31194,-21.26305 -11.98444,-28.93555c-7.67506,-7.67506 -18.08408,-11.98444 -28.93555,-11.98444c-7.17634,0.00511 -14.22737,1.89766 -20.4421,5.48839c-6.21472,3.59073 -11.37576,8.75432 -14.96393,14.9716l-107.81397,0c-3.47053,0.00256 -6.88223,0.88745 -9.91543,2.57284c-3.03575,1.68283 -5.59069,4.11246 -7.42698,7.05614l-29.21176,46.71529l-46.8355,-124.91853c-1.46033,-3.88228 -4.06387,-7.22749 -7.47046,-9.59574c-3.40403,-2.36824 -7.44744,-3.64444 -11.5957,-3.66234c-4.14571,-0.01534 -8.2019,1.2276 -11.62639,3.56515c-3.42449,2.34011 -6.05616,5.66486 -7.54974,9.53436l-76.12399,197.88656l-68.77373,-378.35143c-0.86699,-4.74672 -3.38357,-9.03437 -7.10473,-12.10541c-3.72372,-3.07105 -8.40906,-4.72805 -13.23506,-4.67818z"/>
 </g>
</svg>