<svg width="1025" height="1024" xmlns="http://www.w3.org/2000/svg" version="1.1" xml:space="preserve">
 <g>
  <title>Layer 1</title>
  <g stroke="null" id="svg_1">
   <path stroke="null" id="svg_2" d="m512.49996,0.80002c-283.38258,0 -511.19994,227.81736 -511.19994,511.19994c0,283.38258 227.81736,511.19994 511.19994,511.19994s511.19994,-227.81736 511.19994,-511.19994c0,-283.38258 -227.81736,-511.19994 -511.19994,-511.19994zm0,44.45217c255.59997,0 466.74777,211.1478 466.74777,466.74777c0,255.59997 -211.1478,466.74777 -466.74777,466.74777c-255.59997,0 -466.74777,-211.1478 -466.74777,-466.74777c0,-255.59997 211.1478,-466.74777 466.74777,-466.74777zm5.55652,188.92172c-83.34782,0 -138.91303,50.00869 -150.02607,127.79999c0,5.55652 0,5.55652 5.55652,11.11304l50.00869,11.11304c5.55652,0 5.55652,0 11.11304,-5.55652c11.11304,-50.00869 38.89565,-77.7913 83.34782,-77.7913c44.45217,0 77.7913,27.78261 77.7913,72.23477c0,27.78261 -11.11304,44.45217 -38.89565,83.34782l-55.56521,72.23477c-16.66956,22.22608 -22.22608,38.89565 -22.22608,72.23477l0,33.33913c0,5.55652 5.55652,5.55652 5.55652,5.55652l50.00869,0c5.55652,0 5.55652,-5.55652 5.55652,-5.55652l0,-27.78261c0,-27.78261 5.55652,-38.89565 22.22608,-61.12173l55.56521,-72.23477c27.78261,-38.89565 38.89565,-66.67825 38.89565,-105.5739c5.55652,-77.7913 -50.00869,-133.35651 -138.91303,-133.35651zm-33.33913,466.74777c-5.55652,0 -5.55652,5.55652 -5.55652,5.55652l0,66.67825c0,5.55652 5.55652,5.55652 5.55652,5.55652l61.12173,0c5.55652,0 5.55652,-5.55652 5.55652,-5.55652l0,-66.67825c0,-5.55652 -5.55652,-5.55652 -5.55652,-5.55652l-61.12173,0z"/>
  </g>
 </g>

</svg>