<svg width="1025" height="1024" xmlns="http://www.w3.org/2000/svg" version="1.1" xml:space="preserve">
 <title>Layer 1</title>

 <g>
  <title>Layer 1</title>
  <g stroke="null" id="svg_5">
   <path stroke="null" id="svg_1" fill="#000000" d="m583.40185,57.58758c-257.0444,-7.07034 -467.63021,199.4756 -467.63021,454.49937l-90.39519,0c-22.72509,0 -33.83529,27.2701 -17.67538,42.92674l140.89554,141.40212c10.10035,10.09846 25.7551,10.09846 35.85545,0l140.89554,-141.40212c15.65474,-15.65664 4.54502,-42.92674 -18.18007,-42.92674l-90.39566,0c0,-196.94838 160.59061,-356.02399 358.5531,-353.49914c187.86072,2.52485 345.92316,160.59061 348.45133,348.45228c2.52343,197.4526 -156.55218,358.54979 -353.50293,358.54979c-81.30373,0 -156.55076,-27.77668 -216.14067,-74.74186c-20.20023,-15.6519 -48.48019,-14.1369 -66.66025,4.04317c-21.21008,21.21008 -19.69508,57.06364 4.03986,75.24371c76.76014,60.60023 173.21724,96.45379 278.76106,96.45379c255.02755,0 461.57018,-210.5858 454.50173,-467.63021c-6.5666,-236.84512 -204.52578,-434.80619 -441.37326,-441.3709zm-25.7551,252.50081c-20.7035,0 -37.87514,17.17022 -37.87514,37.87514l0,185.84008c0,17.67349 9.59661,34.33855 24.74667,43.42859l157.5606,93.42851c18.18007,10.60504 41.41174,4.54502 52.01678,-13.13321c10.60504,-18.18007 4.54502,-41.407 -13.13321,-52.01204l-145.44056,-86.35533l0,-171.70176c0,-20.19976 -17.16691,-37.36998 -37.87514,-37.36998z" clip-rule="evenodd" fill-rule="evenodd"/>
  </g>
 </g>
</svg>