<svg width="1025" height="1024" xmlns="http://www.w3.org/2000/svg" xml:space="preserve" enable-background="new 0 0 1025 1024" version="1.1">

 <g>
  <title>Layer 1</title>
  <g stroke="null" id="svg_1">
   <path stroke="null" id="svg_2" d="m897.70779,184.76992c-40.37254,0 -78.62021,21.24871 -99.86891,53.12176c-21.24871,31.87306 -33.99793,67.99586 -48.87202,95.61917c-4.24974,8.49948 -25.49845,40.37254 -61.62124,65.87099c-36.1228,27.62332 -87.11969,50.99689 -155.11555,50.99689c-8.49948,0 -27.62332,-4.24974 -44.62228,-8.49948c-16.99896,-4.24974 -29.74819,-10.62435 -29.74819,-10.62435c-4.24974,-2.12487 -8.49948,-2.12487 -12.74922,0c-31.87306,8.49948 -59.49637,16.99896 -91.36943,25.49845c8.49948,-10.62435 16.99896,-23.37358 25.49845,-29.74819c6.37461,-4.24974 8.49948,-10.62435 8.49948,-16.99896c0,0 0,-2.12487 0,-2.12487c0,0 0,-2.12487 0,-2.12487c0,0 0,0 0,0c0,0 0,0 0,0c0,0 0,-2.12487 0,-2.12487c0,0 0,0 0,-2.12487c0,0 0,0 0,0c0,0 0,0 0,0c0,0 0,0 0,-2.12487c0,0 0,0 0,0c0,0 0,0 0,0c0,0 0,0 0,-2.12487l0,0c0,0 0,0 0,0c0,0 0,0 -2.12487,-2.12487c0,0 0,0 -2.12487,-2.12487c0,0 -2.12487,0 -2.12487,-2.12487c-6.37461,-4.24974 -14.87409,-4.24974 -21.24871,-2.12487l0,0c-33.99793,8.49948 -127.49223,31.87306 -182.73886,114.74301c-91.36943,-70.12073 -138.11658,-146.61606 -138.11658,-146.61606c-4.24974,-4.24974 -10.62435,-8.49948 -19.12383,-8.49948c-6.37461,0 -12.74922,4.24974 -16.99896,10.62435c-4.24974,6.37461 -4.24974,14.87409 0,19.12383c0,0 38.24767,65.87099 116.86788,133.86684c-12.74922,27.62332 -33.99793,93.4943 6.37461,172.11451c2.12487,6.37461 10.62435,10.62435 16.99896,12.74922c6.37461,0 14.87409,-2.12487 19.12383,-8.49948c4.24974,-6.37461 4.24974,-14.87409 0,-21.24871c-29.74819,-59.49637 -19.12383,-104.11865 -8.49948,-127.49223c4.24974,2.12487 8.49948,6.37461 12.74922,8.49948c4.24974,82.86995 40.37254,150.86581 95.61917,199.73783c57.3715,53.12176 131.74197,82.86995 208.23731,91.36943c8.49948,0 16.99896,-4.24974 19.12383,-10.62435c4.24974,-8.49948 2.12487,-16.99896 -2.12487,-23.37358c0,0 2.12487,2.12487 2.12487,0c0,-2.12487 -2.12487,-4.24974 -2.12487,-6.37461c-2.12487,-6.37461 -6.37461,-12.74922 -10.62435,-23.37358c0,0 0,0 0,0c10.62435,8.49948 19.12383,14.87409 29.74819,21.24871c31.87306,21.24871 59.49637,38.24767 59.49637,38.24767c4.24974,2.12487 8.49948,4.24974 12.74922,2.12487c78.62021,-8.49948 189.11347,-40.37254 280.48291,-121.11762c93.4943,-80.74508 165.7399,-210.36218 165.7399,-407.97514c-4.24974,-67.99586 -59.49637,-123.24249 -127.49223,-123.24249zm0,42.49741c44.62228,0 80.74508,36.1228 80.74508,80.74508c0,186.9886 -67.99586,303.85648 -150.86581,378.22695c-82.86995,72.2456 -182.73886,101.99378 -252.85959,110.49327c-6.37461,-4.24974 -23.37358,-14.87409 -50.99689,-31.87306c-31.87306,-21.24871 -65.87099,-46.74715 -80.74508,-61.62124c-6.37461,-6.37461 -16.99896,-8.49948 -25.49845,-2.12487c-8.49948,4.24974 -10.62435,14.87409 -8.49948,23.37358c8.49948,23.37358 16.99896,46.74715 25.49845,65.87099c-55.24663,-10.62435 -106.24353,-33.99793 -146.61606,-70.12073c-40.37254,-36.1228 -67.99586,-82.86995 -76.49534,-140.24145c74.37047,44.62228 167.86477,76.49534 280.48291,76.49534c110.49327,0 197.61296,-21.24871 263.48394,-65.87099c65.87099,-44.62228 112.61814,-108.3684 144.49119,-191.23835c2.12487,-6.37461 2.12487,-14.87409 -2.12487,-21.24871c-4.24974,-6.37461 -12.74922,-8.49948 -19.12383,-6.37461c-6.37461,2.12487 -12.74922,6.37461 -14.87409,12.74922c-29.74819,76.49534 -70.12073,133.86684 -127.49223,172.11451c-57.3715,38.24767 -135.99171,59.49637 -240.11037,59.49637c-116.86788,0 -208.23731,-38.24767 -280.48291,-82.86995c25.49845,-38.24767 59.49637,-61.62124 93.4943,-76.49534c-8.49948,14.87409 -14.87409,27.62332 -14.87409,27.62332c-4.24974,6.37461 -2.12487,14.87409 4.24974,21.24871c4.24974,6.37461 12.74922,8.49948 21.24871,6.37461c0,0 87.11969,-25.49845 135.99171,-38.24767c4.24974,2.12487 10.62435,4.24974 25.49845,8.49948c16.99896,6.37461 38.24767,10.62435 57.3715,10.62435c78.62021,0 138.11658,-27.62332 180.61399,-59.49637c42.49741,-31.87306 63.74612,-63.74612 72.2456,-78.62021c16.99896,-31.87306 29.74819,-65.87099 46.74715,-93.4943c8.49948,-21.24871 33.99793,-33.99793 59.49637,-33.99793z" class="st0"/>
  </g>
 </g>
</svg>