<svg width="1025" height="1024" xmlns="http://www.w3.org/2000/svg" xml:space="preserve" enable-background="new 0 0 1025 1024" version="1.1">

 <g>
  <title>Layer 1</title>
  <path stroke="null" id="svg_1" d="m82.42,93.09091c-45.04017,0 -81.92,35.92192 -81.92,79.79241c0,43.87002 36.87983,79.79194 81.92,79.79194c45.04017,0 81.92,-35.92192 81.92,-79.79194c0,-43.87049 -36.87983,-79.79241 -81.92,-79.79241zm0,39.89597c22.87988,0 40.96,17.61047 40.96,39.89644c0,22.2855 -18.08012,39.89597 -40.96,39.89597c-22.87988,0 -40.96,-17.61047 -40.96,-39.89597c0,-22.28596 18.08012,-39.89644 40.96,-39.89644zm163.84,19.94799l0,39.89644l778.24,0l0,-39.89644l-778.24,0zm-163.84,279.27273c-45.04017,0 -81.92,35.92239 -81.92,79.79241c0,43.87002 36.87983,79.79287 81.92,79.79287c45.04017,0 81.92,-35.92285 81.92,-79.79287c0,-43.87002 -36.87983,-79.79241 -81.92,-79.79241zm0,39.89644c22.87988,0 40.96,17.61047 40.96,39.89597c0,22.28596 -18.08012,39.89597 -40.96,39.89597c-22.87988,0 -40.96,-17.61001 -40.96,-39.89597c0,-22.2855 18.08012,-39.89597 40.96,-39.89597zm163.84,19.94799l0,39.89597l778.24,0l0,-39.89597l-778.24,0zm-163.84,279.27133c-45.04017,0 -81.92,35.92378 -81.92,79.79287c0,43.86909 36.87983,79.79287 81.92,79.79287c45.04017,0 81.92,-35.92378 81.92,-79.79287c0,-43.86909 -36.87983,-79.79287 -81.92,-79.79287zm0,39.89876c22.87988,0 40.96,17.60815 40.96,39.89411c0,22.28596 -18.08012,39.89876 -40.96,39.89876c-22.87988,0 -40.96,-17.6128 -40.96,-39.89876c0,-22.28596 18.08012,-39.89411 40.96,-39.89411zm163.84,19.94473l0,39.89876l778.24,0l0,-39.89876l-778.24,0z"/>
 </g>
</svg>