<svg width="1025" height="1024" xmlns="http://www.w3.org/2000/svg" version="1.1" xml:space="preserve">
 <title>Layer 1</title>

 <g>
  <title>Layer 1</title>
  <g stroke="null" id="svg_5">
   <path stroke="null" id="svg_1" fill="#000000" d="m512.50033,0.43945c-203.8389,0 -368.70032,164.47709 -368.70032,367.84015c0,219.12763 232.8075,521.28204 328.67007,636.36346c21.06855,25.22332 59.51866,25.22332 80.58721,0c95.3352,-115.08142 328.14269,-417.23582 328.14269,-636.36346c0,-203.36305 -164.86142,-367.84015 -368.69966,-367.84015zm0,499.21163c-72.68716,0 -131.67911,-58.85442 -131.67911,-131.37148c0,-72.51706 58.99195,-131.37148 131.67911,-131.37148c72.6865,0 131.67845,58.85442 131.67845,131.37148c0,72.51706 -58.99195,131.37148 -131.67845,131.37148z" clip-rule="evenodd" fill-rule="evenodd"/>
  </g>
 </g>
</svg>