<svg width="1025" height="1024" xmlns="http://www.w3.org/2000/svg" version="1.1" enable-background="new 0 0 1025 1024" xml:space="preserve">
 <g>
  <title>Layer 1</title>
  <g stroke="null" id="svg_3">
   <path stroke="null" id="svg_1" d="m512.36988,1022.57142c-71.24253,0 -142.48505,-28.49701 -194.72957,-80.74153c-137.73555,-132.98605 -294.46911,-351.46313 -237.47508,-607.93622c52.24452,-232.72558 256.47309,-332.46512 432.20465,-332.46512c0,0 0,0 0,0c175.73156,0 379.96014,104.48904 432.20465,337.21462c56.99402,256.47309 -94.99003,470.20067 -237.47508,607.93622c-52.24452,47.49502 -123.48704,75.99203 -194.72957,75.99203zm0,-949.90034c-137.73555,0 -318.21661,75.99203 -360.96213,280.2206c-52.24452,223.22658 85.49103,413.20665 213.72758,536.69369c80.74153,80.74153 208.97807,80.74153 294.46911,0c128.23655,-123.48704 265.97209,-313.46711 218.47708,-536.69369c-47.49502,-208.97807 -227.97608,-280.2206 -365.71163,-280.2206z" class="st0"/>
   <path stroke="null" id="svg_2" d="m450.62636,590.36677c-9.499,0 -18.99801,-4.7495 -23.74751,-9.499l-71.24253,-71.24253c-14.24851,-14.24851 -14.24851,-37.99601 0,-52.24452s37.99601,-14.24851 52.24452,0l47.49502,47.49502l166.23256,-166.23256c14.24851,-14.24851 37.99601,-14.24851 52.24452,0s14.24851,37.99601 0,52.24452l-189.98007,189.98007c-14.24851,9.499 -23.74751,9.499 -33.24651,9.499z" class="st0"/>
  </g>
 </g>

</svg>