<svg width="1025" height="1024" xmlns="http://www.w3.org/2000/svg" version="1.1" enable-background="new 0 0 1025 1024" xml:space="preserve">
 <g>
  <title>Layer 1</title>
  <path stroke="null" id="svg_1" d="m1024.5,19.99972l-60.00071,26.66638l-282.66667,121.33348l-325.33333,-122.66667l-16,-5.33333l-16,6.66652l-298.66581,128l-25.33348,10.66667l0,818.66752l60.00014,-26.66667l282.66723,-121.33262l325.33333,122.66382l16,5.33618l16,-6.66738l298.66667,-128l25.33262,-10.66667l0,-818.66723zm-640,126.66652l256,96l0,634.66809l-256,-96l0,-634.66809zm-85.33333,2.66667l0,633.33262l-213.33333,92.00071l0,-633.33319l213.33333,-92.00014zm640,0l0,633.33262l-213.33333,92.00071l0,-633.33319l213.33333,-92.00014z"/>
 </g>

</svg>