<svg width="1025" height="1024" xmlns="http://www.w3.org/2000/svg" xml:space="preserve" enable-background="new 0 0 1025 1024" version="1.1">

 <g>
  <title>Layer 1</title>
  <g stroke="null" id="svg_1">
   <path stroke="null" id="svg_2" d="m509.76191,1023.14438c-34.07629,0 -62.4732,-17.03815 -85.19073,-45.43506l-73.83197,-96.5495c0,0 -5.67938,-5.67938 -11.35876,-5.67938l-17.03815,0c-198.77838,0 -318.0454,-51.11444 -318.0454,-318.0454l0,-232.85467c-5.67938,-210.13714 107.90826,-323.72478 318.0454,-323.72478l380.51861,0c204.45776,0 318.0454,113.58764 318.0454,323.72478l0,238.53405c0,210.13714 -107.90826,318.0454 -318.0454,318.0454l-22.71753,0c-5.67938,0 -5.67938,0 -11.35876,5.67938l-73.83197,96.5495c-22.71753,22.71753 -51.11444,39.75568 -85.19073,39.75568zm-187.41961,-948.45682c-170.38147,0 -249.89282,79.51135 -249.89282,249.89282l0,238.53405c0,215.81652 73.83197,249.89282 249.89282,249.89282l22.71753,0c22.71753,0 51.11444,11.35876 68.15259,34.07629l73.83197,96.5495c17.03815,22.71753 39.75568,22.71753 56.79382,0l73.83197,-96.5495c17.03815,-22.71753 39.75568,-34.07629 68.15259,-34.07629l22.71753,0c170.38147,0 249.89282,-79.51135 249.89282,-249.89282l0,-238.53405c0,-170.38147 -79.51135,-249.89282 -249.89282,-249.89282l-386.19799,0z" class="st0"/>
   <path stroke="null" id="svg_3" d="m509.76191,511.99999c-28.39691,0 -45.43506,-22.71753 -45.43506,-45.43506s17.03815,-51.11444 45.43506,-51.11444c28.39691,0 45.43506,22.71753 45.43506,45.43506s-17.03815,51.11444 -45.43506,51.11444z" class="st0"/>
   <path stroke="null" id="svg_4" d="m697.18152,511.99999c-28.39691,0 -45.43506,-22.71753 -45.43506,-45.43506s22.71753,-45.43506 45.43506,-45.43506c28.39691,0 45.43506,22.71753 45.43506,45.43506s-17.03815,45.43506 -45.43506,45.43506z" class="st0"/>
   <path stroke="null" id="svg_5" d="m322.3423,511.99999c-28.39691,0 -45.43506,-22.71753 -45.43506,-45.43506s22.71753,-45.43506 45.43506,-45.43506s45.43506,22.71753 45.43506,45.43506s-22.71753,45.43506 -45.43506,45.43506z" class="st0"/>
  </g>
 </g>
</svg>