<svg width="1025" height="1024" xmlns="http://www.w3.org/2000/svg" xml:space="preserve" enable-background="new 0 0 1025 1024" version="1.1">

 <g>
  <title>Layer 1</title>
  <g stroke="null" id="svg_1">
   <path stroke="null" id="svg_2" d="m512.5,0.39874c-112.365,0 -204.3,91.935 -204.3,204.3l0,340.5c0,112.365 91.935,204.3 204.3,204.3s204.3,-91.935 204.3,-204.3l0,-340.5c0,-112.365 -91.935,-204.3 -204.3,-204.3zm0,68.1c74.91,0 136.2,61.29 136.2,136.2l0,340.5c0,74.91 -61.29,136.2 -136.2,136.2s-136.2,-61.29 -136.2,-136.2l0,-340.5c0,-76.6125 61.29,-136.2 136.2,-136.2zm-306.45,362.6325c-8.5125,0 -17.025,3.405 -23.835,10.215c-6.81,6.81 -10.215,15.3225 -10.215,23.835l0,80.0175c0,175.3575 134.4975,321.7725 306.45,338.7975l0,103.8525c0,5.1075 0,8.5125 1.7025,13.62c1.7025,3.405 3.405,8.5125 6.81,11.9175c3.405,3.405 6.81,5.1075 11.9175,6.81c3.405,1.7025 8.5125,3.405 13.62,3.405c5.1075,0 8.5125,-1.7025 13.62,-3.405c3.405,-1.7025 8.5125,-5.1075 11.9175,-6.81c3.405,-3.405 5.1075,-6.81 6.81,-11.9175c1.7025,-3.405 1.7025,-8.5125 1.7025,-13.62l0,-103.8525c171.9525,-17.025 306.45,-163.44 306.45,-338.7975l0,-80.0175c0,-5.1075 0,-8.5125 -1.7025,-13.62c-1.7025,-3.405 -3.405,-8.5125 -6.81,-11.9175c-3.405,-3.405 -6.81,-5.1075 -11.9175,-6.81c-5.1075,-1.7025 -8.5125,-1.7025 -13.62,-1.7025c-5.1075,0 -8.5125,1.7025 -13.62,3.405s-8.5125,5.1075 -11.9175,6.81c-3.405,3.405 -5.1075,6.81 -6.81,11.9175c-1.7025,3.405 -1.7025,6.81 -1.7025,11.9175l0,80.0175c0,149.82 -119.175,270.6975 -268.995,272.4c-1.7025,0 -3.405,0 -5.1075,0c-1.7025,0 -1.7025,0 -3.405,0c-148.1175,-3.405 -267.2925,-124.2825 -267.2925,-272.4l0,-80.0175c0,-5.1075 0,-8.5125 -1.7025,-13.62c-1.7025,-3.405 -5.1075,-8.5125 -6.81,-11.9175c-3.405,-3.405 -6.81,-5.1075 -11.9175,-6.81c-5.1075,-1.7025 -10.215,-1.7025 -13.62,-1.7025z"/>
  </g>
 </g>
</svg>