<svg width="1025" height="1024" xmlns="http://www.w3.org/2000/svg" version="1.1" xml:space="preserve">
 <title>Layer 1</title>

 <g>
  <title>Layer 1</title>
  <g stroke="null" id="svg_5">
   <path stroke="null" id="svg_1" fill="#000000" d="m529.55846,449.44626c-129.0861,-33.55026 -170.59971,-68.23988 -170.59971,-122.26211c0,-61.98558 57.43727,-105.20214 153.53974,-105.20214c80.75154,0 121.12579,30.70795 135.91313,79.61218c6.82399,22.74764 25.58996,39.80761 49.47392,39.80761l17.05997,0c37.53194,0 64.25821,-36.9653 51.17991,-72.22156c-23.88396,-67.10357 -79.61523,-122.83179 -168.32708,-144.44007l0,-39.23793c0,-47.20128 -38.09857,-85.29985 -85.29985,-85.29985c-47.19824,0 -85.29985,38.09857 -85.29985,85.29985l0,37.53194c-110.32013,23.88396 -199.03198,95.53584 -199.03198,205.28629c0,131.36178 108.61413,196.75935 267.27186,234.85792c142.16744,34.11994 170.59971,84.16354 170.59971,137.04945c0,39.23793 -27.86259,101.79319 -153.53974,101.79319c-93.82984,0 -142.16439,-33.55331 -160.93036,-81.32123c-8.52999,-22.17796 -27.86563,-38.10162 -51.17991,-38.10162l-15.92365,0c-38.10162,0 -64.82789,38.6713 -50.61023,73.92756c32.41394,79.04555 108.04445,125.6741 193.34431,143.87344l0,38.09857c0,47.20128 38.10162,85.29985 85.29985,85.29985c47.20128,0 85.29985,-38.09857 85.29985,-85.29985l0,-36.96225c110.88981,-21.0386 199.03502,-85.29985 199.03502,-201.87429c0,-161.50309 -138.18576,-216.66163 -267.27491,-250.21494z" clip-rule="evenodd" fill-rule="evenodd"/>
  </g>
 </g>
</svg>