<svg width="1025" height="1024" xmlns="http://www.w3.org/2000/svg" xml:space="preserve" enable-background="new 0 0 1025 1024" version="1.1">

 <g>
  <title>Layer 1</title>
  <path stroke="null" id="svg_1" d="m512.50028,1.10028c-281.9153,0 -510.90028,228.98498 -510.90028,510.89972c0,281.91391 228.98498,510.89972 510.90028,510.89972c281.91391,0 510.89972,-228.98581 510.89972,-510.89972c0,-281.91474 -228.98581,-510.89972 -510.89972,-510.89972zm0,44.42606c257.87941,0 466.47366,208.59425 466.47366,466.47366c0,257.87941 -208.59425,466.47366 -466.47366,466.47366c-257.87997,0 -466.47421,-208.59425 -466.47421,-466.47366c0,-257.87941 208.59425,-466.47366 466.47421,-466.47366zm244.34335,222.13031l-577.53937,266.55638l310.98299,0l0,310.98244l266.55638,-577.53882z"/>
 </g>
</svg>