<svg width="1025" height="1024" xmlns="http://www.w3.org/2000/svg" xml:space="preserve" enable-background="new 0 0 1025 1024" version="1.1">

 <g>
  <title>Layer 1</title>
  <path stroke="null" id="svg_1" d="m512.49986,0.92844c-44.95896,0 -81.77145,36.813 -81.77145,81.77145c0,10.54085 2.07751,20.76228 5.74955,30.02545c-114.99084,29.86574 -189.73506,129.76413 -189.73506,256.17462c0,160.1085 -39.28863,233.01796 -76.66073,274.06212c-18.68605,20.52208 -37.13241,32.97945 -53.02367,44.71876c-7.98549,5.82877 -15.25216,11.6601 -21.72054,19.16518c-6.46812,7.50764 -12.13795,18.20692 -12.13795,30.02545c0,28.10894 17.24866,51.9862 41.52456,67.71698c24.2759,15.73078 56.13814,25.873 94.54824,33.85849c49.82948,10.30065 111.31777,15.73078 178.87479,18.52634c-5.11072,13.57406 -8.30491,28.18815 -8.30491,43.44108c0,67.47678 55.1804,122.65717 122.65717,122.65717c67.47678,0 122.65717,-55.1804 122.65717,-122.65717c0,-15.33215 -3.11498,-29.94624 -8.30491,-43.44108c67.55855,-2.79556 129.04557,-8.2257 178.87504,-18.52634c38.40958,-7.98549 70.27234,-18.12771 94.54824,-33.85849c24.2759,-15.73078 41.52456,-39.60805 41.52456,-67.71698c0,-11.81853 -5.67034,-22.51781 -12.13795,-30.02545c-6.46761,-7.50509 -13.73505,-13.33641 -21.72054,-19.16518c-15.89177,-11.73931 -34.33634,-24.19668 -53.02367,-44.71876c-37.37211,-41.04416 -76.66073,-113.95362 -76.66073,-274.06212c0,-126.3305 -74.90265,-226.14916 -189.73531,-256.17462c3.6746,-9.26317 5.74955,-19.4846 5.74955,-30.02545c0,-44.95845 -36.81248,-81.77145 -81.77145,-81.77145zm0,40.88572c22.83979,0 40.88572,18.04721 40.88572,40.88572c0,22.83851 -18.04594,40.88572 -40.88572,40.88572c-22.83723,0 -40.88572,-18.04721 -40.88572,-40.88572c0,-22.83851 18.04849,-40.88572 40.88572,-40.88572zm47.91296,106.04735c109.00134,19.40488 176.95853,103.6517 176.95853,221.03845c0,166.9773 42.48282,252.74022 86.88216,301.53222c22.20095,24.35511 44.63955,39.60805 59.41207,50.46832c7.34665,5.43014 12.856,9.98123 15.33215,12.77679c2.47614,2.79556 1.91652,2.55536 1.91652,3.1942c0,12.77679 -5.90799,22.11918 -22.99822,33.21965c-17.08768,11.10047 -44.87719,21.40112 -80.49377,28.74777c-71.2306,14.77252 -172.64508,19.80402 -284.92239,19.80402c-112.27475,0 -213.69154,-5.0315 -284.92214,-19.80402c-35.6153,-7.34665 -63.40481,-17.6473 -80.49377,-28.74777c-17.08896,-11.10047 -22.99822,-20.44286 -22.99822,-33.21965c0,-0.63884 -0.55886,-0.39864 1.91652,-3.1942c2.47563,-2.79556 7.98549,-7.34665 15.33215,-12.77679c14.77329,-10.86027 37.2124,-26.1132 59.41207,-50.46832c44.39934,-48.792 86.88216,-134.55492 86.88216,-301.53222c0,-117.30677 68.03615,-200.91501 176.95827,-220.39961c13.57662,9.98199 29.94624,15.97099 47.91296,15.97099c18.12771,0 34.3389,-6.46812 47.91296,-16.60983zm-118.1853,710.38946c22.919,0.48041 46.23664,1.27768 70.27234,1.27768c24.0357,0 47.35333,-0.79727 70.27234,-1.27768c7.26744,12.29638 11.49911,26.83126 11.49911,42.1634c0,45.43682 -36.33463,81.77145 -81.77145,81.77145c-45.43682,0 -81.77145,-36.33463 -81.77145,-81.77145c0,-15.49058 4.07324,-29.86702 11.49911,-42.1634z"/>
 </g>
</svg>