<svg width="1025" height="1024" xmlns="http://www.w3.org/2000/svg" xml:space="preserve" enable-background="new 0 0 1025 1024" version="1.1">

 <g>
  <title>Layer 1</title>
  <g stroke="null" id="svg_1">
   <path stroke="null" id="svg_2" d="m699.2721,1022.66805l-378.27262,0c-274.24765,0 -274.24765,-141.85223 -274.24765,-274.24765l0,-47.28408c0,-104.02497 0,-226.96357 226.96357,-226.96357c56.74089,0 75.65452,14.18522 108.75338,37.82726c0,0 4.72841,4.72841 4.72841,4.72841l47.28408,52.01249c42.55567,42.55567 113.48179,42.55567 156.03746,0l47.28408,-52.01249c0,0 4.72841,-4.72841 4.72841,-4.72841c28.37045,-23.64204 52.01249,-37.82726 108.75338,-37.82726c226.96357,0 226.96357,118.21019 226.96357,226.96357l0,47.28408c-4.72841,179.6795 -99.29656,274.24765 -278.97606,274.24765zm-425.5567,-472.84078c-156.03746,0 -156.03746,47.28408 -156.03746,156.03746l0,47.28408c0,127.66701 0,203.32153 203.32153,203.32153l378.27262,0c141.85223,0 203.32153,-61.4693 203.32153,-203.32153l0,-47.28408c0,-104.02497 0,-156.03746 -156.03746,-156.03746c-33.09885,0 -42.55567,4.72841 -61.4693,18.91363l-47.28408,47.28408c-33.09885,33.09885 -80.38293,56.74089 -127.66701,56.74089s-94.56816,-18.91363 -127.66701,-56.74089l-47.28408,-47.28408c-18.91363,-18.91363 -28.37045,-18.91363 -61.4693,-18.91363z" class="st0"/>
   <path stroke="null" id="svg_3" d="m841.12434,549.82727c-18.91363,0 -37.82726,-14.18522 -37.82726,-37.82726l0,-283.70447c0,-104.02497 0,-156.03746 -156.03746,-156.03746l-278.97606,0c-156.03746,0 -156.03746,47.28408 -156.03746,156.03746l0,283.70447c0,18.91363 -14.18522,37.82726 -37.82726,37.82726s-28.37045,-18.91363 -28.37045,-37.82726l0,-283.70447c0,-104.02497 0,-226.96357 226.96357,-226.96357l283.70447,0c226.96357,0 226.96357,118.21019 226.96357,226.96357l0,283.70447c-4.72841,18.91363 -23.64204,37.82726 -42.55567,37.82726z" class="st0"/>
   <path stroke="null" id="svg_4" d="m599.97554,417.43185l-156.03746,0c-18.91363,0 -37.82726,-14.18522 -37.82726,-37.82726c0,-18.91363 14.18522,-37.82726 37.82726,-37.82726l156.03746,0c18.91363,0 37.82726,14.18522 37.82726,37.82726c-4.72841,18.91363 -18.91363,37.82726 -37.82726,37.82726z" class="st0"/>
   <path stroke="null" id="svg_5" d="m637.8028,275.57962l-236.42039,0c-18.91363,0 -33.09885,-18.91363 -33.09885,-37.82726s14.18522,-37.82726 37.82726,-37.82726l236.42039,0c18.91363,0 37.82726,14.18522 37.82726,37.82726s-23.64204,37.82726 -42.55567,37.82726z" class="st0"/>
  </g>
 </g>
</svg>