<svg width="1025" height="1024" xmlns="http://www.w3.org/2000/svg" xml:space="preserve" enable-background="new 0 0 1025 1024" version="1.1">

 <g>
  <title>Layer 1</title>
  <path stroke="null" id="svg_1" d="m512.50019,0.95661c-97.86755,0 -177.68861,79.82105 -177.68861,177.68861c0,97.86755 79.82105,177.68861 177.68861,177.68861c97.86755,0 177.68861,-79.82105 177.68861,-177.68861c0,-97.86755 -79.82105,-177.68861 -177.68861,-177.68861zm0,44.42215c73.83517,0 133.26646,59.43184 133.26646,133.26646c0,73.83434 -59.43129,133.26646 -133.26646,133.26646c-73.83517,0 -133.26646,-59.43212 -133.26646,-133.26646c0,-73.83461 59.43129,-133.26646 133.26646,-133.26646zm-111.40243,355.03017c-1.12721,0.08607 -2.16836,0.17214 -3.29834,0.34705l-40.77676,0c-41.299,0 -75.74338,14.40111 -100.99126,30.36532c-25.24761,15.96421 -41.03829,32.62252 -48.58673,42.60084c-41.81929,55.52769 -134.65465,207.79572 -134.65465,207.79572c-0.08662,0.08607 -0.17352,0.17214 -0.26015,0.34705c-16.91873,28.97712 -26.89622,57.17686 -25.07436,85.98185c1.82214,28.71614 16.13773,55.61376 40.4311,79.82105l102.5527,102.63738c29.23894,29.24088 74.87576,30.36809 107.06433,6.1608l4.07795,45.98526c0.6072,7.98211 5.37924,15.00913 12.66725,18.47962c7.28884,3.38441 15.79013,2.69032 22.38404,-1.99622c6.50785,-4.68376 10.06439,-12.49373 9.19816,-20.47584l-33.40435,-377.58829c-0.86762,-9.19539 -7.28801,-16.91929 -16.13773,-19.34862c-8.93635,-2.5154 -18.48017,0.78294 -23.94632,8.24309l-95.26469,130.57614c-6.42039,8.85111 -5.46587,21.08386 2.25581,28.80499l96.13231,96.13231c15.00997,15.01191 15.00997,38.61118 0,53.62031c-15.00969,15.00913 -38.60896,15.00913 -53.53202,0l-102.6396,-102.64016c-19.17427,-19.17371 -26.46228,-34.87694 -27.50342,-51.36311c-1.04114,-16.39733 4.68515,-35.91809 19.17427,-60.64734c0.34705,-0.60525 94.91764,-154.69459 131.96516,-203.80328c0,0 0,0 0,-0.08607c2.77638,-3.64539 16.74493,-19.00158 36.78709,-31.66744c20.12879,-12.66864 46.41782,-23.5132 77.30509,-23.5132l29.58515,0l93.70298,224.88714l-33.66366,89.79938c-2.69032,7.28801 1.30212,15.27011 8.93718,17.78552l64.46487,22.12501c7.63506,2.5154 15.96421,-1.21606 18.7406,-8.50407l39.47463,-105.50261c2.69032,-7.28801 -1.21328,-15.27011 -8.84834,-17.78552l-20.82288,-7.20194l89.79938,-215.60291l29.58515,0c30.88728,0 57.17686,10.84456 77.30565,23.5132c20.03994,12.66587 34.01071,28.02205 36.78709,31.66744c0,0.08607 0,0.08607 0,0.08607c37.0453,49.10869 131.61728,203.19803 131.96433,203.80328c14.48995,24.72926 20.21486,44.25002 19.17371,60.64734c-1.04114,16.48617 -8.32915,32.1894 -27.50286,51.36311l-102.64016,102.64016c-14.92307,15.00913 -38.52233,15.00913 -53.53147,0c-15.00913,-15.00913 -15.00913,-38.6084 0,-53.62031l96.13231,-96.13231c7.72113,-7.72113 8.6762,-19.95388 2.16836,-28.80499l-95.17724,-130.57614c-5.4667,-7.46015 -15.00913,-10.75849 -23.94632,-8.24309c-8.85111,2.42934 -15.27011,10.15324 -16.13912,19.34862l-33.40268,377.58829c-0.86623,7.98211 2.69032,15.79207 9.19816,20.47584c6.59391,4.68654 15.0952,5.38063 22.38321,1.99622c7.28801,-3.47048 12.06061,-10.49751 12.66864,-18.47962l4.07573,-45.98526c32.1894,24.2073 77.82761,23.08008 107.06572,-6.1608l102.64016,-102.63738c24.20452,-24.2073 38.52233,-51.10491 40.34364,-79.82105c1.82131,-28.80499 -8.15702,-57.00473 -25.07353,-85.98185c-0.08884,-0.17491 -0.17491,-0.26098 -0.26098,-0.34705c0,0 -92.83674,-152.26803 -134.65465,-207.79572c-7.54899,-9.97833 -23.33829,-26.63663 -48.58673,-42.60084c-25.24844,-15.96421 -59.69227,-30.36532 -100.99099,-30.36532l-263.06243,0c-1.30212,-0.17491 -2.5154,-0.34705 -3.81753,-0.34705zm33.66366,44.7692l155.47753,0l-77.73877,186.53694l-77.73877,-186.53694zm-161.37763,238.59415l11.36596,127.8886l-60.55989,-60.47243l49.19392,-67.41617zm478.23251,0l49.19476,67.41617l-60.56127,60.47243l11.36652,-127.8886z"/>
 </g>
</svg>