<svg width="1025" height="1024" xmlns="http://www.w3.org/2000/svg" version="1.1" xml:space="preserve">
 <title>Layer 1</title>

 <g>
  <title>Layer 1</title>
  <g stroke="null" id="svg_5">
   <path stroke="null" id="svg_1" fill="#000000" d="m454.84709,341.75532l113.80637,0l0,113.80637l-113.80637,0l0,-113.80637zm227.61273,0l113.80637,0l0,113.80637l-113.80637,0l0,-113.80637zm227.61273,0l113.80637,0l0,113.80637l-113.80637,0l0,-113.80637zm13.08773,356.21393l-144.53409,-16.50192c-34.71094,-3.98322 -68.85285,7.96645 -93.32122,32.43481l-104.70186,104.70186c-161.03601,-81.94058 -293.04997,-213.38694 -374.99055,-374.99198l105.27089,-105.27089c24.46837,-24.46908 36.41661,-58.61099 32.43339,-93.32193l-16.5005,-143.39602c-6.82838,-57.47221 -55.19609,-100.71863 -113.23733,-100.71863l-98.44251,0c-64.3006,0 -117.78959,53.48899 -113.80637,117.78959c30.15869,485.9539 418.80601,874.0336 904.19016,904.19229c64.3006,3.98322 117.78959,-49.50577 117.78959,-113.80637l0,-98.44251c0.56903,-57.47221 -42.67739,-105.83992 -100.1496,-112.6683z" clip-rule="evenodd" fill-rule="evenodd"/>
  </g>
 </g>
</svg>