<svg width="1025" height="1024" xmlns="http://www.w3.org/2000/svg" version="1.1" enable-background="new 0 0 1025 1024" xml:space="preserve">
 <g>
  <title>Layer 1</title>
  <path stroke="null" id="svg_1" fill="#000000" d="m592.52938,3.80202c-7.51128,0.08622 -15.10739,0.4315 -22.78835,1.38111c-15.27905,1.98525 -32.02602,7.16442 -44.88615,20.02613l-502.03507,502.03369c-24.7738,24.77518 -24.7738,65.68964 0,90.46285l383.94998,383.94919c24.77321,24.77518 65.68767,24.77518 90.46285,0l502.03428,-502.03428c12.77529,-12.77529 18.0393,-29.69391 20.02613,-44.88615c1.98486,-15.19223 1.38111,-30.21084 1.38111,-44.88615l0,-328.70411c0,-42.4692 -34.87308,-77.34228 -77.34228,-77.34228l-328.7047,0c-7.166,0 -14.58849,-0.08642 -22.09779,0zm0.69056,44.19559c6.47347,-0.17264 13.89596,0 21.40724,0l328.7047,0c18.5582,0 33.14669,14.5879 33.14669,33.14669l0,328.70411c0,15.36586 -0.08681,29.26379 -1.38111,39.3617c-1.29627,10.09988 -3.36794,15.10739 -6.90556,18.64501l-502.03428,502.72483c-7.85656,7.85656 -20.45822,7.85656 -28.3128,0l-2.76222,-3.45278l-381.18775,-380.49641c-7.85517,-7.85458 -7.85517,-20.45624 0,-28.3128l502.72562,-502.03369c3.45278,-3.45278 9.14888,-5.61087 19.33557,-6.90556c5.09236,-0.69056 10.78846,-1.20847 17.2639,-1.38111zm228.57407,66.29338c-48.59936,0 -88.39118,39.7932 -88.39118,88.39059c0,48.59936 39.79181,88.39118 88.39118,88.39118c48.59739,0 88.39118,-39.79181 88.39118,-88.39118c0,-48.59739 -39.79379,-88.39059 -88.39118,-88.39059zm0,44.19559c24.68639,0 44.19559,19.50821 44.19559,44.195c0,24.68837 -19.5092,44.19559 -44.19559,44.19559c-24.68837,0 -44.19559,-19.50722 -44.19559,-44.19559c0,-24.68679 19.50722,-44.195 44.19559,-44.195z"/>
 </g>

</svg>