<svg width="1025" height="1024" xmlns="http://www.w3.org/2000/svg" version="1.1" enable-background="new 0 0 1025 1024" xml:space="preserve">
 <g>
  <title>Layer 1</title>
  <g stroke="null" id="svg_1">
   <path stroke="null" id="svg_2" d="m514.87789,580.95932c0,0 0,0 0,0c-4.75581,0 -4.75581,0 -9.51163,0c-109.38372,-4.75581 -190.23256,-85.60465 -190.23256,-190.23256c0,-104.62791 85.60465,-190.23256 190.23256,-190.23256c104.62791,0 190.23256,85.60465 190.23256,190.23256c4.75581,104.62791 -76.09303,190.23256 -180.72094,190.23256c0,0 0,0 0,0zm-4.75581,-309.12792c-66.5814,0 -118.89535,52.31396 -118.89535,118.89535c0,66.5814 52.31396,118.89535 114.13954,118.89535c0,0 4.75581,0 9.51163,0c61.82558,-4.75581 114.13954,-57.06977 114.13954,-118.89535c0,-66.5814 -52.31396,-118.89535 -118.89535,-118.89535z" class="st0"/>
   <path stroke="null" id="svg_3" d="m510.12208,1018.49422c-128.40698,0 -252.05815,-47.55814 -342.41861,-133.16279c-9.51163,-9.51163 -14.26744,-19.02326 -9.51163,-28.53488c4.75581,-57.06977 42.80233,-109.38372 99.8721,-147.43024c142.67442,-95.11628 370.9535,-95.11628 513.62792,0c57.06977,38.04651 95.11628,90.36047 99.8721,147.43024c0,9.51163 -4.75581,23.77907 -9.51163,28.53488c-99.8721,85.60465 -223.52326,133.16279 -351.93024,133.16279zm-280.59303,-171.20931c80.84884,66.5814 175.96512,99.8721 280.59303,99.8721c104.62791,0 204.50001,-38.04651 280.59303,-99.8721c-9.51163,-28.53488 -33.2907,-57.06977 -66.5814,-80.84884c-118.89535,-76.09303 -313.88373,-76.09303 -432.77908,0c-33.2907,23.77907 -52.31396,52.31396 -61.82558,80.84884z" class="st0"/>
   <path stroke="null" id="svg_4" d="m510.12208,1023.25003c-280.59303,0 -508.87211,-233.03489 -508.87211,-513.62792s228.27908,-508.87211 508.87211,-508.87211s513.62792,228.27908 513.62792,508.87211s-233.03489,513.62792 -513.62792,513.62792zm0,-951.16282c-242.54652,0 -442.29071,199.74419 -442.29071,442.29071s199.74419,442.29071 442.29071,442.29071s442.29071,-194.98838 442.29071,-442.29071s-199.74419,-442.29071 -442.29071,-442.29071z" class="st0"/>
  </g>
 </g>

</svg>