<svg width="1025" height="1024" xmlns="http://www.w3.org/2000/svg" version="1.1" xml:space="preserve">
 <g>
  <title>Layer 1</title>
  <g stroke="null" id="svg_3">
   <path stroke="null" id="svg_1" fill="#000000" d="m348.66001,30.72022c-11.27893,0 -20.48,9.2 -20.48,20.48l0,102.4c0,11.28 9.20107,20.48 20.48,20.48c11.27893,0 20.48,-9.2 20.48,-20.48l0,-102.4c0,-11.28 -9.20107,-20.48 -20.48,-20.48zm-231.68,96c-5.2,0 -10.72,1.76 -14.72,5.76c-8,8 -8,21.44 0,29.44l72.96,72.31957c4,4 8.8,5.76 14.08,5.76c5.28,0 10.72,-1.76 14.72,-5.76c8,-8 8,-21.44 0,-29.44l-72.32,-72.31957c-4,-4 -9.52,-5.76 -14.72,-5.76zm463.36001,0c-5.20107,0 -10.72,1.76 -14.72,5.76l-72.32,72.31957c-8,8 -8,21.44 0,29.44c4,4 9.44,5.76 14.72,5.76c5.28,0 10.72,-1.76 14.72,-5.76l72.32,-72.31957c8,-8 8,-21.44 0,-29.44c-4,-4 -9.52107,-5.76 -14.72,-5.76zm-231.68,88.31957c-90.48107,0 -163.84,73.36107 -163.84,163.84c0,62.72 35.27893,117.12 87.04,144.64c20.55893,-23.36 46.72,-41.83893 76.8,-52.48c3.44107,-86.08 51.59893,-160.39894 121.6,-201.6c-30.00107,-33.35893 -73.20107,-54.4 -121.6,-54.4zm245.76,61.44c-44.40107,0 -85.44,14.32107 -119.04,38.4c-3.12107,2.24 -6.00107,4.64 -8.96,7.04c-1.52107,1.28 -2.95893,2.56 -4.48,3.84c-7.36,6.32107 -14.08,13.20107 -20.48,20.48c-2.08,2.4 -4.40107,4.56107 -6.4,7.04c-1.04107,1.28 -2.16107,2.56 -3.2,3.84c-4,5.20107 -7.43893,10.48107 -10.88,16c-1.67893,2.64107 -2.96107,5.6 -4.48,8.32c-0.48,0.88107 -1.44,1.68107 -1.92,2.56c-2.96107,5.44 -5.84107,10.88 -8.32,16.64c-5.92,13.6 -9.99893,27.92107 -12.8,42.88c-0.88107,4.88107 -1.99893,9.76 -2.56,14.72c-0.8,7.52 -1.28,15.28107 -1.28,23.04c0,7.2 0.48,14.48107 1.28,21.76c-5.04107,0.72107 -9.84107,2.00107 -14.72,3.2c-3.12107,0.8 -6.56,0.96 -9.6,1.92c-4.56107,1.44 -9.12,3.28107 -13.44,5.12c-1.28,0.56107 -2.56,1.28 -3.84,1.92c-11.84,5.52107 -22.24,12.72107 -32,21.12c-1.04107,0.88107 -2.16107,1.6 -3.2,2.56c-28.96,26.24 -47.36,64.16 -47.36,106.24c0,79.04 64.32,143.36 143.36,143.36l430.08001,0c101.68107,0 184.32,-82.63893 184.32,-184.32c0,-101.6 -82.63893,-184.32 -184.32,-184.32c-16.64,0 -32.88107,2.08 -48.64,6.4c-24.24107,-88.16 -103.60107,-149.76 -197.12,-149.76zm-573.44001,81.92c-11.28,0 -20.48,9.20107 -20.48,20.48c0,11.28107 9.2,20.48 20.48,20.48l102.4,0c11.28,0 20.48,-9.19893 20.48,-20.48c0,-11.27893 -9.2,-20.48 -20.48,-20.48l-102.4,0zm168.32,159.36c-5.2,0 -10.08,1.76 -14.08,5.76l-72.96,72.32c-8,8 -8,21.44 0,29.44c4,4 9.44,5.76 14.72,5.76c5.28,0 10.72,-1.76 14.72,-5.76l72.32,-72.32c8,-8 8,-21.44 0,-29.44c-4,-4 -9.52,-5.76 -14.72,-5.76zm261.76,311.68001c-5.20107,0 -10.72,1.76 -14.72,5.76l-40.96,40.96c-8,8 -8,21.44 0,29.44c4,4 9.44,5.76 14.72,5.76c5.28,0 10.72,-1.76 14.72,-5.76l40.96,-40.96c8,-8 8,-21.44 0,-29.44c-4,-4 -9.52107,-5.76 -14.72,-5.76zm389.12001,0c-5.20107,0 -10.72,1.76 -14.72,5.76l-40.96,40.96c-8,8 -8,21.44 0,29.44c4,4 9.44,5.76 14.72,5.76c5.28,0 10.72,-1.76 14.72,-5.76l40.96,-40.96c8,-8 8,-21.44 0,-29.44c-4,-4 -9.52107,-5.76 -14.72,-5.76zm-204.8,81.92c-5.20107,0 -10.72,1.76 -14.72,5.76l-40.96,40.96c-8,8 -8,21.44 0,29.44c4,4 9.44,5.76 14.72,5.76c5.28,0 10.72,-1.76 14.72,-5.76l40.96,-40.96c8,-8 8,-21.44 0,-29.44c-4,-4 -9.52107,-5.76 -14.72,-5.76z"/>
  </g>
 </g>

</svg>