<svg width="1025" height="1024" xmlns="http://www.w3.org/2000/svg" xml:space="preserve" enable-background="new 0 0 1025 1024" version="1.1">

 <g>
  <title>Layer 1</title>
  <path stroke="null" id="svg_1" d="m233.01459,1.03218c-6.00725,0.22377 -11.69349,2.76824 -15.86327,7.09852c-4.16949,4.33028 -6.49745,10.10882 -6.49368,16.12013l0,510.80951l-46.43731,0c-50.97568,0 -92.87462,41.90096 -92.87462,92.87462l0,371.49846c-0.04353,3.07647 0.52474,6.13263 1.67203,8.98852c1.14758,2.85299 2.85067,5.45348 5.01117,7.64474c2.16021,2.19126 4.73457,3.92976 7.57334,5.11681c2.83848,1.18996 5.88506,1.79945 8.96211,1.79945c3.07705,0 6.12334,-0.60949 8.96211,-1.79945c2.83848,-1.18705 5.41285,-2.92555 7.57305,-5.11681c2.1605,-2.19126 3.86387,-4.79175 5.01117,-7.64474c1.14729,-2.85589 1.71586,-5.91205 1.67232,-8.98852l0,-371.49846c0,-25.645 20.79114,-46.43731 46.43731,-46.43731l46.43731,0l0,46.43731c-25.65661,0 -46.43731,20.7807 -46.43731,46.43731c0,25.65661 20.7807,46.43731 46.43731,46.43731l603.68471,0c25.65661,0 46.43731,-20.7807 46.43731,-46.43731c0,-25.65661 -20.7807,-46.43731 -46.43731,-46.43731l0,-46.43731l46.43731,0c25.645,0 46.43731,20.7923 46.43731,46.43731l0,371.49846c-0.04353,3.07647 0.52532,6.13263 1.67174,8.98852c1.14932,2.85299 2.85009,5.45348 5.01233,7.64474c2.15933,2.19126 4.7337,3.92976 7.57218,5.11681c2.83848,1.18996 5.88593,1.79945 8.9624,1.79945c3.07647,0 6.12392,-0.60949 8.9624,-1.79945c2.83848,-1.18705 5.41285,-2.92555 7.57218,-5.11681c2.16224,-2.19126 3.86591,-4.79175 5.01233,-7.64474c1.14642,-2.85589 1.71528,-5.91205 1.67174,-8.98852l0,-371.49846c0,-50.97365 -41.89806,-92.87462 -92.87462,-92.87462l-46.43731,0l0,-510.80951c0,-3.95791 -1.01291,-7.84994 -2.94006,-11.3069c-1.92715,-3.45697 -4.70468,-6.36394 -8.07138,-8.44462c-3.3667,-2.08097 -7.20939,-3.26686 -11.16527,-3.44507c-3.95298,-0.1782 -7.88564,0.65738 -11.42648,2.42693l-36.05276,18.04873l-36.05276,-18.04873c-3.22449,-1.61225 -6.77985,-2.4516 -10.38454,-2.4516c-3.6047,0 -7.16005,0.83935 -10.38454,2.4516l-36.05276,18.04873l-36.05276,-18.04873c-3.22449,-1.61225 -6.77985,-2.4516 -10.38454,-2.4516c-3.6047,0 -7.16005,0.83935 -10.38454,2.4516l-36.05276,18.04873l-36.05276,-18.04873c-3.22449,-1.61225 -6.77985,-2.4516 -10.38454,-2.4516c-3.6047,0 -7.16005,0.83935 -10.38454,2.4516l-36.05276,18.04873l-36.05276,-18.04873c-3.22449,-1.61225 -6.77985,-2.4516 -10.38454,-2.4516c-3.6047,0 -7.16005,0.83935 -10.38454,2.4516l-36.05276,18.04873l-36.05218,-18.04873c-3.22449,-1.61225 -6.77985,-2.4516 -10.38483,-2.4516c-3.60499,0 -7.16063,0.83935 -10.38512,2.4516l-36.05218,18.04873l-36.05247,-18.04873c-3.48396,-1.7472 -7.35161,-2.58946 -11.24654,-2.44899zm93.73632,49.15824l36.05247,18.04902c3.22449,1.61225 6.77985,2.4516 10.38454,2.4516c3.6047,0 7.16005,-0.83935 10.38454,-2.4516l36.05276,-18.04902l36.05276,18.04902c3.22449,1.61225 6.77985,2.4516 10.38454,2.4516c3.6047,0 7.16005,-0.83935 10.38454,-2.4516l36.05276,-18.04902l36.05276,18.04902c3.22449,1.61225 6.77985,2.4516 10.38454,2.4516c3.6047,0 7.16005,-0.83935 10.38454,-2.4516l36.05276,-18.04902l36.05276,18.04902c3.22449,1.61225 6.77985,2.4516 10.38454,2.4516c3.6047,0 7.16005,-0.83935 10.38454,-2.4516l36.05276,-18.04902l36.05276,18.04902c3.22449,1.61225 6.77985,2.4516 10.38454,2.4516c3.6047,0 7.16005,-0.83935 10.38454,-2.4516l12.83411,-6.43969l0,492.58142c-0.41503,2.50761 -0.41503,5.06457 0,7.57218l0,112.41892l-510.8101,0l0,-112.19254c0.41445,-2.50761 0.41445,-5.06457 0,-7.57218l0,-492.8078l12.83353,6.43969c3.22449,1.61225 6.78014,2.4516 10.38512,2.4516c3.60499,0 7.16034,-0.83935 10.38483,-2.4516l36.05247,-18.04902zm162.53029,90.15368l0,51.56195c-37.14985,6.04178 -64.76263,21.44243 -77.45453,40.81404c-15.50135,23.6511 -15.42009,48.15984 -15.42009,48.15984c0,33.18236 19.94482,58.79253 43.48854,73.64667c23.54662,14.85704 51.04621,23.04161 77.00467,31.51932c25.95555,8.47481 50.24226,17.21663 65.75523,28.02492c15.51006,10.80538 22.71945,20.34535 22.71945,40.76905c0,0 0.08997,12.37844 -10.11172,26.48378c-10.2046,14.10533 -30.06525,30.51802 -82.76289,30.51802c-51.85596,0 -71.0752,-18.18891 -81.9009,-35.50713c-10.8228,-17.31821 -10.97372,-34.14884 -10.97372,-34.14884l-46.43731,0c0,0 -0.15092,29.60959 18.0496,58.72868c15.48684,24.77721 49.73145,45.41569 98.04367,52.05912l0,51.74277l46.43731,0l0,-51.01719c47.47344,-5.66535 81.20434,-23.07934 97.18168,-45.16609c18.82162,-26.0165 18.91159,-53.69314 18.91159,-53.69314c0,-35.01083 -18.91159,-62.37111 -42.58301,-78.86216c-23.66852,-16.49105 -51.62377,-25.47377 -77.91019,-34.05886c-26.28352,-8.58219 -51.02589,-16.7987 -66.66076,-26.66372c-15.63776,-9.86503 -21.81393,-17.27468 -21.81393,-34.37522c0,0 0.08127,-10.9386 7.80147,-22.71916c7.7173,-11.78056 21.32343,-24.94206 61.85449,-24.94206c40.63264,0 54.29972,13.01899 61.94737,24.48871c7.64474,11.46943 7.70859,21.94859 7.70859,21.94859l46.43731,0c0,0 0.06385,-24.34853 -15.51006,-47.70708c-12.74704,-19.12259 -40.31629,-34.20398 -77.36455,-40.13373l0,-51.47111l-46.43731,0zm-278.62356,650.12144c-12.8167,0 -23.21865,10.40196 -23.21865,23.21865l0,46.43731c0,12.8167 10.40196,23.21865 23.21865,23.21865l139.31163,0c12.8167,0 23.21865,-10.40196 23.21865,-23.21865l0,-46.43731c0,-12.8167 -10.40196,-23.21865 -23.21865,-23.21865l-139.31163,0zm232.18625,0c-12.8167,0 -23.21865,10.40196 -23.21865,23.21865l0,46.43731c0,12.8167 10.40196,23.21865 23.21865,23.21865l139.31192,0c12.8167,0 23.21865,-10.40196 23.21865,-23.21865l0,-46.43731c0,-12.8167 -10.40196,-23.21865 -23.21865,-23.21865l-139.31192,0zm232.18654,0c-12.8167,0 -23.21865,10.40196 -23.21865,23.21865l0,46.43731c0,12.8167 10.40196,23.21865 23.21865,23.21865l139.31192,0c12.8167,0 23.21865,-10.40196 23.21865,-23.21865l0,-46.43731c0,-12.8167 -10.40196,-23.21865 -23.21865,-23.21865l-139.31192,0zm-464.37279,139.31192c-12.8167,0 -23.21865,10.40196 -23.21865,23.21865l0,46.43731c0,12.8167 10.40196,23.21865 23.21865,23.21865l139.31163,0c12.8167,0 23.21865,-10.40196 23.21865,-23.21865l0,-46.43731c0,-12.8167 -10.40196,-23.21865 -23.21865,-23.21865l-139.31163,0zm232.18625,0c-12.8167,0 -23.21865,10.40196 -23.21865,23.21865l0,46.43731c0,12.8167 10.40196,23.21865 23.21865,23.21865l139.31192,0c12.8167,0 23.21865,-10.40196 23.21865,-23.21865l0,-46.43731c0,-12.8167 -10.40196,-23.21865 -23.21865,-23.21865l-139.31192,0zm232.18654,0c-12.8167,0 -23.21865,10.40196 -23.21865,23.21865l0,46.43731c0,12.8167 10.40196,23.21865 23.21865,23.21865l139.31192,0c12.8167,0 23.21865,-10.40196 23.21865,-23.21865l0,-46.43731c0,-12.8167 -10.40196,-23.21865 -23.21865,-23.21865l-139.31192,0z"/>
 </g>
</svg>