<svg width="1025" height="1024" xmlns="http://www.w3.org/2000/svg" xml:space="preserve" enable-background="new 0 0 1025 1024" version="1.1">

 <g>
  <title>Layer 1</title>
  <path stroke="null" id="svg_1" d="m141.23837,1.31014c-0.93302,0.16968 -1.86648,0.42397 -2.71489,0.67872c-10.09576,2.29046 -17.22233,11.36859 -16.96804,21.71909l0,217.19091l217.19091,0c7.8053,0.08461 15.10156,-3.98772 19.08927,-10.77493c3.90265,-6.78722 3.90265,-15.10156 0,-21.88877c-3.98772,-6.78722 -11.28397,-10.85955 -19.08927,-10.77448l-144.5677,0c81.70134,-80.25883 193.86008,-130.31455 318.32224,-130.31455c253.33058,0 456.10092,202.76808 456.10092,456.10273c0,253.33058 -202.77034,456.10092 -456.10092,456.10092c-253.33465,0 -456.10273,-202.77034 -456.10273,-456.10092c0,-74.57793 18.41055,-147.53914 49.54668,-209.72679l-38.68713,-19.68293c-34.02069,68.12645 -54.29773,147.62376 -54.29773,229.40971c0,276.57905 222.96005,499.5391 499.54091,499.5391c276.57905,0 499.5391,-222.96005 499.5391,-499.5391c0,-276.58086 -222.96005,-499.54091 -499.5391,-499.54091c-135.15202,0 -258.0857,54.21266 -347.50727,141.17409l0,-141.17409c0.25475,-6.27817 -2.29046,-12.30206 -6.78722,-16.54407c-4.58137,-4.32662 -10.77448,-6.44786 -16.96804,-5.85375zm349.54344,174.43145l0,310.17758c-12.98168,7.54738 -21.71909,21.29376 -21.71909,37.32969c0,3.73297 0.42081,7.37997 1.35744,10.85955l-147.2844,147.28259l31.22119,31.22119l147.2844,-147.28259c3.47505,0.93211 7.12658,1.35744 10.85955,1.35744c24.00865,0 43.43818,-19.42954 43.43818,-43.43818c0,-16.03593 -8.74193,-29.7823 -21.71909,-37.32969l0,-310.17758l-43.43818,0z"/>
 </g>
</svg>