<svg width="1025" height="1024" xmlns="http://www.w3.org/2000/svg" version="1.1" xml:space="preserve">
 <g>
  <title>Layer 1</title>
  <g stroke="null" id="svg_3">
   <path stroke="null" id="svg_1" fill="#000000" d="m390.8517,11.56992c-52.47472,3.11969 -89.51206,21.67782 -110.06893,55.6744l-135.02642,234.2173l90.23092,51.83479l-232.29664,28.7971l71.03286,40.95588l-62.07376,105.58938c-13.03869,22.55773 -20.55793,73.11265 3.83961,110.06893c9.67903,14.63746 40.87589,70.47185 68.47311,119.66796c23.8376,42.47466 46.15536,82.47064 56.31434,99.19002c11.83881,16.07732 23.51763,31.91572 24.95749,33.91659c0.07999,0 -26.15737,-44.07663 20.47794,-124.78745l120.94784,-209.25895l71.03286,40.95588l-90.87086,-215.01837l90.23092,51.83479l193.26056,-334.68719c39.115,-73.03265 70.39292,-85.67138 77.43221,-87.67118c3.51965,0 6.39936,0 9.59903,0c-2.71973,-0.07999 -5.52051,-0.71993 -8.31916,-0.63994c-1.6809,0 -3.44072,-0.07999 -5.11949,0c-28.55819,0.55994 -77.91216,0.39996 -137.58616,0c-35.4375,-0.23998 -74.31359,-0.55994 -116.46829,-0.63994zm284.77136,3.19968c-12.23984,5.9194 -38.71611,25.35745 -71.03286,85.75138l-74.23253,128.62792l43.51562,76.15234l-71.03286,41.59582l231.6567,28.15717l-90.23092,51.83479l117.10822,202.8596l152.30468,0c64.07249,0 95.90929,-20.63792 109.42899,-33.91659c3.75856,-25.11747 -0.08106,-48.3962 -11.51884,-69.11305l-135.02642,-233.57651l-90.23092,51.83479l91.5108,-215.01923l-71.03286,40.95588l-60.79389,-106.22932c-10.32003,-17.9182 -37.43623,-42.15576 -70.39292,-49.91498zm-16.63833,564.42408l-140.78584,186.86121l0,-104.30951l-234.21644,0l-76.15234,131.82674c-31.99678,55.51442 -29.67702,93.59059 -24.95749,111.98874c19.918,15.83841 41.59582,24.47754 65.27343,24.95749l270.05284,0l0,-104.94944l140.78584,186.86121l0,-81.91176l122.22771,0.63994c26.07738,0 73.5926,-17.9182 93.4306,-57.59421c7.83921,-15.67842 40.95588,-71.19284 69.75298,-119.66796c24.87643,-41.91578 48.15516,-81.35288 57.59421,-98.55009c8.07812,-18.31922 15.59736,-36.15636 16.63833,-38.39614c0,0 -24.5586,44.79549 -117.74816,44.79549l-241.89567,0l0,-82.5517z"/>
  </g>
 </g>

</svg>