<svg width="1025" height="1024" xmlns="http://www.w3.org/2000/svg" version="1.1" xml:space="preserve">
 <title>Layer 1</title>

 <g>
  <title>Layer 1</title>
  <g stroke="null" id="svg_5">
   <path stroke="null" id="svg_1" fill="#000000" d="m921.83411,230.58343l-111.54251,0c5.62742,-15.86177 9.21001,-33.25854 9.21001,-51.1668c0,-84.93683 -68.56522,-153.50012 -153.50012,-153.50012c-53.72504,0 -100.28766,27.63002 -127.91768,69.07506l-25.58244,34.28179l-25.58518,-34.79354c-27.63002,-40.93327 -74.1899,-68.5633 -127.91494,-68.5633c-84.93765,0 -153.50122,68.5633 -153.50122,153.50012c0,17.90826 3.58176,35.30503 9.21001,51.1668l-111.54333,0c-56.79505,0 -101.82184,45.53828 -101.82184,102.33469l-0.51148,562.83287c0,56.79505 45.53828,102.3325 102.33332,102.3325l818.66741,0c56.79505,0 102.3325,-45.53746 102.3325,-102.3325l0,-562.83287c0,-56.79642 -45.53746,-102.33469 -102.3325,-102.33469zm-255.83262,-102.3336c28.13986,0 51.16488,23.02502 51.16488,51.1668c0,28.14178 -23.02502,51.1668 -51.16488,51.1668c-28.1426,0 -51.16762,-23.02502 -51.16762,-51.1668c0,-28.14178 23.02502,-51.1668 51.16762,-51.1668zm-307.00025,0c28.13986,0 51.16488,23.02502 51.16488,51.1668c0,28.14178 -23.02502,51.1668 -51.16488,51.1668c-28.1426,0 -51.16762,-23.02502 -51.16762,-51.1668c0,-28.14178 23.02502,-51.1668 51.16762,-51.1668zm511.66525,767.50116l-716.33299,0c-28.14178,0 -51.1668,-23.02502 -51.1668,-51.16762l0,-51.16488l818.66741,0l0,51.16488c0,28.1426 -23.02502,51.16762 -51.16762,51.16762zm51.16762,-255.83537l-818.66741,0l0,-255.83262c0,-28.13986 23.02502,-51.16488 51.1668,-51.16488l208.76017,0l-75.72764,103.35492c-16.88501,23.02502 -11.76743,55.26004 11.25759,71.63522c22.51244,16.37243 54.74746,11.25485 71.12264,-11.25759l142.75511,-194.43258l142.75511,194.43258c16.37243,22.51244 48.60746,27.63002 71.1199,11.25759c23.02502,-16.37517 28.1426,-48.6102 11.25759,-71.63522l-75.72764,-103.35492l208.76017,0c28.1426,0 51.16762,23.02502 51.16762,51.16488l0,255.83262z" clip-rule="evenodd" fill-rule="evenodd"/>
  </g>
 </g>
</svg>