<svg width="1025" height="1024" xmlns="http://www.w3.org/2000/svg" version="1.1" xml:space="preserve">
 <g>
  <title>Layer 1</title>
  <g stroke="null" id="svg_1">
   <path stroke="null" id="svg_2" d="m512.5,0.88892c-10.22222,0 -15.33333,0 -25.55555,5.11111l-408.88886,214.66665c-5.11111,5.11111 -15.33333,15.33333 -15.33333,20.44444c-5.11111,10.22222 -10.22222,20.44444 -10.22222,30.66666l0,480.44441c0,10.22222 5.11111,20.44444 10.22222,25.55555c5.11111,10.22222 10.22222,15.33333 20.44444,20.44444l408.88886,214.66665c5.11111,10.22222 10.22222,10.22222 20.44444,10.22222s15.33333,0 25.55555,-5.11111l403.77775,-214.66665c10.22222,-5.11111 15.33333,-10.22222 20.44444,-20.44444c5.11111,-10.22222 10.22222,-20.44444 10.22222,-25.55555l0,-485.55553c0,-10.22222 -5.11111,-20.44444 -10.22222,-25.55555c-5.11111,-10.22222 -10.22222,-15.33333 -20.44444,-20.44444l-403.77775,-219.77776c-10.22222,-5.11111 -15.33333,-5.11111 -25.55555,-5.11111zm0,35.77778c5.11111,0 5.11111,0 10.22222,0l102.22222,51.11111l-398.66664,204.44443c-5.11111,0 -10.22222,5.11111 -10.22222,10.22222l-112.44444,-56.22222l398.66664,-209.55554c5.11111,0 5.11111,0 10.22222,0zm148.22221,71.55555l91.99999,51.11111l-398.66664,204.44443c-10.22222,5.11111 -15.33333,10.22222 -20.44444,20.44444c-5.11111,5.11111 -10.22222,15.33333 -10.22222,25.55555l0,194.22221c0,0 0,0 0,0c0,0 0,0 0,0c0,0 0,0 0,0c0,0 0,0 0,0l-35.77778,-40.88889c-5.11111,-5.11111 -10.22222,-5.11111 -15.33333,-10.22222c-5.11111,0 -10.22222,0 -15.33333,0l-30.66666,10.22222c0,0 0,0 0,0c0,0 0,0 0,0c0,0 0,0 0,0c0,0 0,0 0,0l0,-219.77776c0,-5.11111 0,-5.11111 5.11111,-10.22222c0,-5.11111 5.11111,-5.11111 10.22222,-5.11111l419.11109,-219.77776zm127.77777,71.55555l132.88888,66.44444l-398.66664,204.44443c-5.11111,0 -5.11111,0 -10.22222,0c-5.11111,0 -5.11111,0 -10.22222,0l-122.66666,-61.33333l408.88886,-209.55554zm-700.22218,97.11111l107.33333,56.22222c0,5.11111 0,5.11111 0,10.22222l0,214.66665c0,5.11111 0,10.22222 5.11111,15.33333c0,5.11111 5.11111,10.22222 10.22222,10.22222c5.11111,5.11111 10.22222,5.11111 15.33333,5.11111c5.11111,0 10.22222,0 15.33333,0l15.33333,0c0,0 0,0 0,0c0,0 0,0 0,0l35.77778,40.88889c5.11111,5.11111 10.22222,10.22222 20.44444,10.22222c5.11111,0 15.33333,0 20.44444,0c5.11111,-5.11111 10.22222,-5.11111 15.33333,-15.33333c5.11111,-5.11111 10.22222,-15.33333 10.22222,-20.44444l0,-189.1111l127.77777,66.44444c0,0 5.11111,0 5.11111,5.11111l0,495.77775l-398.66664,-214.66665c-5.11111,0 -5.11111,-5.11111 -10.22222,-5.11111c0,-5.11111 -5.11111,-5.11111 -5.11111,-10.22222l0,-475.3333l10.22222,0zm848.44439,0l0,475.3333c0,5.11111 0,5.11111 -5.11111,10.22222c0,5.11111 -5.11111,5.11111 -10.22222,5.11111l-398.66664,214.66665l0,-495.77775c5.11111,0 5.11111,0 5.11111,-5.11111l408.88886,-204.44443z"/>
  </g>
 </g>

</svg>