<svg width="1025" height="1024" xmlns="http://www.w3.org/2000/svg" version="1.1" enable-background="new 0 0 1025 1024" xml:space="preserve">
 <g>
  <title>Layer 1</title>
  <path stroke="null" id="svg_1" d="m447.12804,95.31534l-32.81994,25.09782l-391.26563,296.02302l-21.87996,16.73174l21.87996,16.73174l391.26563,296.02302l32.81994,25.0976l0,-212.36434c254.11216,5.22759 387.08227,95.64332 456.90509,185.97968c71.91429,93.06921 78.51045,184.04909 78.51045,184.04909l41.18581,-0.64353l0,-1.93058l0,-0.64353c0.16088,-4.02205 4.66558,-153.32062 -66.28341,-305.67594c-70.14458,-150.7465 -219.2029,-301.65389 -510.31794,-308.89358l0,-215.58198l0,-0.00021zm-41.18581,83.01536l0,172.46558l20.59291,0c291.75857,0 426.49838,142.86328 493.5862,287.01362c19.46673,41.82934 31.93402,81.96834 41.18581,120.33979c-7.96474,-13.11296 -14.15762,-25.98353 -24.45408,-39.25523c-79.31486,-102.56339 -231.26905,-203.35494 -510.31794,-203.35494l-20.59291,0l0,172.46558l-336.56573,-254.83721l336.56573,-254.83721z"/>
 </g>

</svg>