<svg width="1025" height="1024" xmlns="http://www.w3.org/2000/svg" version="1.1" xml:space="preserve">
 <title>Layer 1</title>

 <g>
  <title>Layer 1</title>
  <g stroke="null" id="svg_5">
   <path stroke="null" id="svg_1" fill="#000000" d="m865.84601,5.87387l21.10211,3.06102c32.79782,5.19321 69.53137,13.88463 92.10611,36.46035c22.63049,22.63049 31.32191,59.36405 36.51381,92.16186l3.06332,21.04537c6.88754,49.74313 8.69142,114.95634 -3.06332,187.33128c-23.17494,142.83449 -99.21339,313.21914 -290.14915,445.23035c-0.88226,9.75735 -1.19056,19.55734 -0.93146,29.35404l0.93146,29.68202c0.54444,19.78692 0.21647,39.52137 -5.24765,58.48834c-10.38707,36.0776 -47.39284,59.85601 -81.99454,76.91088l-16.94663,8.03546l-21.8663,9.6196l-14.92301,6.01512c-38.64567,14.75902 -85.27432,25.09033 -115.77629,-5.4674c-13.82756,-13.83084 -20.22313,-32.63383 -25.36255,-51.43681l-2.51559,-9.40313c-8.7439,-33.18155 -18.639,-66.14335 -30.99394,-98.06547c-3.41097,4.14564 -7.02529,8.12074 -10.82328,11.91545c-29.79026,29.73778 -70.18733,44.71654 -110.58243,56.30401l-26.83944,7.37951l-26.78499,7.10729l-26.12904,6.55956l-23.61443,5.46412l-28.26057,6.01512l-17.65638,3.44377c-8.80785,1.64317 -17.88334,1.11513 -26.44193,-1.53494c-8.55859,-2.65334 -16.3425,-7.34999 -22.67805,-13.68325c-6.33555,-6.33654 -11.03253,-14.11946 -13.6839,-22.67969c-2.6517,-8.55695 -3.17844,-17.63539 -1.53428,-26.4416l6.0676,-30.11823l7.05153,-31.59742l6.778,-27.87814l12.29918,-46.18916c12.18996,-44.82477 27.00375,-91.01394 60.12955,-124.08398l5.41164,-5.19517l-41.708,-14.97548l-41.92643,-14.43104c-24.54392,-8.09122 -50.34465,-16.61865 -68.16501,-34.43771c-32.57905,-32.58135 -18.7492,-83.41796 -2.51428,-123.37554l9.07384,-21.15459l7.48905,-16.45466c17.32807,-36.84179 41.92643,-79.2592 81.06505,-90.52099c18.96829,-5.46641 38.64698,-5.79439 58.48966,-5.30242l29.68202,0.98393c9.83934,0.16399 19.67869,0 29.35404,-0.92916c131.95775,-190.93806 302.39487,-266.97422 445.22936,-290.15145c61.93867,-10.21062 125.03839,-11.24211 187.27553,-3.06102zm-169.78117,110.96583c-120.15152,19.5147 -266.15427,83.85319 -380.07322,255.22079c-13.82985,20.77414 -37.17108,30.66596 -60.94949,34.43771c-13.4471,2.18761 -27.00343,2.73534 -40.61452,2.73534l-40.83328,-0.60348c-6.77832,0 -13.61109,0 -20.38942,0.32798c-16.61734,22.08605 -28.20612,48.3243 -36.89754,74.39856l81.99454,29.79026l33.72731,12.73539c61.65989,24.16215 121.35093,53.40796 167.26788,99.3249c77.35037,77.34709 116.65199,178.52835 145.07786,281.89722c24.92634,-8.74718 49.96091,-19.89843 71.17126,-35.80538l0.32798,-20.3904l-0.60348,-40.77752c0,-13.55534 0.54772,-27.11395 2.73534,-40.66929c3.71599,-23.77842 13.66357,-47.12062 34.43771,-60.94818c171.36859,-113.91993 235.70478,-259.92269 255.21948,-380.07421c9.83934,-60.67497 8.19945,-114.90059 2.67958,-154.85948c-2.11874,-16.57798 -5.64778,-32.94508 -10.55106,-48.92319c-15.9791,-4.88327 -32.34521,-8.3946 -48.92122,-10.4953c-51.45977,-6.67075 -103.61814,-5.80456 -154.80569,2.67827zm-451.73645,585.33081c-19.13228,23.12246 -28.04213,53.46044 -35.20321,83.5262l-5.90361,25.5823l-3.00625,12.35494l37.93592,-8.91117c30.06477,-7.10729 60.45753,-16.12669 83.52652,-35.25765c10.24932,-10.25588 16.00533,-24.16543 15.99877,-38.66534c-0.00656,-14.49991 -5.76914,-28.40619 -16.02829,-38.65551c-10.2562,-10.24932 -24.16477,-16.00533 -38.66534,-15.99877c-14.50024,0.00328 -28.40488,5.76914 -38.65452,16.02501zm309.22994,-386.4665c10.14764,-10.15388 22.20084,-18.20935 35.46428,-23.70593c13.26344,-5.49659 27.47801,-8.32704 41.83689,-8.32966c14.3556,-0.0023 28.57346,2.82291 41.84017,8.3149c13.26344,5.49199 25.31663,13.54287 35.47084,23.69445c10.1542,10.14764 18.20935,22.20084 23.70626,35.46428c5.49691,13.26344 8.32737,27.47801 8.33065,41.83689c0.00328,14.3556 -2.82389,28.57346 -8.31425,41.84017c-5.49363,13.26344 -13.5455,25.31663 -23.69314,35.47084c-10.1542,10.1542 -22.21068,18.20935 -35.4774,23.70626c-13.26672,5.49363 -27.48457,8.32081 -41.84345,8.32081c-29.00311,0 -56.81566,-11.51859 -77.32085,-32.02707c-10.1542,-10.1542 -18.20935,-22.2074 -23.70626,-35.47412c-5.49363,-13.26672 -8.32081,-27.48457 -8.32081,-41.84673c0,-28.99983 11.51859,-56.81238 32.02707,-77.32085l0,0.05576z"/>
  </g>
 </g>
</svg>