<svg width="1025" height="1024" xmlns="http://www.w3.org/2000/svg" xml:space="preserve" enable-background="new 0 0 1025 1024" version="1.1">

 <g>
  <title>Layer 1</title>
  <path stroke="null" id="svg_1" d="m750.87526,1.19437c-62.4318,0 -113.51236,51.08056 -113.51236,113.51236c0,62.34298 51.08056,113.51236 113.51236,113.51236c62.4318,0 113.51236,-51.16939 113.51236,-113.51236c0,-62.4318 -51.08056,-113.51236 -113.51236,-113.51236zm0,45.40495c37.9557,0 68.10742,30.24026 68.10742,68.10742c0,37.86687 -30.15172,68.10742 -68.10742,68.10742c-37.86489,0 -68.10742,-30.24054 -68.10742,-68.10742c0,-37.86716 30.24253,-68.10742 68.10742,-68.10742zm-340.53425,113.51236c-11.79677,0 -22.88125,3.28107 -32.37089,8.51343c-2.21633,0.70945 -4.25671,1.77363 -6.20629,3.01517l-157.23307,112.98027c-2.74899,1.94957 -5.05471,4.52347 -6.65097,7.44925c-14.18905,12.50339 -24.56493,29.3543 -24.56493,49.66166c0,37.33422 30.77263,68.10742 68.10742,68.10742c11.08533,0 19.77612,-6.03034 28.999,-10.72976c4.7888,0.08797 9.57761,-1.4189 13.47959,-4.25671l126.81516,-91.16462l61.63438,19.50994l-96.84023,157.85313c-1.06418,1.77363 -1.95241,3.63523 -2.48308,5.58481c-9.93233,15.96268 -16.67213,34.32046 -17.73631,54.2731c-0.53351,0.70945 -0.97621,1.4189 -1.4189,2.12836l-74.05036,116.52895l-163.26284,0c-43.63131,0 -79.45865,35.82734 -79.45865,79.45865c0,43.63131 35.82734,79.45865 79.45865,79.45865l191.46357,0c36.71472,0 71.2991,-17.91509 92.58267,-47.88803l65.80312,-92.93825l107.39405,66.24581l-35.82734,184.01205c-0.26675,1.50971 -0.35473,3.10456 -0.35473,4.70225c-0.53351,3.45645 -1.06418,7.00371 -1.06418,10.72976c0,43.63131 35.82734,79.45865 79.45582,79.45865c33.08034,0 58.35387,-22.43572 70.23577,-51.43529c4.08077,-3.45929 6.83061,-8.07073 7.80397,-13.30365l0,-0.08797l46.02643,-242.18998c0.35473,-1.77363 0.4427,-3.63523 0.35473,-5.49684c0.17878,-1.59769 0.4427,-2.57106 0.4427,-5.32089c0,-16.58416 -7.00371,-30.94915 -16.7601,-42.65511c-1.33093,-3.19254 -3.36848,-5.94237 -5.85156,-8.1587l-109.61038,-97.10699l38.31042,-75.64464l31.92535,70.32375c0.70945,1.59485 1.59485,3.01375 2.57106,4.34469c11.61799,20.92884 33.87493,35.38464 59.41521,35.38464l158.91731,0c37.33705,0 68.10742,-30.7732 68.10742,-68.10742c0,-37.33422 -30.77036,-68.10742 -68.10742,-68.10742l-121.13756,0l-61.19168,-145.79244c-3.28051,-28.11134 -20.83803,-50.99202 -44.07401,-65.44697c-2.04038,-3.01517 -4.78738,-5.58708 -7.97992,-7.36071l-56.84699,-31.74799c-1.94957,-1.06418 -3.98996,-1.86217 -6.20629,-2.30572l-185.34299,-40.43878c-1.77363,-0.35473 -3.54726,-0.53209 -5.32089,-0.44327c-3.63807,-0.70945 -7.00655,-1.59627 -11.35124,-1.59627zm0,45.40495c1.4189,0 3.19254,0.2659 5.67562,0.88682c2.92578,0.70945 5.93953,0.88682 8.86815,0.53209l-3.54726,0.44327l178.07252,38.93133l46.20237,25.71623l-2.66186,-8.24611c2.04038,6.11775 6.56385,11.08391 12.50339,13.65781c16.05349,6.91574 27.31391,22.79044 27.31391,41.59093c0,7.89195 -2.12836,15.16525 -6.03034,22.08099c-3.10173,5.40886 -3.81118,11.70596 -2.12836,17.64833l-2.48308,-7.98276l-101.80356,201.39647c-4.70225,9.22288 -2.57389,20.39817 5.23008,27.22594l118.21177,104.91096l-1.77363,-4.87819c1.33093,3.36848 3.37132,6.47304 6.03034,8.86815c4.61144,4.34469 7.44925,10.0203 7.44925,16.67213c0,-0.4427 -0.08797,0.4427 -0.35473,3.19254c-0.53067,3.54726 -0.08797,7.18249 1.06418,10.55381l-1.8616,-5.32089l-41.32418,217.71104l18.70968,0c-10.9057,0 -20.30736,7.80397 -22.34775,18.53657c-2.92578,15.78389 -16.49335,27.75661 -33.34426,27.75661c-19.0644,0 -34.05087,-14.98647 -34.05087,-34.05371c0,-2.21633 0.26392,-4.4355 0.70945,-6.7398c0,-0.26675 0.08797,-0.53351 0.08797,-0.79742l38.57434,-198.64663c1.77363,-9.31369 -2.3043,-18.71251 -10.37503,-23.67868l-164.32617,-101.45167l2.21633,8.78018c-1.59485,-6.38507 -5.85156,-11.70596 -11.61515,-14.72255c-21.90505,-11.35124 -36.89152,-33.61101 -36.89152,-60.03669c0,-14.81053 4.78738,-28.29012 12.94608,-39.64135c3.98996,-5.58765 5.32089,-12.59136 3.45929,-19.24318l2.48308,9.22288l106.94851,-174.17053c3.63523,-5.94237 4.34752,-13.30365 1.95241,-19.77669c-2.48308,-6.56101 -7.80397,-11.61799 -14.4558,-13.74635l-100.12074,-31.74657c-6.82777,-2.21718 -14.27702,-0.97564 -20.04345,3.19254l-133.90826,96.21875c-1.33036,0.79742 -2.57191,1.59769 -3.72462,2.57106c-4.16817,3.54726 -8.95698,5.49967 -14.45523,5.49967c-12.85868,0 -22.70247,-9.84436 -22.70247,-22.70247c0,-8.33748 4.34554,-15.16525 10.99651,-19.15521c1.153,-0.79742 2.30572,-1.59769 3.28136,-2.57106c0.08854,-0.09081 0.17736,-0.17878 0.2659,-0.26675l150.66922,-108.01411l-4.25671,0.62063c3.01659,-0.44327 5.94237,-1.59627 8.60424,-3.28107c3.63523,-2.30572 7.62519,-3.54726 12.06069,-3.54726zm297.7032,174.87998l44.60468,106.32987c3.54726,8.42262 11.79677,13.92229 20.92884,13.92229l136.21484,0c12.86095,0 22.70247,9.84436 22.70247,22.70247c0,12.85811 -9.84152,22.70247 -22.70247,22.70247l-158.91731,0c-9.22288,0 -16.84807,-5.40886 -20.48331,-13.12487c-1.59769,-3.45929 -4.08077,-6.47304 -7.18533,-8.69221l4.34752,2.92862l-44.34077,-97.81644l24.83083,-48.95221zm-327.14547,220.55168c9.22288,14.80769 21.81424,27.40188 36.44598,37.24624c1.86444,3.10173 4.4355,5.76359 7.54006,7.62519l12.85811,7.98276l-64.20543,90.54314c-12.77014,18.00306 -33.43223,28.73282 -55.51521,28.73282l-191.46357,0c-19.06639,0 -34.05371,-14.98647 -34.05371,-34.05371c0,-19.06724 14.98732,-34.05371 34.05371,-34.05371l175.7668,0c7.80397,0 14.98732,-3.98996 19.15521,-10.55381l59.41805,-93.46892z"/>
 </g>
</svg>