<svg width="1025" height="1024" xmlns="http://www.w3.org/2000/svg" version="1.1" xml:space="preserve">
 <g>
  <title>Layer 1</title>
  <g stroke="null" id="svg_1">
   <path stroke="null" id="svg_2" d="m488.2547,973.25176c-269.65487,0 -487.27109,-217.61621 -487.27109,-487.27109s217.61621,-482.5403 487.27109,-482.5403s487.27109,217.61621 487.27109,487.27109s-222.347,482.5403 -487.27109,482.5403zm0,-898.84958c-227.07779,0 -416.30928,184.5007 -416.30928,416.30928s184.5007,416.30928 416.30928,416.30928s416.30928,-184.5007 416.30928,-416.30928s-189.23149,-416.30928 -416.30928,-416.30928z" class="st0"/>
   <path stroke="null" id="svg_3" d="m984.98737,1020.55963c-9.46157,0 -18.92315,-4.73079 -23.65394,-9.46157l-94.61575,-94.61575c-14.19236,-14.19236 -14.19236,-37.8463 0,-52.03866c14.19236,-14.19236 37.8463,-14.19236 52.03866,0l94.61575,94.61575c14.19236,14.19236 14.19236,37.8463 0,52.03866c-9.46157,4.73079 -18.92315,9.46157 -28.38472,9.46157z" class="st0"/>
  </g>
 </g>

</svg>