<svg width="1025" height="1024" xmlns="http://www.w3.org/2000/svg" version="1.1" xml:space="preserve">
 <title>Layer 1</title>

 <g>
  <title>Layer 1</title>
  <g stroke="null" id="svg_5">
   <path stroke="null" id="svg_1" fill="#000000" d="m750.92944,660.18982l-47.36928,0l-16.7847,-16.18886c71.9505,-83.94037 109.12305,-198.46196 88.7352,-320.17803c-28.17874,-166.68569 -167.28491,-299.79412 -335.16734,-320.17972c-253.6255,-31.17874 -467.07846,182.27422 -435.90029,435.89972c20.38616,167.88693 153.49458,306.98748 320.17972,335.17184c121.71663,20.38223 236.23934,-16.79032 320.17972,-88.74082l16.18886,16.79032l0,47.36366l254.82281,254.82843c24.58683,24.58121 64.75545,24.58121 89.34228,0c24.58121,-24.58683 24.58121,-64.75545 0,-89.34228l-254.22697,-255.42427zm-359.75249,0c-149.29728,0 -269.81437,-120.51708 -269.81437,-269.81324c0,-149.29728 120.51708,-269.81437 269.81437,-269.81437c149.29728,0 269.81437,120.51708 269.81437,269.81437c0,149.29616 -120.51708,269.81324 -269.81437,269.81324z" clip-rule="evenodd" fill-rule="evenodd"/>
  </g>
 </g>
</svg>