<svg width="1025" height="1024" xmlns="http://www.w3.org/2000/svg" version="1.1" xml:space="preserve">
 <title>Layer 1</title>

 <g>
  <title>Layer 1</title>
  <g stroke="null" id="svg_5">
   <path stroke="null" id="svg_1" fill="#000000" d="m154.33352,383.5963c0,-94.99295 37.73525,-186.09405 104.90445,-253.26356c67.1692,-67.1692 158.27154,-104.90445 253.26356,-104.90445c94.99203,0 186.09129,37.73525 253.25988,104.90445c67.17166,67.16951 104.90506,158.27062 104.90506,253.26356l0,52.95755c86.77977,12.43351 153.50014,87.0837 153.50014,177.29266l0,12.78963c-0.00614,22.18691 -4.4515,44.14971 -13.07514,64.58979c-8.62671,20.44315 -21.25363,38.9522 -37.14089,54.44036c-15.88726,15.48509 -34.71252,27.63617 -55.3675,35.73483c-20.65498,8.10174 -42.72216,11.98529 -64.90293,11.42655c-37.86234,108.47241 -134.15912,181.59066 -238.07872,200.11199c-24.04733,8.8017 -52.49705,4.65719 -77.51757,4.65719c-20.35412,0 -39.87627,-8.08639 -54.27151,-22.48163c-14.39217,-14.39217 -22.47856,-33.91432 -22.47856,-54.26844c0,-20.35719 8.08639,-39.87934 22.47856,-54.27151c14.39524,-14.39217 33.91739,-22.47856 54.27151,-22.47856l51.16774,0c25.32752,0 47.73854,12.28001 61.75618,31.16053c66.31206,-31.57191 117.3263,-98.24009 117.3263,-184.66067l0,-307.00028c0,-67.85259 -26.95462,-132.92467 -74.93263,-180.90268c-47.978,-47.97831 -113.04978,-74.93201 -180.89991,-74.93201c-67.8532,0 -132.92498,26.9537 -180.90298,74.93201c-47.978,47.978 -74.93171,113.05009 -74.93171,180.90268l0,319.78991c0,23.74954 -9.43381,46.52282 -26.22611,63.31574c-16.7923,16.79292 -39.56773,26.22703 -63.31574,26.22703c-44.10335,0 -86.40032,-17.52051 -117.58602,-48.70559c-31.1857,-31.18509 -48.70559,-73.48359 -48.70559,-117.58725l0,-12.78963c-0.01105,-43.07214 15.50137,-84.70445 43.69381,-117.26797c28.19276,-32.56045 67.17657,-53.87241 109.80632,-60.02469l0,-52.95755zm0,157.84726c-14.97025,5.29268 -27.93058,15.09827 -37.09454,28.06597c-9.16396,12.96769 -14.08057,28.45893 -14.07228,44.33698l0,12.78963c0,30.95791 22.00179,56.79505 51.16682,62.68025l0,-147.87282zm716.33296,0l0,147.87282c29.16503,-5.93432 51.16774,-31.72234 51.16774,-62.68025l0,-12.78963c0.00921,-15.87805 -4.90893,-31.36929 -14.07289,-44.33698c-9.16396,-12.96769 -22.12244,-22.77328 -37.09484,-28.06597z" clip-rule="evenodd" fill-rule="evenodd"/>
  </g>
 </g>
</svg>