<svg width="1025" height="1024" xmlns="http://www.w3.org/2000/svg" version="1.1" xml:space="preserve">
 <g>
  <title>Layer 1</title>
  <g stroke="null" id="svg_1">
   <path stroke="null" id="svg_2" d="m819.38636,784.78785l-505.79417,0c-45.46464,0 -90.92929,-17.04924 -125.02777,-56.83081c-34.09848,-34.09848 -45.46464,-79.56313 -45.46464,-130.71085l39.78156,-466.01261c0,-17.04924 0,-28.4154 -11.36616,-39.78156c-11.36616,-11.36616 -22.73232,-17.04924 -39.78156,-17.04924l-79.56313,0c-22.73232,0 -39.78156,-17.04924 -39.78156,-34.09848c0,-22.73232 17.04924,-39.78156 39.78156,-39.78156l79.56313,0c34.09848,0 68.19697,17.04924 90.92929,39.78156c11.36616,17.04924 22.73232,34.09848 28.4154,51.14773l591.04038,0c45.46464,0 90.92929,17.04924 125.02777,51.14773c34.09848,34.09848 45.46464,79.56313 45.46464,125.02777l-28.4154,358.03408c-5.68308,90.92929 -79.56313,159.12626 -164.80934,159.12626zm-568.30806,-619.45578l-34.09848,443.28028c0,28.4154 5.68308,51.14773 22.73232,73.88005c17.04924,22.73232 45.46464,34.09848 73.88005,34.09848l505.79417,0c51.14773,0 90.92929,-39.78156 96.61237,-90.92929l28.4154,-358.03408c0,-28.4154 -5.68308,-56.83081 -28.4154,-73.88005c-17.04924,-17.04924 -45.46464,-28.4154 -73.88005,-28.4154l-591.04038,0l0,0z"/>
   <path stroke="null" id="svg_3" d="m722.77399,1023.47724c-51.14773,0 -96.61237,-45.46464 -96.61237,-96.61237c0,-51.14773 45.46464,-96.61237 96.61237,-96.61237c51.14773,0 96.61237,45.46464 96.61237,96.61237c0,51.14773 -39.78156,96.61237 -96.61237,96.61237zm0,-119.34469c-11.36616,0 -22.73232,11.36616 -22.73232,22.73232c0,11.36616 11.36616,22.73232 22.73232,22.73232c11.36616,0 22.73232,-11.36616 22.73232,-22.73232c5.68308,-11.36616 -5.68308,-22.73232 -22.73232,-22.73232z"/>
   <path stroke="null" id="svg_4" d="m347.69067,1023.47724c-51.14773,0 -96.61237,-45.46464 -96.61237,-96.61237c0,-51.14773 45.46464,-96.61237 96.61237,-96.61237s96.61237,45.46464 96.61237,96.61237c-5.68308,51.14773 -45.46464,96.61237 -96.61237,96.61237zm0,-119.34469c-11.36616,0 -22.73232,11.36616 -22.73232,22.73232c0,11.36616 11.36616,22.73232 22.73232,22.73232c11.36616,0 22.73232,-11.36616 22.73232,-22.73232c0,-11.36616 -11.36616,-22.73232 -22.73232,-22.73232z"/>
   <path stroke="null" id="svg_5" d="m950.09721,358.55681l-568.30806,0c-17.04924,0 -34.09848,-17.04924 -34.09848,-34.09848c0,-22.73232 17.04924,-39.78156 34.09848,-39.78156l568.30806,0c17.04924,0 34.09848,17.04924 34.09848,34.09848c0,22.73232 -17.04924,39.78156 -34.09848,39.78156z"/>
  </g>
 </g>

</svg>