<svg width="1025" height="1024" xmlns="http://www.w3.org/2000/svg" version="1.1" xml:space="preserve">
 <g>
  <title>Layer 1</title>
  <g stroke="null" id="svg_1">
   <path stroke="null" id="svg_2" d="m723.9906,1022.26362l-427.59518,0c-82.6684,0 -142.53173,-22.80508 -179.58998,-65.56459c-37.05825,-42.75952 -54.16206,-105.47348 -42.75952,-188.14188l42.75952,-356.32932c11.40254,-105.47348 39.90888,-199.54442 225.20013,-199.54442l342.07615,0c185.29125,0 210.94696,94.07094 225.20013,199.54442l42.75952,356.32932c8.5519,82.6684 -5.70127,145.38236 -42.75952,188.14188c-42.75952,45.61015 -102.62284,65.56459 -185.29125,65.56459zm-384.83566,-735.46372c-136.83046,0 -142.53173,54.16206 -153.93427,136.83046l-42.75952,356.32932c-5.70127,59.86333 2.85063,102.62284 25.65571,131.12919c22.80508,25.65571 68.41523,39.90888 128.27855,39.90888l427.59518,0c59.86333,0 102.62284,-14.25317 128.27855,-39.90888c25.65571,-28.50635 31.35698,-71.26586 25.65571,-131.12919l-42.75952,-356.32932c-11.40254,-82.6684 -17.10381,-136.83046 -153.93427,-136.83046l-342.07615,0z"/>
   <path stroke="null" id="svg_3" d="m701.18552,358.06577c-19.95444,0 -37.05825,-17.10381 -37.05825,-37.05825l0,-165.3368c0,-51.31142 -31.35698,-82.6684 -82.6684,-82.6684l-142.53173,0c-51.31142,0 -82.6684,31.35698 -82.6684,82.6684l0,165.3368c0,19.95444 -17.10381,37.05825 -37.05825,37.05825s-37.05825,-17.10381 -37.05825,-37.05825l0,-165.3368c0,-91.22031 62.71396,-153.93427 153.93427,-153.93427l142.53173,0c91.22031,0 153.93427,62.71396 153.93427,153.93427l0,165.3368c2.85063,19.95444 -11.40254,37.05825 -31.35698,37.05825z"/>
   <path stroke="null" id="svg_4" d="m909.28184,785.66095l-590.08135,0c-19.95444,0 -37.05825,-17.10381 -37.05825,-37.05825c0,-19.95444 17.10381,-37.05825 37.05825,-37.05825l590.08135,0c19.95444,0 37.05825,17.10381 37.05825,37.05825c0,22.80508 -17.10381,37.05825 -37.05825,37.05825z"/>
  </g>
 </g>

</svg>