<svg width="1025" height="1024" xmlns="http://www.w3.org/2000/svg" version="1.1" xml:space="preserve">
 <g>
  <title>Layer 1</title>
  <g stroke="null" id="svg_1">
   <path stroke="null" id="svg_2" d="m642.31122,1022.68594l-256.76946,0c-233.94551,0 -333.8003,-99.85479 -333.8003,-333.8003l0,-213.97455c0,-19.97096 17.11796,-37.08892 37.08892,-37.08892c19.97096,0 37.08892,17.11796 37.08892,37.08892l0,213.97455c0,194.00359 68.47186,262.47545 262.47545,262.47545l256.76946,0c194.00359,0 262.47545,-68.47186 262.47545,-262.47545l0,-213.97455c0,-19.97096 17.11796,-37.08892 37.08892,-37.08892c19.97096,0 37.08892,17.11796 37.08892,37.08892l0,213.97455c-5.70599,233.94551 -105.56078,333.8003 -339.50629,333.8003z"/>
   <path stroke="null" id="svg_3" d="m513.92649,549.08894c-51.35389,0 -99.85479,-19.97096 -134.09072,-57.05988s-48.5009,-85.58982 -45.6479,-139.79671l31.38293,-316.68234c2.85299,-17.11796 17.11796,-31.38293 34.23593,-31.38293l222.53353,0c17.11796,0 34.23593,14.26497 37.08892,31.38293l31.38293,316.68234c5.70599,51.35389 -11.41198,99.85479 -45.6479,139.79671c-31.38293,34.23593 -79.88383,57.05988 -131.23772,57.05988zm-77.03084,-476.45l-28.52994,285.2994c-2.85299,31.38293 5.70599,62.76587 25.67695,82.73683c39.94192,45.6479 122.67874,45.6479 162.62066,0c19.97096,-22.82395 28.52994,-51.35389 25.67695,-82.73683l-28.52994,-285.2994l-156.91467,0z"/>
   <path stroke="null" id="svg_4" d="m813.49086,549.08894c-97.0018,0 -182.59162,-77.03084 -194.00359,-174.03263l-31.38293,-333.8003c0,-11.41198 2.85299,-19.97096 8.55898,-28.52994c5.70599,-8.55898 17.11796,-11.41198 25.67695,-11.41198l145.50269,0c139.79671,0 205.41557,57.05988 225.38653,202.56257l14.26497,131.23772c5.70599,57.05988 -11.41198,108.41377 -48.5009,148.35569c-37.08892,42.79491 -88.44281,65.61886 -145.50269,65.61886zm-151.20868,-476.45l28.52994,293.85838c5.70599,59.91287 59.91287,111.26677 122.67874,111.26677c37.08892,0 68.47186,-14.26497 91.29581,-39.94192c22.82395,-25.67695 34.23593,-59.91287 28.52994,-94.1488l-14.26497,-131.23772c-14.26497,-108.41377 -48.5009,-139.79671 -154.06168,-139.79671l-102.70778,0l0,0z"/>
   <path stroke="null" id="svg_5" d="m211.50912,549.08894c-57.05988,0 -108.41377,-22.82395 -145.50269,-62.76587c-37.08892,-39.94192 -54.20689,-94.1488 -48.5009,-148.35569l14.26497,-131.23772c19.97096,-145.50269 85.58982,-202.56257 225.38653,-202.56257l145.50269,0c11.41198,0 19.97096,5.70599 25.67695,11.41198s11.41198,17.11796 8.55898,28.52994l-34.23593,333.8003c-8.55898,91.29581 -94.1488,171.17964 -191.1506,171.17964zm45.6479,-476.45c-105.56078,0 -139.79671,31.38293 -154.06168,139.79671l-11.41198,128.38473c-2.85299,37.08892 8.55898,68.47186 31.38293,94.1488c22.82395,25.67695 54.20689,39.94192 91.29581,39.94192c59.91287,0 116.97275,-51.35389 122.67874,-111.26677l28.52994,-293.85838l-108.41377,0l0,2.85299z"/>
   <path stroke="null" id="svg_6" d="m633.75224,1022.68594l-236.7985,0c-19.97096,0 -37.08892,-17.11796 -37.08892,-37.08892l0,-119.82575c0,-99.85479 54.20689,-154.06168 154.06168,-154.06168s154.06168,54.20689 154.06168,154.06168l0,119.82575c0,19.97096 -14.26497,37.08892 -34.23593,37.08892zm-202.56257,-71.32485l165.47365,0l0,-82.73683c0,-59.91287 -22.82395,-82.73683 -82.73683,-82.73683s-82.73683,22.82395 -82.73683,82.73683l0,82.73683z"/>
  </g>
 </g>

</svg>