<svg width="1025" height="1024" xmlns="http://www.w3.org/2000/svg" version="1.1" xml:space="preserve">
 <g>
  <title>Layer 1</title>
  <g stroke="null" id="svg_1">
   <path stroke="null" id="svg_2" d="m1023.30003,822.78011c0,0 -5.21225,-5.21225 0,0c0,-5.21225 0,-10.42449 -5.21225,-15.63674c0,-5.21225 -5.21225,-10.42449 -5.21225,-10.42449c0,0 0,0 0,0c-5.21225,-5.21225 -10.42449,-5.21225 -10.42449,-10.42449c-5.21225,0 -10.42449,-5.21225 -15.63674,-5.21225l-244.97552,0c0,0 0,0 0,0c-31.27347,0 -62.54694,-15.63674 -78.18368,-41.69796l-62.54694,-83.39592c-15.63674,-15.63674 -36.48572,-20.84898 -57.3347,-5.21225s-20.84898,36.48572 -5.21225,57.3347l62.54694,83.39592c31.27347,41.69796 88.60817,67.75919 140.73062,67.75919l0,0l151.15511,0l-36.48572,36.48572c-15.63674,15.63674 -15.63674,41.69796 0,57.3347c5.21225,10.42449 15.63674,10.42449 26.06123,10.42449s20.84898,-5.21225 26.06123,-10.42449l104.2449,-104.2449c5.21225,-5.21225 5.21225,-5.21225 10.42449,-10.42449c-5.21225,-5.21225 0,-10.42449 0,-15.63674z" class="st0"/>
   <path stroke="null" id="svg_3" d="m324.85918,233.79641c-31.27347,-46.91021 -88.60817,-72.97143 -145.94286,-72.97143c0,0 0,0 0,0l-135.51837,0c-20.84898,0 -36.48572,15.63674 -36.48572,36.48572c0,20.84898 15.63674,41.69796 41.69796,41.69796l135.51837,0l0,0c31.27347,0 62.54694,15.63674 83.39592,41.69796l57.3347,78.18368c10.42449,10.42449 20.84898,15.63674 31.27347,15.63674c5.21225,0 15.63674,-5.21225 20.84898,-5.21225c15.63674,-15.63674 15.63674,-41.69796 5.21225,-57.3347l-57.3347,-78.18368z" class="st0"/>
   <path stroke="null" id="svg_4" d="m1018.08779,202.52294c0,0 5.21225,-5.21225 0,0c0,-10.42449 0,-15.63674 0,-15.63674c0,-5.21225 -5.21225,-10.42449 -10.42449,-10.42449l-104.2449,-104.2449c-15.63674,-15.63674 -41.69796,-15.63674 -57.3347,0c-15.63674,15.63674 -15.63674,41.69796 0,57.3347l36.48572,36.48572l-140.73062,0c0,0 0,0 0,0c-62.54694,0 -114.66939,31.27347 -151.15511,78.18368l-333.58369,500.37553c-20.84898,26.06123 -52.12245,46.91021 -83.39592,46.91021l0,0l-130.30613,0c-20.84898,0 -41.69796,15.63674 -41.69796,41.69796c0,20.84898 15.63674,41.69796 41.69796,41.69796l135.51837,0c0,0 0,0 0,0c62.54694,0 114.66939,-31.27347 151.15511,-78.18368l333.58369,-500.37553c20.84898,-26.06123 52.12245,-46.91021 83.39592,-46.91021l0,0l234.55103,0c5.21225,0 10.42449,0 15.63674,-5.21225c5.21225,0 10.42449,-5.21225 10.42449,-10.42449c0,0 0,0 0,0c5.21225,-5.21225 5.21225,-5.21225 5.21225,-10.42449c5.21225,-15.63674 5.21225,-15.63674 5.21225,-20.84898z" class="st0"/>
  </g>
 </g>

</svg>