<svg width="1025" height="1024" xmlns="http://www.w3.org/2000/svg" version="1.1" xml:space="preserve">
 <g>
  <title>Layer 1</title>
  <g stroke="null" id="svg_3">
   <path stroke="null" id="svg_1" fill="#000" d="m398.59576,633.39871l227.80632,0c26.17845,0.36318 51.43435,-9.66887 70.22805,-27.89665c18.7937,-18.2285 29.58713,-43.16425 30.0247,-69.34197l0,-227.28415l8.6858,6.55409c12.58748,9.35747 28.17232,13.74631 43.78633,12.32712c15.62131,-1.41919 30.16327,-8.5465 40.84731,-20.0189l65.71596,-72.16868c5.40401,-5.88315 9.57552,-12.79095 12.26659,-20.31499c2.69107,-7.52331 3.84334,-15.51045 3.39118,-23.48738c-0.45216,-7.97766 -2.50145,-15.78321 -6.0239,-22.95573c-3.52245,-7.1718 -8.44513,-13.56472 -14.47633,-18.80026l-118.93925,-104.40895c-32.81787,-28.65802 -74.94142,-44.38799 -118.50897,-44.25161l-21.5081,0c-3.19281,-0.00146 -6.355,0.62573 -9.30496,1.84655c-2.94996,1.22155 -5.63082,3.01195 -7.88869,5.26982c-2.25787,2.25714 -4.04827,4.938 -5.26909,7.88796c-1.22082,2.95069 -1.84874,6.11215 -1.84655,9.30569c0,22.56484 -8.96438,44.2064 -24.92043,60.16244c-15.95605,15.95678 -37.59761,24.92043 -60.16317,24.92043c-22.56557,0 -44.2064,-8.96365 -60.16317,-24.92043c-15.95605,-15.95605 -24.9197,-37.59761 -24.9197,-60.16244c0.00146,-3.19354 -0.62573,-6.355 -1.84728,-9.30569c-1.22082,-2.94996 -3.01122,-5.63082 -5.26909,-7.88796c-2.25787,-2.25787 -4.938,-4.04827 -7.88869,-5.26982c-2.94996,-1.22082 -6.11215,-1.84801 -9.30496,-1.84655l-21.5081,0c-43.56681,-0.13638 -85.69329,15.59359 -118.50897,44.25161l-118.93633,104.40749c-6.03411,5.23554 -10.95679,11.62774 -14.47851,18.79953c-3.52099,7.17107 -5.56956,14.97516 -6.02317,22.95136c-0.45362,7.9762 0.69647,15.96261 3.3817,23.48665c2.68523,7.52404 6.85237,14.4333 12.25346,20.32009l65.73273,72.16941c10.69206,11.47459 25.23986,18.60408 40.8597,20.02328c15.61985,1.41992 31.21417,-2.97038 43.79946,-12.33004l8.66465,-6.5519l0,227.28197c0.43611,26.17772 11.23392,51.11419 30.02762,69.34197c18.79297,18.22777 44.04741,28.25983 70.22586,27.89665zm-138.18948,-356.80899c-2.87849,2.15431 -6.44543,3.17896 -10.02768,2.88214c-3.58298,-0.29755 -6.93186,-1.89687 -9.41508,-4.49605l-65.75971,-72.16941c-1.03267,-1.0932 -1.8327,-2.38549 -2.35049,-3.79739c-0.51852,-1.4119 -0.74387,-2.91423 -0.66365,-4.41656c0.09772,-1.54244 0.50831,-3.04842 1.20551,-4.4275c0.69793,-1.37908 1.66861,-2.60209 2.8537,-3.59465l118.9356,-104.40895c23.77108,-20.75767 54.26106,-32.19506 85.81945,-32.19141c5.68551,30.72336 21.95005,58.48655 45.97054,78.46971c24.01976,19.98244 54.27857,30.92391 85.52409,30.92391c31.24553,0 61.50433,-10.94148 85.52482,-30.92391c24.01976,-19.98316 40.2843,-47.74635 45.96981,-78.46971c31.56058,-0.00365 62.05202,11.43375 85.81945,32.19141l118.93195,104.40749c1.18874,0.99183 2.15869,2.21484 2.8588,3.59392c0.69282,1.37908 1.10851,2.88578 1.20332,4.42822c0.08022,1.50379 -0.14586,3.0083 -0.67094,4.42093c-0.51779,1.41263 -1.3273,2.70346 -2.37018,3.79229l-65.73054,72.1716c-2.47957,2.60063 -5.8197,4.20142 -9.4005,4.49897c-3.58079,0.29755 -7.147,-0.72929 -10.02039,-2.88506l-47.62237,-35.9414c-3.60997,-2.71805 -7.90546,-4.37572 -12.40515,-4.78849c-4.49969,-0.41205 -9.02856,0.43757 -13.0761,2.45405c-4.04024,2.01648 -7.44601,5.11959 -9.82348,8.96147c-2.38477,3.84261 -3.64643,8.27156 -3.64643,12.79168l0,276.09308c-0.43028,13.28613 -6.09683,25.86194 -15.77446,34.97437c-9.67981,9.11316 -22.57432,14.01906 -35.86118,13.64494l-227.80924,0c-13.28759,0.37412 -26.18209,-4.53178 -35.85899,-13.64494c-9.67762,-9.11243 -15.35001,-21.68823 -15.77446,-34.97437l0,-276.09308c-0.00365,-4.51939 -1.26604,-8.94907 -3.64643,-12.79095c-2.37966,-3.84261 -5.78251,-6.94572 -9.82786,-8.9622c-4.04462,-2.01648 -8.5713,-2.86609 -13.07245,-2.45405c-4.50042,0.41278 -8.79738,2.07044 -12.4088,4.78849l-47.60049,35.9414zm755.46878,558.40696c2.26079,2.25349 4.04754,4.93727 5.27274,7.88358c1.21791,2.95361 1.85239,6.11142 1.85239,9.30569c0,3.18698 -0.63448,6.35208 -1.85239,9.2984c-1.2252,2.94632 -3.01195,5.63009 -5.27274,7.88358l-145.85719,145.85719c-4.57992,4.43406 -10.7205,6.87717 -17.09446,6.82612c-6.37396,-0.05834 -12.47079,-2.61084 -16.97778,-7.11783c-4.50699,-4.50699 -7.06678,-10.60382 -7.12512,-16.97778c-0.05105,-6.37396 2.39935,-12.51455 6.82612,-17.10176l104.36082,-104.36082l-855.01631,0l104.36082,104.36082c2.32132,2.23891 4.1737,4.92268 5.44777,7.89087c1.27406,2.96819 1.94428,6.15517 1.97272,9.38591c0.02771,3.22344 -0.58708,6.42501 -1.80936,9.41508c-1.22228,2.98278 -3.028,5.70302 -5.30993,7.98568c-2.28267,2.28267 -4.99707,4.084 -7.98422,5.3092c-2.98788,1.21791 -6.18872,1.8378 -9.41654,1.80863c-3.22782,-0.02917 -6.41772,-0.70011 -9.38372,-1.97636c-2.96601,-1.26896 -5.64832,-3.12134 -7.89087,-5.44777l-145.85719,-145.85719c-2.25714,-2.25349 -4.04827,-4.93727 -5.26982,-7.88358c-1.22228,-2.94632 -1.85093,-6.11142 -1.85093,-9.2984c0,-3.19427 0.62864,-6.35208 1.85093,-9.30569c1.22155,-2.94632 3.01268,-5.63009 5.26982,-7.88358l145.85719,-145.85719c4.58502,-4.42677 10.72561,-6.87717 17.09957,-6.82612c6.37396,0.05834 12.47079,2.61814 16.97851,7.12512c4.50699,4.50699 7.06313,10.60382 7.11856,16.97778c0.05543,6.37396 -2.39498,12.51455 -6.82247,17.09446l-104.36082,104.36082l855.01631,0l-104.36082,-104.35353c-4.42677,-4.58721 -6.87717,-10.7278 -6.82612,-17.10176c0.05834,-6.37396 2.61084,-12.47079 7.11783,-16.97778c4.51428,-4.50699 10.61111,-7.06678 16.98507,-7.11783c6.37396,-0.05834 12.51455,2.39206 17.09446,6.81882l145.85719,145.85719z"/>
  </g>
 </g>

</svg>