<svg width="1025" height="1024" xmlns="http://www.w3.org/2000/svg" version="1.1" enable-background="new 0 0 1025 1024" xml:space="preserve">
 <g>
  <title>Layer 1</title>
  <g stroke="null" id="svg_4">
   <path stroke="null" id="svg_1" d="m745.78872,962.0823l-471.29035,0c-174.37743,0 -273.3484,-98.97097 -273.3484,-273.3484l0,-329.90325c0,-174.37743 98.97097,-273.3484 273.3484,-273.3484l329.90325,0c18.85161,0 37.70323,14.13871 37.70323,37.70323s-18.85161,37.70323 -37.70323,37.70323l-329.90325,0c-136.6742,0 -202.65485,65.98065 -202.65485,202.65485l0,329.90325c0,136.6742 65.98065,202.65485 202.65485,202.65485l471.29035,0c136.6742,0 202.65485,-65.98065 202.65485,-202.65485l0,-235.64518c0,-18.85161 14.13871,-37.70323 37.70323,-37.70323s37.70323,14.13871 37.70323,37.70323l0,235.64518c-4.7129,164.95162 -108.39678,268.6355 -278.06131,268.6355z"/>
   <path stroke="null" id="svg_2" d="m510.14354,566.1984c-37.70323,0 -80.11936,-14.13871 -108.39678,-37.70323l-150.81291,-117.82259c-14.13871,-14.13871 -18.85161,-32.99032 -4.7129,-47.12904c14.13871,-14.13871 32.99032,-18.85161 47.12904,-4.7129l146.10001,117.82259c37.70323,28.27742 94.25807,28.27742 131.9613,0l56.55484,-42.41613c14.13871,-14.13871 37.70323,-9.42581 51.84194,4.7129c14.13871,14.13871 9.42581,37.70323 -4.7129,51.84194l-56.55484,42.41613c-28.27742,18.85161 -70.69355,32.99032 -108.39678,32.99032z"/>
   <path stroke="null" id="svg_3" d="m863.61131,372.96936c-84.83226,0 -155.52582,-70.69355 -155.52582,-155.52582s70.69355,-155.52582 155.52582,-155.52582s155.52582,70.69355 155.52582,155.52582s-70.69355,155.52582 -155.52582,155.52582zm0,-235.64518c-47.12904,0 -84.83226,37.70323 -84.83226,84.83226s37.70323,84.83226 84.83226,84.83226s84.83226,-37.70323 84.83226,-84.83226s-37.70323,-84.83226 -84.83226,-84.83226z" class="st0"/>
  </g>
 </g>

</svg>