<svg width="1025" height="1024" xmlns="http://www.w3.org/2000/svg" version="1.1" xml:space="preserve">
 <g>
  <title>Layer 1</title>
  <g stroke="null" id="svg_3">
   <path stroke="null" id="svg_1" fill="#000" d="m934.16189,157.51157c-0.3072,-0.06144 -0.6144,-0.12288 -0.9216,-0.18432c0,0 -383.05708,-75.40736 -429.83255,-75.40736c-76.55467,0 -134.26774,116.40832 -134.26774,270.78635c0,85.78987 17.85813,159.76534 46.83733,208.65067c-30.06507,-5.55093 -63.0784,-8.3968 -95.47734,-8.3968c-74.93547,0 -142.92992,9.76853 -183.56225,26.2144c-0.26624,0 -0.49152,0 -0.75776,0c-67.42016,0 -135.68,25.02613 -135.68,72.88747c0,45.056 60.47744,69.87734 123.82208,72.64214c17.05984,31.6416 57.40544,52.67627 104.01792,52.67627c33.40373,0 64.3072,-11.10187 85.32054,-29.86027c29.3056,18.71787 73.80907,29.86027 122.03947,29.86027c90.48107,0 158.72,-36.98773 158.72,-86.016c0,-30.26987 -33.56587,-38.97387 -63.73334,-46.3872c1.4528,-3.11467 2.29333,-6.4512 2.29333,-10.09707c0,-5.67253 -1.47413,-10.99733 -3.82933,-16.09813c0.67627,-0.24533 404.88961,-70.79894 404.88961,-70.79894c54.96747,-12.00213 90.45974,-88.63787 90.45974,-195.25547c0,-107.9104 -34.6112,-182.70273 -90.33814,-195.21601zm-430.75415,425.02081c-44.1344,0 -93.30774,-94.39147 -93.30774,-229.82614c0,-135.43467 49.17333,-229.82635 93.30774,-229.82635c44.11307,0 93.3056,94.39168 93.3056,229.82635c0,135.43467 -49.1712,229.82614 -93.3056,229.82614zm-175.22774,236.66774c-21.72587,0 -42.56427,6.47253 -57.9264,17.99467c-15.36213,11.52213 -23.9936,27.15093 -23.9936,43.44533c0,16.2944 8.63147,31.92107 23.9936,43.44533c15.36213,11.52213 36.20053,17.99467 57.9264,17.99467c21.72587,0 42.56213,-6.47253 57.9264,-17.99467c15.36213,-11.52427 23.9936,-27.15093 23.9936,-43.44533c0,-16.2944 -8.63147,-31.9232 -23.9936,-43.44533c-15.36427,-11.52213 -36.20053,-17.99467 -57.9264,-17.99467z"/>
  </g>
 </g>

</svg>