<svg width="1025" height="1024" xmlns="http://www.w3.org/2000/svg" xml:space="preserve" version="1.1">
 <g>
  <title>Layer 1</title>
  <g stroke="null" id="svg_3">
   <path stroke="null" id="svg_1" fill="#000000" d="m512.5008,61.57535c-11.27767,0 -20.47384,9.19723 -20.47384,20.47384l0,122.84303c0,11.27597 9.19617,20.47426 20.47384,20.47426c11.27554,0 20.47384,-9.1983 20.47384,-20.47426l0,-122.84303c0,-11.27661 -9.1983,-20.47384 -20.47384,-20.47384zm-217.53453,57.58267c-2.64027,0.3199 -5.1995,1.11966 -7.67769,2.55923c-9.75706,5.67829 -13.35705,18.31449 -7.67769,28.15153l61.42151,106.20846c3.7578,6.55803 10.79568,10.23692 17.91461,10.23692c3.4379,0 7.03788,-0.72085 10.23692,-2.55923c9.75706,-5.67936 13.35491,-18.31555 7.67769,-28.15153l-61.42151,-106.20846c-4.23979,-7.35779 -12.55729,-11.19663 -20.47384,-10.23692zm435.06906,0c-7.91868,-0.95971 -16.23618,2.87913 -20.47384,10.23692l-61.42151,106.20846c-5.67936,9.75706 -2.16042,22.47217 7.67769,28.15153c3.19904,1.83838 6.71798,2.55923 10.23692,2.55923c7.11679,0 14.15467,-3.67889 17.91461,-10.23692l61.42151,-106.20846c5.67722,-9.75706 2.15828,-22.47324 -7.67769,-28.15153c-2.48032,-1.43957 -5.03955,-2.23933 -7.67769,-2.55923zm-706.34826,88.93323c-7.91762,-0.95971 -16.23511,2.87913 -20.47384,10.23735c-5.67829,9.75706 -2.15935,21.83236 7.67769,27.51172l279.5967,161.23147c-15.11652,31.83042 -23.67288,67.33973 -23.67288,104.92842c0,135.47922 110.20683,245.68606 245.68606,245.68606c83.33492,0 157.15164,-41.90739 201.53934,-105.56823l279.59585,161.23147c3.19904,1.83838 6.71798,2.55923 10.23692,2.55923c7.11679,0 14.15467,-3.67889 17.91461,-10.23692c5.67722,-9.75706 2.15828,-21.8345 -7.67769,-27.51172l-982.74507,-567.50962c-2.47925,-1.43957 -5.03848,-2.23933 -7.67769,-2.55923zm488.81373,58.2229c-69.50015,0 -132.52118,28.95129 -177.22666,75.49728l413.3156,238.64817c6.31703,-21.75345 9.59711,-44.70761 9.59711,-68.4594c0,-135.47922 -110.20683,-245.68606 -245.68606,-245.68606zm369.8087,10.23692c-2.64027,0.3199 -5.1995,1.11966 -7.67769,2.55923l-106.20803,61.42151c-9.75706,5.67722 -13.35705,18.31342 -7.67769,28.15153c3.7578,6.55803 10.79568,10.23692 17.91461,10.23692c3.51894,0 7.03788,-0.72085 10.23692,-2.55923l106.20803,-61.42151c9.75706,-5.67936 13.35491,-18.31555 7.67769,-28.15153c-4.23979,-7.35779 -12.55729,-11.19663 -20.47384,-10.23692zm-799.76015,214.9753c-11.27661,0 -20.47384,9.19617 -20.47384,20.47384c0,11.27554 9.19723,20.47384 20.47384,20.47384l122.84303,0c11.27639,0 20.47469,-9.1983 20.47469,-20.47384c0,-11.27767 -9.1983,-20.47384 -20.47469,-20.47384l-122.84303,0zm737.05902,0c-11.35658,0 -20.47384,9.19617 -20.47384,20.47384c0,11.27554 9.11726,20.47384 20.47384,20.47384l122.84303,0c11.35658,0 20.47384,-9.1983 20.47384,-20.47384c0,-11.27767 -9.11726,-20.47384 -20.47384,-20.47384l-122.84303,0zm-575.82669,153.55378c-2.64027,0.3199 -5.1995,1.11966 -7.67769,2.55923l-106.20889,61.42151c-9.75706,5.67722 -13.35598,18.31342 -7.67769,28.15153c3.75887,6.55803 10.79675,10.23692 17.91461,10.23692c3.43896,0 7.03788,-0.72085 10.23692,-2.55923l106.20889,-61.42151c9.75706,-5.67936 13.35491,-18.31555 7.67769,-28.15153c-4.23979,-7.35779 -12.55729,-11.19663 -20.47384,-10.23692zm117.72457,112.60611c-7.91868,-0.95971 -16.23618,2.87913 -20.47384,10.23692l-61.42151,106.20803c-5.67936,9.75706 -2.07937,22.47217 7.67769,28.15153c3.19904,1.83838 6.79689,2.55923 10.23692,2.55923c7.11679,0 14.15467,-3.67889 17.91461,-10.23692l61.42151,-106.20803c5.67722,-9.75706 2.07937,-22.4743 -7.67769,-28.15153c-2.48032,-1.43957 -5.03955,-2.23933 -7.67769,-2.55923zm301.98911,0c-2.64027,0.3199 -5.27841,1.11966 -7.67769,2.55923c-9.75706,5.67722 -13.35705,18.31342 -7.67769,28.15153l61.42151,106.20803c3.7578,6.55803 10.79568,10.23692 17.91461,10.23692c3.51894,0 7.03788,-0.72085 10.23692,-2.55923c9.75706,-5.67936 13.35491,-18.31555 7.67769,-28.15153l-61.42151,-106.20803c-4.23979,-7.35779 -12.55729,-11.19663 -20.47384,-10.23692zm-150.99455,40.94768c-11.27767,0 -20.47384,9.11726 -20.47384,20.47384l0,122.84303c0,11.35658 9.19617,20.47384 20.47384,20.47384c11.27554,0 20.47384,-9.11726 20.47384,-20.47384l0,-122.84303c0,-11.35658 -9.1983,-20.47384 -20.47384,-20.47384z"/>
  </g>
 </g>

</svg>