<svg width="1025" height="1024" xmlns="http://www.w3.org/2000/svg" version="1.1" enable-background="new 0 0 1025 1024" xml:space="preserve">
 <g>
  <title>Layer 1</title>
  <path stroke="null" id="svg_1" d="m484.51128,479.855l0,21.54272l60.13334,0c9.41588,0 17.05003,7.63415 17.05003,17.05003c0,9.41588 -7.63415,17.05003 -17.05003,17.05003l-77.18338,0c-9.41588,0 -17.05003,-7.63415 -17.05003,-17.05003l0,-38.59275c0,-30.68154 24.96125,-55.64066 55.64066,-55.64066c11.87748,0 21.54059,-9.66311 21.54059,-21.54059c0,-11.87748 -9.66311,-21.54059 -21.54059,-21.54059l-38.59062,0c-9.41588,0 -17.05003,-7.63415 -17.05003,-17.05003c0,-9.41588 7.63415,-17.05003 17.05003,-17.05003l38.59062,0c30.68154,0 55.64066,24.96125 55.64066,55.64066c0,30.67941 -24.96125,55.64066 -55.64066,55.64066c-11.87748,0 -21.54059,9.66311 -21.54059,21.54059zm214.49583,55.64279c9.41588,0 17.05003,-7.63415 17.05003,-17.05003l0,-154.36675c0,-9.41588 -7.63415,-17.05003 -17.05003,-17.05003c-9.41588,0 -17.05003,7.63415 -17.05003,17.05003l0,60.13121l-43.08118,0l0,-60.13121c0,-9.41588 -7.63415,-17.05003 -17.05003,-17.05003c-9.41588,0 -17.05003,7.63415 -17.05003,17.05003l0,77.18124c0,9.41588 7.63415,17.05003 17.05003,17.05003l60.13121,0l0,60.13547c0,9.41801 7.63415,17.05003 17.05003,17.05003zm324.99284,-88.61969c0,-246.13387 -200.24413,-446.37843 -446.38057,-446.37843c-105.53545,0 -207.93796,37.51008 -288.35019,105.62092c-7.18446,6.08473 -8.07532,16.84543 -1.99059,24.02989c6.0826,7.18659 16.8433,8.07745 24.02989,1.99059c74.26143,-62.89971 168.8401,-97.54133 266.31089,-97.54133c227.33238,0 412.27836,184.94599 412.27836,412.27836c0,141.58562 -71.36292,271.62837 -190.89858,347.86546c-10.2151,6.51524 -10.54758,21.3232 -0.67987,28.29666c0.53281,0.73955 1.11038,1.45352 1.77533,2.11847c38.73981,38.73768 27.89386,104.10112 -21.26779,127.75165c-141.4684,68.05948 -311.14182,39.15754 -422.21214,-71.91278l-213.11158,-213.11478c-111.07266,-111.07245 -139.97269,-280.748 -71.91513,-422.21427c23.65053,-49.16122 89.02271,-59.99865 127.75186,-21.26779l80.43034,80.42928c23.7848,23.78693 29.85461,60.53615 15.1042,91.44786c-38.76325,81.2285 -22.03078,178.58206 41.63832,242.25116l49.45576,49.45576c63.78844,63.78844 161.17611,80.35255 242.27247,41.63405c30.89893,-14.74615 67.63749,-8.67847 91.42655,15.11272c6.66017,6.65804 17.45284,6.65804 24.11301,0c6.65804,-6.65804 6.65804,-17.45284 0,-24.11088c-33.98498,-33.98498 -86.31793,-42.73804 -130.2303,-21.77289c-68.21932,32.56557 -149.98276,18.51208 -203.46872,-34.97388l-49.45576,-49.45576c-53.4753,-53.4753 -67.53306,-135.23661 -34.97815,-203.4538c14.2517,-29.86314 14.75681,-63.61368 2.94752,-92.84383c47.88929,-92.20446 144.71856,-151.38257 248.90706,-151.38257c229.99431,0 361.47565,263.0262 225.41425,446.83196c-8.35878,11.29139 -0.18329,27.19481 13.68905,27.19481c5.22157,0 10.37281,-2.38914 13.71888,-6.9074c152.94094,-206.60166 4.7463,-501.21966 -252.82218,-501.21966c-112.60056,0 -213.57939,59.53893 -269.48006,152.47612c-3.21393,-3.58051 3.62953,3.37164 -84.56604,-84.8235c-54.48445,-54.48147 -148.29396,-40.70056 -182.59649,30.59373c-74.32984,154.50315 -42.76809,339.81145 78.53033,461.10966l213.11606,213.11478c121.29182,121.29182 306.58946,152.86848 461.10753,78.53033c65.99642,-31.7493 83.42369,-115.21561 40.39579,-171.36777c119.31827,-83.71354 189.99067,-218.81801 189.99067,-365.3929z"/>
 </g>

</svg>