<svg width="1025" height="1024" xmlns="http://www.w3.org/2000/svg" version="1.1" xml:space="preserve">
 <title>Layer 1</title>

 <g>
  <title>Layer 1</title>
  <g stroke="null" id="svg_5">
   <path stroke="null" id="svg_1" fill="#000000" d="m779.73392,398.81734l-249.68022,0c-19.49884,0 -35.6686,-16.16977 -35.6686,-35.6686c0,-19.49884 16.16977,-35.6686 35.6686,-35.6686l249.68022,0c19.49884,0 35.6686,16.16977 35.6686,35.6686c0,19.49884 -15.69419,35.6686 -35.6686,35.6686z"/>
   <path stroke="null" id="svg_2" fill="#000000" d="m280.44245,434.9463c-9.03605,0 -18.07209,-3.32907 -25.20581,-10.46279l-35.6686,-35.66765c-13.79186,-13.79186 -13.79186,-36.61977 0,-50.41162c13.79186,-13.79186 36.61977,-13.79186 50.41162,0l10.46279,10.46279l81.79999,-81.79999c13.79186,-13.79186 36.61977,-13.79186 50.41162,0c13.78948,13.79186 13.78948,36.61977 0,50.41162l-107.00581,107.00486c-6.65814,6.65814 -15.69419,10.46279 -25.20581,10.46279z"/>
   <path stroke="null" id="svg_3" fill="#000000" d="m779.73392,731.72334l-249.68022,0c-19.49884,0 -35.6686,-16.16977 -35.6686,-35.6686c0,-19.49884 16.16977,-35.6686 35.6686,-35.6686l249.68022,0c19.49884,0 35.6686,16.16977 35.6686,35.6686c0,19.49884 -15.69419,35.6686 -35.6686,35.6686z"/>
   <path stroke="null" id="svg_4" fill="#000000" d="m280.44245,767.85326c-9.03605,0 -18.07209,-3.32907 -25.20581,-10.46279l-35.6686,-35.6686c-13.79186,-13.79186 -13.79186,-36.61977 0,-50.41162c13.79186,-13.79186 36.61977,-13.79186 50.41162,0l10.46279,10.46279l81.79999,-81.79999c13.79186,-13.79186 36.61977,-13.79186 50.41162,0c13.78948,13.79186 13.78948,36.61977 0,50.41162l-107.00581,107.00581c-6.65814,6.65814 -15.69419,10.46279 -25.20581,10.46279z"/>
   <path stroke="null" id="svg_6" fill="#000000" d="m655.17441,1023.24996l-285.34882,0c-258.24068,0 -368.57556,-110.33488 -368.57556,-368.57556l0,-285.34882c0,-258.24068 110.33488,-368.57556 368.57556,-368.57556l285.34882,0c258.24068,0 368.57556,110.33488 368.57556,368.57556l0,285.34882c0,258.24068 -110.33488,368.57556 -368.57556,368.57556zm-285.34882,-951.16273c-219.24301,0 -297.23835,77.99534 -297.23835,297.23835l0,285.34882c0,219.24301 77.99534,297.23835 297.23835,297.23835l285.34882,0c219.24301,0 297.23835,-77.99534 297.23835,-297.23835l0,-285.34882c0,-219.24301 -77.99534,-297.23835 -297.23835,-297.23835l-285.34882,0z"/>
  </g>
 </g>
</svg>