<svg width="1025" height="1024" xmlns="http://www.w3.org/2000/svg" version="1.1" enable-background="new 0 0 1025 1024" xml:space="preserve">
 <g>
  <title>Layer 1</title>
  <path stroke="null" id="svg_1" d="m512.49977,1.41998c-161.78318,0 -306.01886,75.52356 -399.58408,193.11519l0,-148.7169c0.0407,-2.97006 -0.51497,-5.91792 -1.63418,-8.66923c-1.11921,-2.75154 -2.77906,-5.25033 -4.8815,-7.34861c-2.10221,-2.09828 -4.60424,-3.75327 -7.35786,-4.86716c-2.75339,-1.11389 -5.70264,-1.66401 -8.67246,-1.61753c-5.88,0.0918 -11.4832,2.5129 -15.5801,6.73166c-4.0969,4.21876 -6.35265,9.89064 -6.27218,15.77087l0,221.99095l221.99095,0c2.94139,0.04162 5.86196,-0.50179 8.59292,-1.59788c2.72864,-1.0984 5.21449,-2.72633 7.30953,-4.79131c2.09504,-2.06498 3.75767,-4.5277 4.89306,-7.24016c1.13539,-2.71477 1.72043,-5.62841 1.72043,-8.56979c0,-2.94139 -0.58504,-5.85502 -1.72043,-8.56748c-1.13539,-2.71477 -2.79802,-5.17517 -4.89306,-7.24247c-2.09504,-2.06498 -4.58089,-3.69292 -7.30953,-4.789c-2.73096,-1.0984 -5.65153,-1.64181 -8.59292,-1.60019l-143.86038,0c85.36102,-108.0934 217.27941,-177.59267 365.85179,-177.59267c257.72278,0 466.18197,208.46104 466.18197,466.18151c0,257.72278 -208.45919,466.18197 -466.18197,466.18197l-0.21737,0l-22.19914,0l0,20.33534c-0.10175,1.22558 -0.10175,2.45809 0,3.68598l0,20.37696l22.19914,0c0.074,0 0.14568,0 0.21737,0l22.19914,0l0,-0.56192c271.42613,-11.66611 488.38111,-235.75026 488.38111,-510.01834c0,-281.71635 -228.86159,-510.57979 -510.58025,-510.57979zm-22.19914,199.79227l0,67.76704c-38.44845,3.72992 -69.67293,17.33614 -92.87103,40.80017c-40.53656,41.00135 -40.34463,96.55239 -40.32382,98.63818c0,95.50256 83.49652,114.07353 150.58186,128.99089c71.81422,15.91632 115.80783,28.60221 115.80783,85.58694c0,87.24263 -106.51194,88.77575 -110.99571,88.79657c-106.75475,0 -110.88471,-79.86835 -110.99571,-88.97l-22.19914,0.17343l-22.19914,0c0,43.15652 28.50508,122.31958 133.19485,132.15426l0,67.63801l44.39828,0l0,-68.02649c55.45392,-6.79386 133.19485,-39.61622 133.19485,-131.76578c0,-95.50024 -83.49421,-114.07121 -150.58186,-128.98857c-71.81422,-15.91632 -115.80783,-28.62071 -115.80783,-85.76037c0,-0.24512 0.12949,-25.42958 14.09183,-49.55958c17.82637,-30.83368 50.44061,-46.47945 96.90388,-46.47945c84.46773,0 88.5977,80.02328 88.79657,89.05787l44.39828,-0.56423c-0.53185,-42.48823 -25.12897,-119.85455 -110.99571,-131.33105l0,-68.15784l-44.39828,0zm-488.38065,288.58837l0,22.19914l0,0.2613l0,22.19914l44.39828,0l0,-22.19914l0,-0.2613l0,-22.19914l-44.39828,0zm46.56617,80.43026l-43.40094,9.40689l4.68263,21.67885l0.08672,0.43473l4.68263,21.67885l43.40094,-9.36526l-4.68263,-21.72278l-0.08672,-0.3908l-4.68263,-21.72047zm17.47327,79.73423l-41.23329,16.47593l8.19472,20.59433l0.17343,0.43473l8.23796,20.59433l41.23306,-16.43199l-8.23796,-20.63826l-0.17343,-0.3908l-8.19449,-20.63826zm31.21754,75.44239l-38.02482,22.9368l11.48991,19.03345l0.21667,0.34686l11.48991,18.98952l37.98134,-22.93449l-11.44643,-18.99183l-0.2169,-0.3908l-11.48967,-18.98952zm43.87799,68.80809l-33.819,28.74558l14.35128,16.91066l0.30362,0.34686l14.35128,16.90835l33.86248,-28.74558l-14.39476,-16.90835l-0.26015,-0.34686l-14.39476,-16.91066zm55.10752,60.18048l-28.83298,33.77507l16.9095,14.39476l0.30362,0.30524l16.9095,14.39476l28.83183,-33.77738l-16.90835,-14.39476l-0.30293,-0.30293l-16.9102,-14.39476zm64.60366,49.77464l-23.02467,37.93741l18.99183,11.5343l0.34686,0.21737l18.98952,11.48806l23.02467,-37.93741l-18.99183,-11.53199l-0.34686,-0.21737l-18.98952,-11.49037zm72.14721,37.76398l-16.51986,41.23491l20.59433,8.23681l0.3908,0.17343l20.59433,8.28074l16.51986,-41.23259l-20.59433,-8.23681l-0.3908,-0.17343l-20.59433,-8.28305zm77.56519,24.62717l-9.49476,43.3577l21.67885,4.7705l0.43473,0.08556l21.67885,4.72657l9.49476,-43.3577l-21.67885,-4.76819l-0.43473,-0.08787l-21.67885,-4.72657z"/>
 </g>

</svg>