<svg width="1025" height="1024" xmlns="http://www.w3.org/2000/svg" version="1.1" xml:space="preserve">
 <g>
  <title>Layer 1</title>
  <g stroke="null" id="svg_1">
   <path stroke="null" id="svg_2" d="m559.2259,642.26621l-521.06491,0c-19.82312,0 -36.81437,-16.99125 -36.81437,-36.81437l0,-376.63931c0,-124.60248 99.11561,-223.71809 223.71809,-223.71809l424.78118,0c19.82312,0 36.81437,16.99125 36.81437,36.81437l0,470.09117c2.83187,70.79686 -56.63749,130.26623 -127.43435,130.26623zm-484.25055,-70.79686l484.25055,0c33.98249,0 59.46937,-25.48687 59.46937,-59.46937l0,-436.10868l-390.79869,0c-84.95624,0 -152.92122,67.96499 -152.92122,152.92122l0,342.65682z"/>
   <path stroke="null" id="svg_3" d="m842.41336,925.45366l-48.14187,0c-19.82312,0 -36.81437,-16.99125 -36.81437,-36.81437c0,-33.98249 -25.48687,-59.46937 -59.46937,-59.46937c-31.15062,0 -59.46937,25.48687 -59.46937,59.46937c0,19.82312 -16.99125,36.81437 -36.81437,36.81437l-189.73559,0c-19.82312,0 -33.98249,-16.99125 -33.98249,-36.81437c0,-33.98249 -25.48687,-59.46937 -59.46937,-59.46937s-59.46937,25.48687 -59.46937,59.46937c0,19.82312 -16.99125,36.81437 -36.81437,36.81437l-42.47812,0c-96.28373,0 -175.57622,-79.29249 -175.57622,-178.4081l0,-141.59373c0,-19.82312 16.99125,-36.81437 36.81437,-36.81437l518.23304,0c33.98249,0 59.46937,-25.48687 59.46937,-59.46937l0,-328.49745c0,-19.82312 16.99125,-36.81437 36.81437,-36.81437l87.78811,0c45.30999,0 90.61999,25.48687 113.27498,65.13311l79.29249,141.59373c5.66375,11.3275 5.66375,25.48687 0,36.81437c-5.66375,11.3275 -16.99125,16.99125 -31.15062,16.99125l-59.46937,0c-5.66375,0 -11.3275,5.66375 -11.3275,11.3275l0,141.59373c0,5.66375 5.66375,11.3275 11.3275,11.3275l141.59373,0c19.82312,0 36.81437,16.99125 36.81437,36.81437l0,141.59373c-5.66375,99.11561 -84.95624,178.4081 -181.23997,178.4081zm-16.99125,-70.79686l16.99125,0c59.46937,0 107.61123,-48.14187 107.61123,-107.61123l0,-107.61123l-107.61123,0c-45.30999,0 -82.12436,-36.81437 -82.12436,-82.12436l0,-141.59373c0,-45.30999 36.81437,-82.12436 82.12436,-82.12436l-50.97374,-87.78811c-11.3275,-19.82312 -31.15062,-31.15062 -50.97374,-31.15062l-50.97374,0l0,297.34683c0,70.79686 -56.63749,130.26623 -130.26623,130.26623l-484.25055,0l0,107.61123c0,59.46937 48.14187,107.61123 104.77936,107.61123l16.99125,0c16.99125,-53.80562 65.13311,-93.45186 124.60248,-93.45186s110.44311,39.64624 124.60248,93.45186l127.43435,0c16.99125,-53.80562 65.13311,-93.45186 124.60248,-93.45186s110.44311,36.81437 127.43435,90.61999z"/>
   <path stroke="null" id="svg_4" d="m321.34844,1018.90552c-70.79686,0 -130.26623,-56.63749 -130.26623,-130.26623c0,-70.79686 59.46937,-130.26623 130.26623,-130.26623c70.79686,0 130.26623,56.63749 130.26623,130.26623c0,73.62874 -56.63749,130.26623 -130.26623,130.26623zm0,-186.90372c-31.15062,0 -59.46937,25.48687 -59.46937,59.46937c0,31.15062 25.48687,59.46937 59.46937,59.46937s59.46937,-25.48687 59.46937,-59.46937c0,-33.98249 -25.48687,-59.46937 -59.46937,-59.46937z"/>
   <path stroke="null" id="svg_5" d="m700.81963,1018.90552c-70.79686,0 -130.26623,-56.63749 -130.26623,-130.26623c0,-70.79686 59.46937,-130.26623 130.26623,-130.26623c70.79686,0 130.26623,56.63749 130.26623,130.26623c0,73.62874 -59.46937,130.26623 -130.26623,130.26623zm0,-186.90372c-31.15062,0 -59.46937,25.48687 -59.46937,59.46937c0,31.15062 25.48687,59.46937 59.46937,59.46937c33.98249,0 59.46937,-25.48687 59.46937,-59.46937c0,-33.98249 -28.31875,-59.46937 -59.46937,-59.46937z"/>
   <path stroke="null" id="svg_6" d="m984.00708,642.26621l-141.59373,0c-45.30999,0 -82.12436,-36.81437 -82.12436,-82.12436l0,-141.59373c0,-45.30999 36.81437,-82.12436 82.12436,-82.12436l59.46937,0c14.15937,0 25.48687,5.66375 31.15062,16.99125l79.29249,141.59373c2.83187,5.66375 5.66375,11.3275 5.66375,16.99125l0,93.45186c0,19.82312 -16.99125,36.81437 -33.98249,36.81437zm-141.59373,-235.04559c-5.66375,0 -11.3275,5.66375 -11.3275,11.3275l0,141.59373c0,5.66375 5.66375,11.3275 11.3275,11.3275l104.77936,0l0,-48.14187l-65.13311,-116.10686l-39.64624,0z"/>
  </g>
 </g>

</svg>