<svg width="1025" height="1024" xmlns="http://www.w3.org/2000/svg" xml:space="preserve" enable-background="new 0 0 1025 1024" version="1.1">

 <g>
  <title>Layer 1</title>
  <g stroke="null" id="svg_1">
   <path stroke="null" id="svg_2" d="m289.12403,0.06049l0,22.59835l0,311.16187c-36.50502,0 -66.05671,29.55169 -66.05671,66.05671l0,378.95691c0,60.84171 50.4117,111.25341 111.25341,111.25341l88.65506,0l0,133.85175l45.1967,0l0,-133.85175l88.65506,0l0,133.85175l45.1967,0l0,-133.85175l88.65506,0c60.84171,0 111.25341,-50.4117 111.25341,-111.25341l0,-378.95691c0,-36.50502 -29.55169,-66.05671 -66.05671,-66.05671l0,-333.76022l-446.75196,0zm45.1967,43.45836l356.35857,0l0,288.56352l-356.35857,0l0,-288.56352zm43.45836,133.85175l0,66.05671l88.65506,0l0,-66.05671l-88.65506,0zm179.04845,0l0,66.05671l88.65506,0l0,-66.05671l-88.65506,0zm-267.70351,199.90846l445.01362,0c12.16834,0 22.59835,10.43001 22.59835,22.59835l0,378.95691c0,36.50502 -29.55169,66.05671 -66.05671,66.05671l-356.35857,0c-36.50502,0 -66.05671,-29.55169 -66.05671,-66.05671l0,-378.95691c-1.73833,-12.16834 8.69167,-22.59835 20.86001,-22.59835zm222.50681,67.79504c-36.50502,0 -66.05671,29.55169 -66.05671,66.05671c0,36.50502 29.55169,66.05671 66.05671,66.05671c36.50502,0 66.05671,-29.55169 66.05671,-66.05671c0,-36.50502 -29.55169,-66.05671 -66.05671,-66.05671zm0,43.45836c12.16834,0 22.59835,10.43001 22.59835,22.59835c0,12.16834 -10.43001,22.59835 -22.59835,22.59835c-12.16834,0 -22.59835,-10.43001 -22.59835,-22.59835c0,-12.16834 10.43001,-22.59835 22.59835,-22.59835z"/>
  </g>
 </g>
</svg>