<svg width="1025" height="1024" xmlns="http://www.w3.org/2000/svg" version="1.1" xml:space="preserve">
 <title>Layer 1</title>

 <g>
  <title>Layer 1</title>
  <g stroke="null" id="svg_5">
   <path stroke="null" id="svg_1" fill="#000000" d="m380.54055,67.5153c5.27733,12.4986 5.3725,26.5807 0.26709,39.15021c-5.10234,12.56921 -14.99082,22.59706 -27.48574,27.87839c-74.18171,31.31372 -137.48394,83.80248 -181.99192,150.90169c-44.50798,67.0986 -68.24647,145.83189 -68.24647,226.35192c0,80.51696 23.73849,159.25026 68.24647,226.34824c44.50798,67.10105 107.81021,119.58889 181.99192,150.90292c6.32728,2.5174 12.0866,6.27202 16.94335,11.04587c4.85674,4.77078 8.71267,10.46564 11.34059,16.74687c2.62792,6.28123 3.97565,13.02602 3.96337,19.83529c-0.01228,6.80927 -1.3815,13.54792 -4.03091,19.81994c-2.64941,6.27509 -6.52376,11.95459 -11.39892,16.71003c-4.87209,4.75543 -10.64677,8.49163 -16.98019,10.98754c-6.33649,2.49591 -13.10584,3.70242 -19.91511,3.54892c-6.8062,-0.1535 -13.51415,-1.66701 -19.73091,-4.44536c-92.69689,-39.15175 -171.79613,-104.76078 -227.40923,-188.62097c-55.61341,-83.8602 -85.2727,-182.25379 -85.27056,-282.87927c0,-212.08746 129.04235,-393.98513 312.6276,-471.5027c6.1922,-2.62025 12.83875,-3.99469 19.56206,-4.04442c6.72331,-0.05004 13.39135,1.22555 19.62039,3.75339c6.22904,2.52815 11.89933,6.25912 16.68547,10.97956c4.7892,4.72074 8.59908,10.33823 11.21165,16.53197zm330.9463,-27.22049c92.7018,39.14622 171.8035,104.75218 227.41967,188.61483c55.6131,83.86235 85.26933,182.25931 85.26012,282.88786c0,212.085 -129.04143,393.93048 -312.6276,471.50024c-12.49798,5.29268 -26.58622,5.4032 -39.1671,0.307c-12.58087,-5.0962 -22.61978,-14.97854 -27.91247,-27.47653c-5.29268,-12.49798 -5.4032,-26.58622 -0.307,-39.1671c5.09313,-12.58087 14.97854,-22.61978 27.47653,-27.91247c74.18048,-31.31403 137.48394,-83.80187 181.98977,-150.90292c44.5089,-67.09798 68.24616,-145.83127 68.24616,-226.34824c0,-80.52003 -23.73726,-159.25333 -68.24616,-226.35192c-44.50583,-67.09921 -107.80929,-119.58797 -181.98977,-150.90169c-12.49798,-5.29238 -22.38339,-15.33313 -27.47653,-27.91277c-5.0962,-12.57995 -4.98568,-26.66881 0.307,-39.16679c5.29268,-12.49829 15.33159,-22.38216 27.91247,-27.47745c12.58087,-5.09528 26.66911,-4.98446 39.1671,0.30792l-0.05219,0zm-198.9853,164.50088c13.56941,0 26.58315,5.39062 36.17998,14.98653c9.59376,9.5956 14.98468,22.60996 14.98468,36.18029l0,51.16651l102.33547,0c13.56941,0 26.58315,5.39092 36.17998,14.98653c9.59376,9.5956 14.98468,22.60934 14.98468,36.18183c0,13.56941 -5.39092,26.58315 -14.98468,36.17998c-9.59683,9.59376 -22.61057,14.98468 -36.17998,14.98468l-102.33547,0l0,51.16774l51.16774,0c33.9266,0 66.46249,13.47731 90.45149,37.46631c23.989,23.989 37.46631,56.52489 37.46631,90.44842c0,33.9266 -13.47731,66.46249 -37.46631,90.45149c-23.989,23.989 -56.52489,37.46631 -90.45149,37.46631l-51.16774,0l0,51.16774c0,13.56941 -5.39092,26.58315 -14.98468,36.17998c-9.59683,9.59683 -22.61057,14.98775 -36.17998,14.98775c-13.57248,0 -26.58622,-5.39092 -36.17998,-14.98775c-9.59683,-9.59683 -14.98775,-22.61057 -14.98775,-36.17998l0,-51.16774l-102.3324,0c-13.57248,0 -26.58622,-5.39092 -36.17998,-14.98468c-9.59683,-9.59683 -14.98775,-22.61057 -14.98775,-36.17998c0,-13.57248 5.39092,-26.58622 14.98775,-36.18305c9.59376,-9.59376 22.6075,-14.98468 36.17998,-14.98468l102.3324,0l0,-51.16774l-51.16774,0c-33.92353,0 -66.45942,-13.47731 -90.44842,-37.46631c-23.99054,-23.989 -37.46754,-56.52489 -37.46754,-90.44842c0,-33.9266 13.47701,-66.46249 37.46754,-90.45149c23.989,-23.98992 56.52489,-37.46693 90.44842,-37.46693l51.16774,0l0,-51.16651c0,-13.57033 5.39092,-26.58469 14.98775,-36.18029c9.59376,-9.59591 22.6075,-14.98653 36.17998,-14.98653zm102.3324,358.16648l-51.16774,0l0,51.16774l51.16774,0c6.78471,0 13.29311,-2.69546 18.09153,-7.49388c4.79534,-4.79841 7.49081,-11.30375 7.49081,-18.09153c0,-6.78471 -2.69546,-13.29004 -7.49081,-18.08846c-4.79841,-4.79841 -11.30682,-7.49388 -18.09153,-7.49388zm-153.50014,-153.50014l-51.16774,0c-6.78471,0 -13.29004,2.69546 -18.08846,7.49388c-4.79841,4.79841 -7.49388,11.30375 -7.49388,18.09153c0,6.78471 2.69546,13.29004 7.49388,18.08846c4.79841,4.79841 11.30375,7.49388 18.08846,7.49388l51.16774,0l0,-51.16774z"/>
  </g>
 </g>
</svg>