<svg width="1025" height="1024" xmlns="http://www.w3.org/2000/svg" version="1.1" xml:space="preserve">
 <title>Layer 1</title>

 <g>
  <title>Layer 1</title>
  <g stroke="null" id="svg_5">
   <path stroke="null" id="svg_1" fill="#000000" d="m512.49881,122.33884c74.10188,0 134.14419,60.0465 134.14419,134.14599c0,74.09949 -60.04231,134.14599 -134.14419,134.14599c-74.09949,0 -134.14599,-60.0465 -134.14599,-134.14599c0,-74.09949 60.0465,-134.14599 134.14599,-134.14599l0,0zm0,574.90898c189.71896,0 389.66236,93.26739 389.66236,134.14599l0,70.27094l-779.32471,0l0,-70.27094c0,-40.87859 199.9416,-134.14599 389.66236,-134.14599l0,0zm0,-696.27876c-141.17248,0 -255.51637,114.34329 -255.51637,255.51577c0,141.17248 114.34388,255.51637 255.51637,255.51637c141.17488,0 255.51637,-114.34388 255.51637,-255.51637c0,-141.17248 -114.34149,-255.51577 -255.51637,-255.51577zm0,574.91258c-170.55704,0 -511.03214,85.59592 -511.03214,255.51218l0,127.76208c0,35.12948 28.74557,63.87505 63.87864,63.87505l894.30699,0c35.13547,0 63.88104,-28.74557 63.88104,-63.87505l0,-127.76208c0,-169.91626 -340.47929,-255.51218 -511.03453,-255.51218z" clip-rule="evenodd" fill-rule="evenodd"/>
  </g>
 </g>
</svg>