<svg width="1025" height="1024" xmlns="http://www.w3.org/2000/svg" version="1.1" xml:space="preserve">
 <title>Layer 1</title>

 <g>
  <title>Layer 1</title>
  <g stroke="null" id="svg_5">
   <path stroke="null" id="svg_1" fill="#000000" d="m512.49941,163.04547c-232.63577,0 -431.30722,144.69981 -511.7994,348.95453c80.49218,204.25472 279.16363,348.95453 511.7994,348.95453c232.63694,0 431.30839,-144.69981 511.80056,-348.95453c-80.49218,-204.25472 -279.16363,-348.95453 -511.80056,-348.95453zm0.00058,581.59089c-128.41527,0 -232.63636,-104.22109 -232.63636,-232.63636c0,-128.41527 104.22109,-232.63636 232.63636,-232.63636c128.41527,0 232.63636,104.22109 232.63636,232.63636c0,128.41527 -104.22109,232.63636 -232.63636,232.63636zm0,-372.21817c-77.23527,0 -139.58181,62.34654 -139.58181,139.58181c0,77.23527 62.34654,139.58181 139.58181,139.58181c77.23527,0 139.58181,-62.34654 139.58181,-139.58181c0,-77.23527 -62.34654,-139.58181 -139.58181,-139.58181z" clip-rule="evenodd" fill-rule="evenodd"/>
  </g>
 </g>
</svg>