<svg width="1025" height="1024" xmlns="http://www.w3.org/2000/svg" xml:space="preserve" version="1.1">
 <g>
  <title>Layer 1</title>
  <g stroke="null" id="svg_3">
   <path stroke="null" id="svg_1" fill="#000000" d="m961.4277,243.53126l50.86157,-41.6547c13.65047,-11.18891 15.66447,-31.29697 4.47556,-44.9794c-11.18891,-13.65047 -31.32894,-15.6325 -44.9794,-4.47556l-50.8296,41.62273c-26.08614,21.35483 -63.07346,18.60555 -85.96277,-6.36169l-59.42908,-64.89566c-6.10595,-6.61744 -14.64148,-10.3897 -23.62458,-10.3897c-8.95113,0 -17.51863,3.77226 -23.56064,10.3897l-49.87055,54.53793c-12.21189,13.33078 -28.67557,20.65152 -46.38601,20.65152c-17.71044,0 -34.17412,-7.32074 -46.38601,-20.68349l-49.83859,-54.50596c-12.11599,-13.23488 -35.06923,-13.23488 -47.18522,0l-49.87055,54.50596c-12.17992,13.33078 -28.6436,20.68349 -46.38601,20.68349c-17.71044,0 -34.17412,-7.32074 -46.38601,-20.68349l-49.83859,-54.50596c-12.11599,-13.23488 -35.06923,-13.23488 -47.18522,0l-59.17269,64.73581c-22.92127,25.03118 -59.87663,27.81242 -86.05867,6.39366l-50.57386,-41.49486c-13.6185,-11.22087 -33.75853,-9.1749 -44.9794,4.44359c-11.22087,13.65047 -9.20687,33.7905 4.44359,44.9794l50.57386,41.49486c51.94849,42.58178 128.25683,37.0193 173.77906,-12.69142l35.58072,-38.90543l26.24598,28.70754c24.1041,26.37385 58.21428,41.46289 93.57122,41.46289l0.03197,0c35.35694,0 69.46712,-15.12101 93.53926,-41.49486l26.24598,-28.67557l26.24598,28.70754c24.1041,26.34188 58.18231,41.46289 93.57122,41.46289c35.35694,0 69.46712,-15.12101 93.57122,-41.46289l26.30991,-28.73951l35.83647,39.1292c24.96725,27.26896 59.23727,41.20714 93.63516,41.20714c28.22801,0 56.5839,-9.36671 79.9847,-28.51573z"/>
   <path stroke="null" id="svg_2" fill="#000000" d="m373.03829,343.52598c-13.52259,-11.25284 -33.69459,-9.36671 -45.01137,4.21982c-21.83435,26.30991 -56.80768,26.30991 -78.64203,0c-11.25284,-13.58653 -31.42484,-15.47266 -45.01031,-4.21982c-13.58653,11.28481 -15.47266,31.42484 -4.21982,45.01137c23.27186,28.10014 54.72867,43.54083 88.55114,43.54083c33.82247,0 65.27928,-15.44069 88.5522,-43.54083c11.28481,-13.58653 9.36671,-33.72656 -4.21982,-45.01137z"/>
   <path stroke="null" id="svg_4" fill="#000000" d="m8.35816,548.37887c23.27293,28.10014 54.72974,43.54083 88.5522,43.54083c33.82247,0 65.27928,-15.44069 88.5522,-43.54083c11.28481,-13.58653 9.36671,-33.75853 -4.21982,-45.01137c-13.52259,-11.25284 -33.72656,-9.39868 -45.01137,4.21982c-21.83435,26.30991 -56.80768,26.30991 -78.64203,0c-11.28481,-13.58653 -31.42484,-15.44069 -45.01137,-4.21982c-13.58653,11.28481 -15.50463,31.42484 -4.21982,45.01137z"/>
   <path stroke="null" id="svg_5" fill="#000000" d="m820.59667,343.52598c-13.55456,-11.25284 -33.72869,-9.36671 -45.0135,4.21982c-21.83435,26.30991 -56.80554,26.30991 -78.6399,0c-11.25284,-13.58653 -31.42697,-15.44069 -45.0135,-4.21982c-13.58653,11.28481 -15.47266,31.42484 -4.21982,45.01137c23.27293,28.10014 54.73187,43.54083 88.55433,43.54083c33.82247,0 65.27928,-15.44069 88.5522,-43.54083c11.28481,-13.58653 9.36671,-33.72656 -4.21982,-45.01137z"/>
   <path stroke="null" id="svg_6" fill="#000000" d="m328.02692,667.42884c-21.83435,26.30991 -56.80768,26.30991 -78.64203,0c-11.25284,-13.58653 -31.42484,-15.47266 -45.01031,-4.21982c-13.58653,11.25284 -15.47266,31.42484 -4.21982,45.01137c23.27186,28.10014 54.72867,43.54083 88.55114,43.54083c33.82247,0 65.27928,-15.44069 88.5522,-43.54083c11.28481,-13.58653 9.36671,-33.75853 -4.21982,-45.01137c-13.52259,-11.25284 -33.69459,-9.39868 -45.01137,4.21982z"/>
   <path stroke="null" id="svg_7" fill="#000000" d="m775.58317,667.42884c-21.83435,26.30991 -56.80554,26.30991 -78.6399,0c-11.25284,-13.58653 -31.42697,-15.47266 -45.0135,-4.21982c-13.58653,11.25284 -15.47266,31.42484 -4.21982,45.01137c23.27293,28.10014 54.73187,43.54083 88.55433,43.54083c33.82247,0 65.27928,-15.44069 88.5522,-43.54083c11.28481,-13.58653 9.36671,-33.75853 -4.21982,-45.01137c-13.55456,-11.25284 -33.72869,-9.39868 -45.0135,4.21982z"/>
   <path stroke="null" id="svg_8" fill="#000000" d="m967.39299,507.58732c-21.83435,26.30991 -56.80554,26.30991 -78.6399,0c-11.25284,-13.58653 -31.42697,-15.44069 -45.0135,-4.21982c-13.58653,11.28481 -15.47266,31.42484 -4.21982,45.01137c23.27293,28.10014 54.73187,43.54083 88.55433,43.54083c33.82247,0 65.27928,-15.44069 88.5522,-43.54083c11.28481,-13.58653 9.36671,-33.75853 -4.21982,-45.01137c-13.55456,-11.25284 -33.72869,-9.39868 -45.0135,4.21982z"/>
   <path stroke="null" id="svg_9" fill="#000000" d="m596.81854,503.3675c-13.55456,-11.25284 -33.72869,-9.39868 -45.0135,4.21982c-21.83435,26.30991 -56.80554,26.30991 -78.6399,0c-11.25284,-13.58653 -31.42484,-15.44069 -45.01137,-4.21982c-13.58653,11.28481 -15.47479,31.42484 -4.22195,45.01137c23.27293,28.10014 54.72974,43.54083 88.55433,43.54083c33.82033,0 65.27928,-15.44069 88.5522,-43.54083c11.28481,-13.58653 9.36671,-33.72656 -4.21982,-45.01137z"/>
   <path stroke="null" id="svg_10" fill="#000000" d="m185.44935,868.06191c11.28481,-13.58653 9.36671,-33.75853 -4.21982,-45.01137c-13.52259,-11.25284 -33.72656,-9.39868 -45.01137,4.21982c-21.83435,26.30991 -56.80768,26.30991 -78.64203,0c-11.28481,-13.58653 -31.42484,-15.47266 -45.01137,-4.21982c-13.58653,11.25284 -15.47266,31.42484 -4.21982,45.01137c23.27293,28.10014 54.72974,43.54083 88.5522,43.54083c33.82247,0 65.27928,-15.44069 88.5522,-43.54083z"/>
   <path stroke="null" id="svg_11" fill="#000000" d="m967.39299,827.27035c-21.83435,26.30991 -56.80554,26.30991 -78.6399,0c-11.25284,-13.58653 -31.42697,-15.47266 -45.0135,-4.21982c-13.58653,11.25284 -15.47266,31.42484 -4.21982,45.01137c23.27293,28.10014 54.73187,43.54083 88.55433,43.54083c33.82247,0 65.27928,-15.44069 88.5522,-43.54083c11.28481,-13.58653 9.36671,-33.75853 -4.21982,-45.01137c-13.55456,-11.25284 -33.72869,-9.39868 -45.0135,4.21982z"/>
   <path stroke="null" id="svg_12" fill="#000000" d="m551.80504,827.27035c-21.83435,26.30991 -56.80554,26.30991 -78.6399,0c-11.25284,-13.58653 -31.42484,-15.47266 -45.01137,-4.21982c-13.58653,11.25284 -15.47479,31.42484 -4.22195,45.01137c23.27293,28.10014 54.72974,43.54083 88.55433,43.54083c33.82033,0 65.27928,-15.44069 88.5522,-43.54083c11.28481,-13.58653 9.36671,-33.75853 -4.21982,-45.01137c-13.55456,-11.25284 -33.72869,-9.39868 -45.0135,4.21982z"/>
  </g>
 </g>

</svg>